%FSLAX44Y44*%
%MOMM*%
G71*
G01*
G75*
%ADD10R,0.7620X0.7620*%
%ADD11R,0.5000X0.2000*%
%ADD12R,0.7620X0.7620*%
%ADD13R,0.3000X0.3000*%
%ADD14R,1.3000X0.4500*%
%ADD15R,2.7940X0.7366*%
%ADD16R,0.6200X0.5700*%
%ADD17C,0.1500*%
%ADD18C,0.2540*%
%ADD19C,0.1524*%
%ADD20O,2.0000X1.4500*%
%ADD21O,1.8000X1.1500*%
%ADD22C,0.8000*%
%ADD23C,1.5240*%
%ADD24R,1.5240X1.5240*%
%ADD25C,1.8000*%
%ADD26R,1.8000X1.8000*%
%ADD27C,0.6100*%
%ADD28C,0.6000*%
%ADD29C,3.3000*%
%ADD30R,0.6000X0.5500*%
%ADD31R,0.9500X0.9500*%
%ADD32R,0.5500X0.6000*%
%ADD33R,0.9500X0.9500*%
%ADD34R,0.8500X0.3500*%
%ADD35R,1.5000X1.0000*%
%ADD36O,0.8000X0.3000*%
%ADD37O,0.3000X0.8000*%
%ADD38R,1.2500X0.3000*%
%ADD39O,0.3500X1.7500*%
%ADD40O,1.7500X0.3500*%
%ADD41R,0.9700X0.9600*%
%ADD42R,0.5700X0.6200*%
%ADD43R,1.4000X2.2000*%
D10*
X1718250Y1252735D02*
D03*
Y1238765D02*
D03*
X1718250Y1144515D02*
D03*
Y1158485D02*
D03*
X1718250Y1207015D02*
D03*
Y1220985D02*
D03*
X1718250Y1112015D02*
D03*
Y1125985D02*
D03*
X1317500Y1235515D02*
D03*
Y1249485D02*
D03*
D11*
X1606250Y1170000D02*
D03*
Y1175000D02*
D03*
Y1180000D02*
D03*
Y1185000D02*
D03*
Y1190000D02*
D03*
Y1195000D02*
D03*
Y1200000D02*
D03*
X1618750D02*
D03*
Y1195000D02*
D03*
Y1190000D02*
D03*
Y1185000D02*
D03*
Y1180000D02*
D03*
Y1175000D02*
D03*
Y1170000D02*
D03*
D12*
X1450985Y1257750D02*
D03*
X1437015D02*
D03*
X1450985Y1165500D02*
D03*
X1437015D02*
D03*
X1450985Y1207500D02*
D03*
X1437015D02*
D03*
X1450985Y1113750D02*
D03*
X1437015D02*
D03*
X1450985Y1232625D02*
D03*
X1437015D02*
D03*
X1450985Y1139625D02*
D03*
X1437015D02*
D03*
D13*
X1358250Y1170250D02*
D03*
Y1177250D02*
D03*
X1366750Y1173750D02*
D03*
D14*
X1342900Y1183640D02*
D03*
Y1157640D02*
D03*
Y1164140D02*
D03*
Y1177140D02*
D03*
Y1170640D02*
D03*
D15*
X1532180Y1212900D02*
D03*
X1572820D02*
D03*
X1532180Y1200200D02*
D03*
X1572820D02*
D03*
X1532180Y1187500D02*
D03*
X1572820D02*
D03*
X1532180Y1174800D02*
D03*
X1572820D02*
D03*
X1532180Y1162100D02*
D03*
X1572820D02*
D03*
D16*
X1375250Y1156450D02*
D03*
Y1166050D02*
D03*
X1607500Y1148950D02*
D03*
Y1158550D02*
D03*
D20*
X1342900Y1207890D02*
D03*
Y1133390D02*
D03*
D21*
X1304900Y1209390D02*
D03*
Y1131890D02*
D03*
D22*
X1332400Y1195640D02*
D03*
Y1145640D02*
D03*
D23*
X1790000Y1110000D02*
D03*
X1770000D02*
D03*
X1790000Y1130000D02*
D03*
X1770000D02*
D03*
X1790000Y1150000D02*
D03*
X1770000D02*
D03*
X1790000Y1170000D02*
D03*
X1770000D02*
D03*
X1790000Y1190000D02*
D03*
X1770000D02*
D03*
X1790000Y1210000D02*
D03*
X1770000D02*
D03*
X1790000Y1230000D02*
D03*
X1770000D02*
D03*
X1790000Y1250000D02*
D03*
D24*
X1770000D02*
D03*
D25*
X1411054Y1207202D02*
D03*
Y1232602D02*
D03*
Y1114200D02*
D03*
Y1139600D02*
D03*
D26*
Y1258002D02*
D03*
Y1165000D02*
D03*
M02*
