%FSLAX44Y44*%
%MOMM*%
G71*
G01*
G75*
G04 Layer_Physical_Order=2*
G04 Layer_Color=36540*
%ADD10R,0.7620X0.7620*%
%ADD11R,0.5000X0.2000*%
%ADD12R,0.7620X0.7620*%
%ADD13R,0.3000X0.3000*%
%ADD14R,1.3000X0.4500*%
%ADD15R,2.7940X0.7366*%
%ADD16R,0.6200X0.5700*%
%ADD17C,0.1500*%
%ADD18C,0.2540*%
%ADD19C,0.1524*%
%ADD20O,2.0000X1.4500*%
%ADD21O,1.8000X1.1500*%
%ADD22C,0.8000*%
%ADD23C,1.5240*%
%ADD24R,1.5240X1.5240*%
%ADD25C,1.8000*%
%ADD26R,1.8000X1.8000*%
%ADD27C,0.6100*%
%ADD28C,0.6000*%
%ADD29C,3.3000*%
G36*
X1800000Y1251859D02*
X1798733Y1251776D01*
X1798661Y1252321D01*
X1797765Y1254483D01*
X1796340Y1256340D01*
X1794483Y1257765D01*
X1792321Y1258661D01*
X1790000Y1258967D01*
X1787679Y1258661D01*
X1785517Y1257765D01*
X1783660Y1256340D01*
X1782235Y1254483D01*
X1781339Y1252321D01*
X1781033Y1250000D01*
X1781339Y1247679D01*
X1782235Y1245517D01*
X1783660Y1243660D01*
X1785517Y1242235D01*
X1787679Y1241339D01*
X1790000Y1241033D01*
X1792321Y1241339D01*
X1794483Y1242235D01*
X1796340Y1243660D01*
X1797765Y1245517D01*
X1798661Y1247679D01*
X1798733Y1248224D01*
X1800000Y1248141D01*
Y1231859D01*
X1798733Y1231776D01*
X1798661Y1232321D01*
X1797765Y1234483D01*
X1796340Y1236340D01*
X1794483Y1237765D01*
X1792321Y1238661D01*
X1790000Y1238967D01*
X1787679Y1238661D01*
X1785517Y1237765D01*
X1783660Y1236340D01*
X1782235Y1234483D01*
X1781339Y1232321D01*
X1781033Y1230000D01*
X1781339Y1227679D01*
X1782235Y1225517D01*
X1783660Y1223660D01*
X1785517Y1222235D01*
X1787679Y1221339D01*
X1790000Y1221033D01*
X1792321Y1221339D01*
X1794483Y1222235D01*
X1796340Y1223660D01*
X1797765Y1225517D01*
X1798661Y1227679D01*
X1798733Y1228224D01*
X1800000Y1228141D01*
Y1211859D01*
X1798733Y1211776D01*
X1798661Y1212321D01*
X1797765Y1214483D01*
X1796340Y1216340D01*
X1794483Y1217766D01*
X1792321Y1218661D01*
X1790000Y1218967D01*
X1787679Y1218661D01*
X1785517Y1217766D01*
X1783660Y1216340D01*
X1782235Y1214483D01*
X1781339Y1212321D01*
X1781033Y1210000D01*
X1781339Y1207679D01*
X1782235Y1205517D01*
X1783660Y1203660D01*
X1785517Y1202235D01*
X1787679Y1201339D01*
X1790000Y1201033D01*
X1792321Y1201339D01*
X1794483Y1202235D01*
X1796340Y1203660D01*
X1797765Y1205517D01*
X1798661Y1207679D01*
X1798733Y1208224D01*
X1800000Y1208141D01*
Y1191859D01*
X1798733Y1191776D01*
X1798661Y1192321D01*
X1797765Y1194483D01*
X1796340Y1196340D01*
X1794483Y1197766D01*
X1792321Y1198661D01*
X1790000Y1198967D01*
X1787679Y1198661D01*
X1785517Y1197766D01*
X1783660Y1196340D01*
X1782235Y1194483D01*
X1781339Y1192321D01*
X1781033Y1190000D01*
X1781339Y1187679D01*
X1782235Y1185517D01*
X1783660Y1183660D01*
X1785517Y1182235D01*
X1787679Y1181339D01*
X1790000Y1181033D01*
X1792321Y1181339D01*
X1794483Y1182235D01*
X1796340Y1183660D01*
X1797765Y1185517D01*
X1798661Y1187679D01*
X1798733Y1188224D01*
X1800000Y1188141D01*
Y1171859D01*
X1798733Y1171776D01*
X1798661Y1172321D01*
X1797765Y1174483D01*
X1796340Y1176341D01*
X1794483Y1177766D01*
X1792321Y1178661D01*
X1790000Y1178967D01*
X1787679Y1178661D01*
X1785517Y1177766D01*
X1783660Y1176341D01*
X1782235Y1174483D01*
X1781339Y1172321D01*
X1781033Y1170000D01*
X1781339Y1167679D01*
X1782235Y1165517D01*
X1783660Y1163660D01*
X1785517Y1162235D01*
X1787679Y1161339D01*
X1790000Y1161033D01*
X1792321Y1161339D01*
X1794483Y1162235D01*
X1796340Y1163660D01*
X1797765Y1165517D01*
X1798661Y1167679D01*
X1798733Y1168224D01*
X1800000Y1168141D01*
Y1151859D01*
X1798733Y1151776D01*
X1798661Y1152321D01*
X1797765Y1154483D01*
X1796340Y1156341D01*
X1794483Y1157766D01*
X1792321Y1158661D01*
X1790000Y1158967D01*
X1787679Y1158661D01*
X1785517Y1157766D01*
X1783660Y1156341D01*
X1782235Y1154483D01*
X1781339Y1152321D01*
X1781033Y1150000D01*
X1781339Y1147679D01*
X1782235Y1145517D01*
X1783660Y1143660D01*
X1785517Y1142235D01*
X1787679Y1141339D01*
X1790000Y1141033D01*
X1792321Y1141339D01*
X1794483Y1142235D01*
X1796340Y1143660D01*
X1797765Y1145517D01*
X1798661Y1147679D01*
X1798733Y1148224D01*
X1800000Y1148141D01*
Y1131859D01*
X1798733Y1131776D01*
X1798661Y1132321D01*
X1797765Y1134484D01*
X1796340Y1136341D01*
X1794483Y1137766D01*
X1792321Y1138661D01*
X1790000Y1138967D01*
X1787679Y1138661D01*
X1785517Y1137766D01*
X1783660Y1136341D01*
X1782235Y1134484D01*
X1781339Y1132321D01*
X1781033Y1130000D01*
X1781339Y1127680D01*
X1782235Y1125517D01*
X1783660Y1123660D01*
X1785517Y1122235D01*
X1787679Y1121339D01*
X1790000Y1121033D01*
X1792321Y1121339D01*
X1794483Y1122235D01*
X1796340Y1123660D01*
X1797765Y1125517D01*
X1798661Y1127680D01*
X1798733Y1128224D01*
X1800000Y1128141D01*
Y1084250D01*
X1287000D01*
Y1284750D01*
X1800000D01*
Y1251859D01*
D02*
G37*
%LPC*%
G36*
X1590500Y1147155D02*
X1588814Y1146819D01*
X1587386Y1145864D01*
X1586431Y1144436D01*
X1586095Y1142750D01*
X1586431Y1141064D01*
X1587386Y1139635D01*
X1588814Y1138681D01*
X1590500Y1138345D01*
X1592186Y1138681D01*
X1593615Y1139635D01*
X1594569Y1141064D01*
X1594905Y1142750D01*
X1594569Y1144436D01*
X1593615Y1145864D01*
X1592186Y1146819D01*
X1590500Y1147155D01*
D02*
G37*
G36*
X1460750Y1144155D02*
X1459064Y1143819D01*
X1457635Y1142865D01*
X1456681Y1141436D01*
X1456345Y1139750D01*
X1456681Y1138064D01*
X1457635Y1136636D01*
X1459064Y1135681D01*
X1460750Y1135345D01*
X1462436Y1135681D01*
X1463864Y1136636D01*
X1464819Y1138064D01*
X1465155Y1139750D01*
X1464819Y1141436D01*
X1463864Y1142865D01*
X1462436Y1143819D01*
X1460750Y1144155D01*
D02*
G37*
G36*
X1506250Y1143905D02*
X1504564Y1143569D01*
X1503136Y1142615D01*
X1502181Y1141186D01*
X1501845Y1139500D01*
X1502181Y1137814D01*
X1503136Y1136385D01*
X1504564Y1135431D01*
X1506250Y1135095D01*
X1507936Y1135431D01*
X1509364Y1136385D01*
X1510319Y1137814D01*
X1510655Y1139500D01*
X1510319Y1141186D01*
X1509364Y1142615D01*
X1507936Y1143569D01*
X1506250Y1143905D01*
D02*
G37*
G36*
X1408554Y1148306D02*
X1406515Y1147461D01*
X1404635Y1146019D01*
X1403192Y1144139D01*
X1402348Y1142100D01*
X1408554D01*
Y1148306D01*
D02*
G37*
G36*
X1770000Y1158967D02*
X1767679Y1158661D01*
X1765517Y1157766D01*
X1763660Y1156341D01*
X1762235Y1154483D01*
X1761339Y1152321D01*
X1761033Y1150000D01*
X1761339Y1147679D01*
X1762235Y1145517D01*
X1763660Y1143660D01*
X1765517Y1142235D01*
X1767679Y1141339D01*
X1770000Y1141033D01*
X1772321Y1141339D01*
X1774483Y1142235D01*
X1776340Y1143660D01*
X1777765Y1145517D01*
X1778661Y1147679D01*
X1778967Y1150000D01*
X1778661Y1152321D01*
X1777765Y1154483D01*
X1776340Y1156341D01*
X1774483Y1157766D01*
X1772321Y1158661D01*
X1770000Y1158967D01*
D02*
G37*
G36*
X1363000Y1148905D02*
X1361314Y1148569D01*
X1359886Y1147615D01*
X1358931Y1146186D01*
X1358595Y1144500D01*
X1358931Y1142814D01*
X1359886Y1141385D01*
X1361314Y1140431D01*
X1363000Y1140095D01*
X1364686Y1140431D01*
X1366115Y1141385D01*
X1367069Y1142814D01*
X1367405Y1144500D01*
X1367069Y1146186D01*
X1366115Y1147615D01*
X1364686Y1148569D01*
X1363000Y1148905D01*
D02*
G37*
G36*
X1694750Y1143155D02*
X1693064Y1142819D01*
X1691635Y1141864D01*
X1690681Y1140436D01*
X1690345Y1138750D01*
X1690681Y1137064D01*
X1691635Y1135636D01*
X1693064Y1134681D01*
X1694750Y1134345D01*
X1696436Y1134681D01*
X1697865Y1135636D01*
X1698819Y1137064D01*
X1699155Y1138750D01*
X1698819Y1140436D01*
X1697865Y1141864D01*
X1696436Y1142819D01*
X1694750Y1143155D01*
D02*
G37*
G36*
X1711250Y1139655D02*
X1709564Y1139319D01*
X1708136Y1138364D01*
X1707181Y1136936D01*
X1706845Y1135250D01*
X1707181Y1133564D01*
X1708136Y1132135D01*
X1709564Y1131181D01*
X1711250Y1130845D01*
X1712936Y1131181D01*
X1714364Y1132135D01*
X1715319Y1133564D01*
X1715655Y1135250D01*
X1715319Y1136936D01*
X1714364Y1138364D01*
X1712936Y1139319D01*
X1711250Y1139655D01*
D02*
G37*
G36*
X1677500Y1136655D02*
X1675814Y1136319D01*
X1674386Y1135365D01*
X1673431Y1133936D01*
X1673095Y1132250D01*
X1673431Y1130564D01*
X1674386Y1129136D01*
X1675814Y1128181D01*
X1677500Y1127845D01*
X1679186Y1128181D01*
X1680614Y1129136D01*
X1681569Y1130564D01*
X1681905Y1132250D01*
X1681569Y1133936D01*
X1680614Y1135365D01*
X1679186Y1136319D01*
X1677500Y1136655D01*
D02*
G37*
G36*
X1493750Y1134655D02*
X1492064Y1134319D01*
X1490636Y1133364D01*
X1489681Y1131936D01*
X1489345Y1130250D01*
X1489681Y1128564D01*
X1490636Y1127135D01*
X1492064Y1126181D01*
X1493750Y1125845D01*
X1495436Y1126181D01*
X1496864Y1127135D01*
X1497819Y1128564D01*
X1498155Y1130250D01*
X1497819Y1131936D01*
X1496864Y1133364D01*
X1495436Y1134319D01*
X1493750Y1134655D01*
D02*
G37*
G36*
X1430750Y1133155D02*
X1429064Y1132819D01*
X1427635Y1131864D01*
X1426681Y1130436D01*
X1426345Y1128750D01*
X1426681Y1127064D01*
X1427335Y1126085D01*
X1426629Y1125029D01*
X1426000Y1125155D01*
X1424314Y1124819D01*
X1422885Y1123865D01*
X1421931Y1122436D01*
X1421595Y1120750D01*
X1421931Y1119064D01*
X1422885Y1117635D01*
X1424314Y1116681D01*
X1426000Y1116345D01*
X1427686Y1116681D01*
X1429115Y1117635D01*
X1430069Y1119064D01*
X1430405Y1120750D01*
X1430069Y1122436D01*
X1429415Y1123415D01*
X1430121Y1124471D01*
X1430750Y1124345D01*
X1432436Y1124681D01*
X1433864Y1125636D01*
X1434819Y1127064D01*
X1435155Y1128750D01*
X1434819Y1130436D01*
X1433864Y1131864D01*
X1432436Y1132819D01*
X1430750Y1133155D01*
D02*
G37*
G36*
X1419760Y1137100D02*
X1413554D01*
Y1130894D01*
X1415593Y1131739D01*
X1417473Y1133181D01*
X1418916Y1135061D01*
X1419760Y1137100D01*
D02*
G37*
G36*
X1408554D02*
X1402348D01*
X1403192Y1135061D01*
X1404635Y1133181D01*
X1406515Y1131739D01*
X1408554Y1130894D01*
Y1137100D01*
D02*
G37*
G36*
X1477750Y1171655D02*
X1476064Y1171319D01*
X1474635Y1170365D01*
X1473681Y1168936D01*
X1473345Y1167250D01*
X1473681Y1165564D01*
X1474635Y1164136D01*
X1476064Y1163181D01*
X1477750Y1162845D01*
X1479436Y1163181D01*
X1480865Y1164136D01*
X1481819Y1165564D01*
X1482155Y1167250D01*
X1481819Y1168936D01*
X1480865Y1170365D01*
X1479436Y1171319D01*
X1477750Y1171655D01*
D02*
G37*
G36*
X1770000Y1178967D02*
X1767679Y1178661D01*
X1765517Y1177766D01*
X1763660Y1176341D01*
X1762235Y1174483D01*
X1761339Y1172321D01*
X1761033Y1170000D01*
X1761339Y1167679D01*
X1762235Y1165517D01*
X1763660Y1163660D01*
X1765517Y1162235D01*
X1767679Y1161339D01*
X1770000Y1161033D01*
X1772321Y1161339D01*
X1774483Y1162235D01*
X1776340Y1163660D01*
X1777765Y1165517D01*
X1778661Y1167679D01*
X1778967Y1170000D01*
X1778661Y1172321D01*
X1777765Y1174483D01*
X1776340Y1176341D01*
X1774483Y1177766D01*
X1772321Y1178661D01*
X1770000Y1178967D01*
D02*
G37*
G36*
X1421324Y1175270D02*
X1400784D01*
Y1154730D01*
X1421324D01*
Y1175270D01*
D02*
G37*
G36*
X1744750Y1176405D02*
X1743064Y1176069D01*
X1741635Y1175115D01*
X1740681Y1173686D01*
X1740345Y1172000D01*
X1740681Y1170314D01*
X1741635Y1168885D01*
X1743064Y1167931D01*
X1744750Y1167595D01*
X1746436Y1167931D01*
X1747865Y1168885D01*
X1748819Y1170314D01*
X1749155Y1172000D01*
X1748819Y1173686D01*
X1747865Y1175115D01*
X1746436Y1176069D01*
X1744750Y1176405D01*
D02*
G37*
G36*
X1632250Y1184655D02*
X1630564Y1184319D01*
X1629135Y1183364D01*
X1628181Y1181936D01*
X1627845Y1180250D01*
X1628181Y1178564D01*
X1629135Y1177135D01*
X1630564Y1176181D01*
X1631664Y1175962D01*
X1631912Y1174716D01*
X1631385Y1174364D01*
X1630431Y1172936D01*
X1630095Y1171250D01*
X1630431Y1169564D01*
X1631385Y1168136D01*
X1631883Y1167803D01*
Y1166533D01*
X1631715Y1166421D01*
X1630760Y1164992D01*
X1630553Y1163951D01*
X1629308Y1163703D01*
X1628365Y1165115D01*
X1626936Y1166069D01*
X1625250Y1166405D01*
X1623564Y1166069D01*
X1622135Y1165115D01*
X1621181Y1163686D01*
X1620845Y1162000D01*
X1621181Y1160314D01*
X1622135Y1158885D01*
X1623564Y1157931D01*
X1625250Y1157595D01*
X1626936Y1157931D01*
X1628365Y1158885D01*
X1629319Y1160314D01*
X1629527Y1161356D01*
X1630772Y1161604D01*
X1631715Y1160192D01*
X1633144Y1159237D01*
X1634830Y1158902D01*
X1636515Y1159237D01*
X1637944Y1160192D01*
X1638899Y1161621D01*
X1639234Y1163307D01*
X1638899Y1164992D01*
X1637944Y1166421D01*
X1637447Y1166753D01*
Y1168024D01*
X1637614Y1168136D01*
X1638569Y1169564D01*
X1638905Y1171250D01*
X1638569Y1172936D01*
X1637614Y1174364D01*
X1636186Y1175319D01*
X1635086Y1175538D01*
X1634838Y1176784D01*
X1635365Y1177135D01*
X1636319Y1178564D01*
X1636655Y1180250D01*
X1636319Y1181936D01*
X1635365Y1183364D01*
X1633936Y1184319D01*
X1632250Y1184655D01*
D02*
G37*
G36*
X1708083Y1171962D02*
X1706398Y1171626D01*
X1704969Y1170671D01*
X1704014Y1169242D01*
X1703679Y1167557D01*
X1704014Y1165871D01*
X1704969Y1164443D01*
X1706398Y1163488D01*
X1708083Y1163152D01*
X1709769Y1163488D01*
X1711198Y1164443D01*
X1712153Y1165871D01*
X1712488Y1167557D01*
X1712153Y1169242D01*
X1711198Y1170671D01*
X1709769Y1171626D01*
X1708083Y1171962D01*
D02*
G37*
G36*
X1479750Y1159655D02*
X1478064Y1159319D01*
X1476635Y1158364D01*
X1475681Y1156936D01*
X1475345Y1155250D01*
X1475681Y1153564D01*
X1476635Y1152135D01*
X1478064Y1151181D01*
X1479750Y1150845D01*
X1481436Y1151181D01*
X1482865Y1152135D01*
X1483819Y1153564D01*
X1484155Y1155250D01*
X1483819Y1156936D01*
X1482865Y1158364D01*
X1481436Y1159319D01*
X1479750Y1159655D01*
D02*
G37*
G36*
X1725500Y1162905D02*
X1723814Y1162569D01*
X1722386Y1161615D01*
X1721431Y1160186D01*
X1721095Y1158500D01*
X1721431Y1156814D01*
X1722386Y1155386D01*
Y1154335D01*
X1722250Y1154245D01*
X1721295Y1152816D01*
X1720960Y1151130D01*
X1721295Y1149444D01*
X1722250Y1148016D01*
X1723679Y1147061D01*
X1725364Y1146725D01*
X1727050Y1147061D01*
X1728479Y1148016D01*
X1729434Y1149444D01*
X1729769Y1151130D01*
X1729434Y1152816D01*
X1728479Y1154245D01*
Y1155295D01*
X1728615Y1155386D01*
X1729569Y1156814D01*
X1729905Y1158500D01*
X1729569Y1160186D01*
X1728615Y1161615D01*
X1727186Y1162569D01*
X1725500Y1162905D01*
D02*
G37*
G36*
X1451321Y1152211D02*
X1449635Y1151875D01*
X1448206Y1150920D01*
X1447251Y1149492D01*
X1446916Y1147806D01*
X1447251Y1146120D01*
X1448206Y1144691D01*
X1449635Y1143737D01*
X1451321Y1143401D01*
X1453006Y1143737D01*
X1454435Y1144691D01*
X1455390Y1146120D01*
X1455725Y1147806D01*
X1455390Y1149492D01*
X1454435Y1150920D01*
X1453006Y1151875D01*
X1451321Y1152211D01*
D02*
G37*
G36*
X1413554Y1148306D02*
Y1142100D01*
X1419760D01*
X1418916Y1144139D01*
X1417473Y1146019D01*
X1415593Y1147461D01*
X1413554Y1148306D01*
D02*
G37*
G36*
X1429750Y1159655D02*
X1428064Y1159319D01*
X1426635Y1158364D01*
X1425681Y1156936D01*
X1425345Y1155250D01*
X1425681Y1153564D01*
X1426635Y1152135D01*
X1428064Y1151181D01*
X1429750Y1150845D01*
X1431436Y1151181D01*
X1432865Y1152135D01*
X1433819Y1153564D01*
X1434155Y1155250D01*
X1433819Y1156936D01*
X1432865Y1158364D01*
X1431436Y1159319D01*
X1429750Y1159655D01*
D02*
G37*
G36*
X1686500Y1157905D02*
X1684814Y1157569D01*
X1683385Y1156615D01*
X1682431Y1155186D01*
X1682095Y1153500D01*
X1682431Y1151814D01*
X1683385Y1150386D01*
X1684814Y1149431D01*
X1686500Y1149095D01*
X1688186Y1149431D01*
X1689615Y1150386D01*
X1690569Y1151814D01*
X1690715Y1152547D01*
X1691985D01*
X1692181Y1151564D01*
X1693136Y1150135D01*
X1694564Y1149181D01*
X1696250Y1148845D01*
X1697936Y1149181D01*
X1699364Y1150135D01*
X1700319Y1151564D01*
X1700655Y1153250D01*
X1700319Y1154936D01*
X1699364Y1156365D01*
X1697936Y1157319D01*
X1696250Y1157655D01*
X1694564Y1157319D01*
X1693136Y1156365D01*
X1692181Y1154936D01*
X1692035Y1154203D01*
X1690765D01*
X1690569Y1155186D01*
X1689615Y1156615D01*
X1688186Y1157569D01*
X1686500Y1157905D01*
D02*
G37*
G36*
X1598750Y1155655D02*
X1597064Y1155319D01*
X1595636Y1154364D01*
X1594681Y1152936D01*
X1594345Y1151250D01*
X1594681Y1149564D01*
X1595636Y1148136D01*
X1597064Y1147181D01*
X1598750Y1146845D01*
X1600436Y1147181D01*
X1601864Y1148136D01*
X1602819Y1149564D01*
X1603155Y1151250D01*
X1602819Y1152936D01*
X1601864Y1154364D01*
X1600436Y1155319D01*
X1598750Y1155655D01*
D02*
G37*
G36*
X1671000Y1111655D02*
X1669314Y1111319D01*
X1667885Y1110365D01*
X1666931Y1108936D01*
X1666595Y1107250D01*
X1666931Y1105564D01*
X1667885Y1104136D01*
X1669314Y1103181D01*
X1671000Y1102845D01*
X1672686Y1103181D01*
X1674115Y1104136D01*
X1675069Y1105564D01*
X1675405Y1107250D01*
X1675069Y1108936D01*
X1674115Y1110365D01*
X1672686Y1111319D01*
X1671000Y1111655D01*
D02*
G37*
G36*
X1797212Y1107500D02*
X1792500D01*
Y1102788D01*
X1793843Y1103344D01*
X1795435Y1104566D01*
X1796656Y1106157D01*
X1797212Y1107500D01*
D02*
G37*
G36*
X1787500D02*
X1782788D01*
X1783344Y1106157D01*
X1784565Y1104566D01*
X1786157Y1103344D01*
X1787500Y1102788D01*
Y1107500D01*
D02*
G37*
G36*
X1695250Y1116155D02*
X1693564Y1115819D01*
X1692135Y1114865D01*
X1691181Y1113436D01*
X1690845Y1111750D01*
X1691181Y1110064D01*
X1692135Y1108635D01*
X1693564Y1107681D01*
X1695250Y1107345D01*
X1696936Y1107681D01*
X1698365Y1108635D01*
X1699319Y1110064D01*
X1699655Y1111750D01*
X1699319Y1113436D01*
X1698365Y1114865D01*
X1696936Y1115819D01*
X1695250Y1116155D01*
D02*
G37*
G36*
X1411054Y1124559D02*
X1408373Y1124206D01*
X1405875Y1123171D01*
X1403729Y1121525D01*
X1402083Y1119379D01*
X1401048Y1116881D01*
X1400695Y1114200D01*
X1401048Y1111519D01*
X1402083Y1109021D01*
X1403729Y1106875D01*
X1405875Y1105229D01*
X1408373Y1104194D01*
X1411054Y1103841D01*
X1413735Y1104194D01*
X1416233Y1105229D01*
X1418379Y1106875D01*
X1420025Y1109021D01*
X1421060Y1111519D01*
X1421413Y1114200D01*
X1421060Y1116881D01*
X1420025Y1119379D01*
X1418379Y1121525D01*
X1416233Y1123171D01*
X1413735Y1124206D01*
X1411054Y1124559D01*
D02*
G37*
G36*
X1352250Y1111905D02*
X1351410Y1111738D01*
Y1111738D01*
X1350564Y1111569D01*
X1349135Y1110614D01*
X1348181Y1109186D01*
X1347845Y1107500D01*
X1348181Y1105814D01*
X1349135Y1104386D01*
X1350564Y1103431D01*
X1352250Y1103095D01*
X1353936Y1103431D01*
X1355365Y1104386D01*
X1356319Y1105814D01*
X1356655Y1107500D01*
X1356319Y1109186D01*
X1355365Y1110614D01*
X1353936Y1111569D01*
X1352840Y1111787D01*
Y1111788D01*
X1352250Y1111905D01*
D02*
G37*
G36*
X1777212Y1107500D02*
X1772500D01*
Y1102788D01*
X1773843Y1103344D01*
X1775435Y1104566D01*
X1776656Y1106157D01*
X1777212Y1107500D01*
D02*
G37*
G36*
X1610000Y1133356D02*
X1606516Y1133013D01*
X1603167Y1131997D01*
X1600080Y1130347D01*
X1597374Y1128126D01*
X1595153Y1125420D01*
X1593503Y1122333D01*
X1592487Y1118984D01*
X1592144Y1115500D01*
X1592487Y1112017D01*
X1593503Y1108667D01*
X1595153Y1105580D01*
X1597374Y1102874D01*
X1600080Y1100654D01*
X1603167Y1099003D01*
X1606516Y1097987D01*
X1610000Y1097644D01*
X1613483Y1097987D01*
X1616833Y1099003D01*
X1619920Y1100654D01*
X1622626Y1102874D01*
X1624847Y1105580D01*
X1626497Y1108667D01*
X1627513Y1112017D01*
X1627856Y1115500D01*
X1627513Y1118984D01*
X1626497Y1122333D01*
X1624847Y1125420D01*
X1622626Y1128126D01*
X1619920Y1130347D01*
X1616833Y1131997D01*
X1613483Y1133013D01*
X1610000Y1133356D01*
D02*
G37*
G36*
X1467750Y1100854D02*
X1466084Y1100522D01*
X1464671Y1099578D01*
X1463728Y1098166D01*
X1463396Y1096500D01*
X1463728Y1094834D01*
X1464671Y1093421D01*
X1466084Y1092478D01*
X1467750Y1092146D01*
X1469416Y1092478D01*
X1470829Y1093421D01*
X1471772Y1094834D01*
X1472104Y1096500D01*
X1471772Y1098166D01*
X1470829Y1099578D01*
X1469416Y1100522D01*
X1467750Y1100854D01*
D02*
G37*
G36*
X1564500Y1099155D02*
X1562814Y1098819D01*
X1561385Y1097865D01*
X1560431Y1096436D01*
X1560095Y1094750D01*
X1560431Y1093064D01*
X1561385Y1091636D01*
X1562814Y1090681D01*
X1564500Y1090345D01*
X1566186Y1090681D01*
X1567614Y1091636D01*
X1568569Y1093064D01*
X1568905Y1094750D01*
X1568569Y1096436D01*
X1567614Y1097865D01*
X1566186Y1098819D01*
X1564500Y1099155D01*
D02*
G37*
G36*
X1767500Y1107500D02*
X1762788D01*
X1763344Y1106157D01*
X1764565Y1104566D01*
X1766157Y1103344D01*
X1767500Y1102788D01*
Y1107500D01*
D02*
G37*
G36*
X1652250Y1108405D02*
X1650564Y1108069D01*
X1649135Y1107114D01*
X1648181Y1105686D01*
X1647845Y1104000D01*
X1648181Y1102314D01*
X1649135Y1100885D01*
X1650564Y1099931D01*
X1652250Y1099595D01*
X1653936Y1099931D01*
X1655365Y1100885D01*
X1656319Y1102314D01*
X1656655Y1104000D01*
X1656319Y1105686D01*
X1655365Y1107114D01*
X1653936Y1108069D01*
X1652250Y1108405D01*
D02*
G37*
G36*
X1431500Y1107405D02*
X1429814Y1107069D01*
X1428385Y1106115D01*
X1427431Y1104686D01*
X1427095Y1103000D01*
X1427431Y1101314D01*
X1428385Y1099885D01*
X1429814Y1098931D01*
X1431500Y1098595D01*
X1433186Y1098931D01*
X1434615Y1099885D01*
X1435569Y1101314D01*
X1435905Y1103000D01*
X1435569Y1104686D01*
X1434615Y1106115D01*
X1433186Y1107069D01*
X1431500Y1107405D01*
D02*
G37*
G36*
X1464500Y1132405D02*
X1462814Y1132069D01*
X1461385Y1131115D01*
X1460431Y1129686D01*
X1460095Y1128000D01*
X1460431Y1126314D01*
X1461385Y1124885D01*
X1462814Y1123931D01*
X1464500Y1123595D01*
X1466186Y1123931D01*
X1467614Y1124885D01*
X1468569Y1126314D01*
X1468905Y1128000D01*
X1468569Y1129686D01*
X1467614Y1131115D01*
X1466186Y1132069D01*
X1464500Y1132405D01*
D02*
G37*
G36*
X1770000Y1138967D02*
X1767679Y1138661D01*
X1765517Y1137766D01*
X1763660Y1136341D01*
X1762235Y1134484D01*
X1761339Y1132321D01*
X1761033Y1130000D01*
X1761339Y1127680D01*
X1762235Y1125517D01*
X1763660Y1123660D01*
X1765517Y1122235D01*
X1767679Y1121339D01*
X1770000Y1121033D01*
X1772321Y1121339D01*
X1774483Y1122235D01*
X1776340Y1123660D01*
X1777765Y1125517D01*
X1778661Y1127680D01*
X1778967Y1130000D01*
X1778661Y1132321D01*
X1777765Y1134484D01*
X1776340Y1136341D01*
X1774483Y1137766D01*
X1772321Y1138661D01*
X1770000Y1138967D01*
D02*
G37*
G36*
X1552500Y1136662D02*
X1550472Y1136395D01*
X1548582Y1135612D01*
X1546958Y1134367D01*
X1545713Y1132744D01*
X1544930Y1130853D01*
X1544663Y1128825D01*
X1544930Y1126797D01*
X1545713Y1124906D01*
X1546958Y1123283D01*
X1548582Y1122038D01*
X1550472Y1121255D01*
X1552500Y1120988D01*
X1554528Y1121255D01*
X1556419Y1122038D01*
X1558042Y1123283D01*
X1559287Y1124906D01*
X1559483Y1125379D01*
X1560698Y1125010D01*
X1560646Y1124750D01*
X1560978Y1123084D01*
X1561922Y1121672D01*
X1563334Y1120728D01*
X1565000Y1120396D01*
X1566666Y1120728D01*
X1568078Y1121672D01*
X1569022Y1123084D01*
X1569354Y1124750D01*
X1569022Y1126416D01*
X1568078Y1127829D01*
X1566666Y1128772D01*
X1565000Y1129104D01*
X1563334Y1128772D01*
X1561922Y1127829D01*
X1561339Y1126956D01*
X1560150Y1127403D01*
X1560337Y1128825D01*
X1560070Y1130853D01*
X1559287Y1132744D01*
X1558042Y1134367D01*
X1556419Y1135612D01*
X1554528Y1136395D01*
X1552500Y1136662D01*
D02*
G37*
G36*
X1308150Y1138971D02*
X1301650D01*
X1299818Y1138729D01*
X1298110Y1138022D01*
X1296643Y1136897D01*
X1295518Y1135430D01*
X1294811Y1133723D01*
X1294570Y1131890D01*
X1294811Y1130057D01*
X1295518Y1128350D01*
X1296643Y1126883D01*
X1298110Y1125758D01*
X1299818Y1125051D01*
X1301650Y1124809D01*
X1308150D01*
X1309983Y1125051D01*
X1311690Y1125758D01*
X1313157Y1126883D01*
X1314282Y1128350D01*
X1314989Y1130057D01*
X1315231Y1131890D01*
X1314989Y1133723D01*
X1314282Y1135430D01*
X1313157Y1136897D01*
X1311690Y1138022D01*
X1309983Y1138729D01*
X1308150Y1138971D01*
D02*
G37*
G36*
X1332400Y1151013D02*
X1330344Y1150604D01*
X1328601Y1149439D01*
X1327436Y1147696D01*
X1327027Y1145640D01*
X1327436Y1143584D01*
X1328601Y1141841D01*
X1330344Y1140676D01*
X1332400Y1140267D01*
X1333319Y1140450D01*
X1333392Y1140354D01*
X1334002Y1139374D01*
X1332708Y1137687D01*
X1331849Y1135614D01*
X1331557Y1133390D01*
X1331849Y1131166D01*
X1332708Y1129093D01*
X1334073Y1127314D01*
X1335853Y1125948D01*
X1337926Y1125089D01*
X1340150Y1124797D01*
X1345650D01*
X1347874Y1125089D01*
X1349947Y1125948D01*
X1351727Y1127314D01*
X1353092Y1129093D01*
X1353951Y1131166D01*
X1354243Y1133390D01*
X1353951Y1135614D01*
X1353092Y1137687D01*
X1351727Y1139467D01*
X1349947Y1140832D01*
X1347874Y1141691D01*
X1345650Y1141983D01*
X1340150D01*
X1337926Y1141691D01*
X1337421Y1141482D01*
X1336616Y1142464D01*
X1337364Y1143584D01*
X1337773Y1145640D01*
X1337364Y1147696D01*
X1336199Y1149439D01*
X1334456Y1150604D01*
X1332400Y1151013D01*
D02*
G37*
G36*
X1736335Y1140960D02*
X1734649Y1140625D01*
X1733220Y1139670D01*
X1732265Y1138241D01*
X1731930Y1136555D01*
X1732265Y1134870D01*
X1733220Y1133441D01*
X1733769Y1133074D01*
Y1131804D01*
X1733220Y1131438D01*
X1732265Y1130009D01*
X1731930Y1128323D01*
X1732265Y1126638D01*
X1733220Y1125209D01*
X1734649Y1124254D01*
X1736335Y1123919D01*
X1738020Y1124254D01*
X1739449Y1125209D01*
X1740404Y1126638D01*
X1740739Y1128323D01*
X1740404Y1130009D01*
X1739449Y1131438D01*
X1738901Y1131804D01*
Y1133074D01*
X1739449Y1133441D01*
X1740404Y1134870D01*
X1740739Y1136555D01*
X1740404Y1138241D01*
X1739449Y1139670D01*
X1738020Y1140625D01*
X1736335Y1140960D01*
D02*
G37*
G36*
X1792500Y1117213D02*
Y1112500D01*
X1797212D01*
X1796656Y1113843D01*
X1795435Y1115435D01*
X1793843Y1116656D01*
X1792500Y1117213D01*
D02*
G37*
G36*
X1508500Y1117155D02*
X1506814Y1116819D01*
X1505385Y1115864D01*
X1504431Y1114436D01*
X1504095Y1112750D01*
X1504431Y1111064D01*
X1505385Y1109635D01*
X1506814Y1108681D01*
X1508500Y1108345D01*
X1510186Y1108681D01*
X1511615Y1109635D01*
X1512569Y1111064D01*
X1512905Y1112750D01*
X1512569Y1114436D01*
X1511615Y1115864D01*
X1510186Y1116819D01*
X1508500Y1117155D01*
D02*
G37*
G36*
X1541750Y1116854D02*
X1540084Y1116522D01*
X1538672Y1115579D01*
X1537728Y1114166D01*
X1537396Y1112500D01*
X1537728Y1110834D01*
X1538672Y1109421D01*
X1540084Y1108478D01*
X1541750Y1108146D01*
X1543416Y1108478D01*
X1544828Y1109421D01*
X1545772Y1110834D01*
X1546104Y1112500D01*
X1545772Y1114166D01*
X1544828Y1115579D01*
X1543416Y1116522D01*
X1541750Y1116854D01*
D02*
G37*
G36*
X1476750Y1125655D02*
X1475064Y1125319D01*
X1473636Y1124364D01*
X1472681Y1122936D01*
X1472345Y1121250D01*
X1472681Y1119564D01*
X1473636Y1118136D01*
X1475064Y1117181D01*
X1474771Y1115706D01*
X1473885Y1115115D01*
X1472931Y1113686D01*
X1472595Y1112000D01*
X1472931Y1110314D01*
X1473885Y1108885D01*
X1475314Y1107931D01*
X1477000Y1107595D01*
X1478686Y1107931D01*
X1480114Y1108885D01*
X1481069Y1110314D01*
X1481405Y1112000D01*
X1481069Y1113686D01*
X1480114Y1115115D01*
X1478686Y1116069D01*
X1478979Y1117544D01*
X1479865Y1118136D01*
X1480819Y1119564D01*
X1481155Y1121250D01*
X1480819Y1122936D01*
X1479865Y1124364D01*
X1478436Y1125319D01*
X1476750Y1125655D01*
D02*
G37*
G36*
X1787500Y1117213D02*
X1786157Y1116656D01*
X1784565Y1115435D01*
X1783344Y1113843D01*
X1782788Y1112500D01*
X1787500D01*
Y1117213D01*
D02*
G37*
G36*
X1772500D02*
Y1112500D01*
X1777212D01*
X1776656Y1113843D01*
X1775435Y1115435D01*
X1773843Y1116656D01*
X1772500Y1117213D01*
D02*
G37*
G36*
X1767500D02*
X1766157Y1116656D01*
X1764565Y1115435D01*
X1763344Y1113843D01*
X1762788Y1112500D01*
X1767500D01*
Y1117213D01*
D02*
G37*
G36*
X1408554Y1241308D02*
X1406515Y1240464D01*
X1404635Y1239021D01*
X1403192Y1237141D01*
X1402348Y1235102D01*
X1408554D01*
Y1241308D01*
D02*
G37*
G36*
X1337500Y1243405D02*
X1335814Y1243069D01*
X1334386Y1242114D01*
X1333431Y1240686D01*
X1333095Y1239000D01*
X1333431Y1237314D01*
X1334386Y1235885D01*
X1335814Y1234931D01*
X1337500Y1234595D01*
X1339186Y1234931D01*
X1340614Y1235885D01*
X1341569Y1237314D01*
X1341905Y1239000D01*
X1341569Y1240686D01*
X1340614Y1242114D01*
X1339186Y1243069D01*
X1337500Y1243405D01*
D02*
G37*
G36*
X1752000Y1236405D02*
X1750314Y1236069D01*
X1748885Y1235115D01*
X1747931Y1233686D01*
X1747595Y1232000D01*
X1747931Y1230314D01*
X1748885Y1228885D01*
X1750314Y1227931D01*
X1752000Y1227595D01*
X1753686Y1227931D01*
X1755114Y1228885D01*
X1756069Y1230314D01*
X1756405Y1232000D01*
X1756069Y1233686D01*
X1755114Y1235115D01*
X1753686Y1236069D01*
X1752000Y1236405D01*
D02*
G37*
G36*
X1580500Y1247405D02*
X1578814Y1247069D01*
X1577386Y1246115D01*
X1576431Y1244686D01*
X1576095Y1243000D01*
X1576431Y1241314D01*
X1577386Y1239885D01*
X1578814Y1238931D01*
X1580500Y1238595D01*
X1582186Y1238931D01*
X1583615Y1239885D01*
X1584569Y1241314D01*
X1584905Y1243000D01*
X1584569Y1244686D01*
X1583615Y1246115D01*
X1582186Y1247069D01*
X1580500Y1247405D01*
D02*
G37*
G36*
X1552500Y1254007D02*
X1550472Y1253740D01*
X1548582Y1252957D01*
X1546958Y1251712D01*
X1545713Y1250089D01*
X1544930Y1248198D01*
X1544663Y1246170D01*
X1544930Y1244142D01*
X1545713Y1242252D01*
X1546958Y1240628D01*
X1548582Y1239383D01*
X1550472Y1238600D01*
X1552500Y1238333D01*
X1554528Y1238600D01*
X1556419Y1239383D01*
X1558042Y1240628D01*
X1559287Y1242252D01*
X1560070Y1244142D01*
X1560337Y1246170D01*
X1560070Y1248198D01*
X1559287Y1250089D01*
X1558042Y1251712D01*
X1556419Y1252957D01*
X1554528Y1253740D01*
X1552500Y1254007D01*
D02*
G37*
G36*
X1413554Y1241308D02*
Y1235102D01*
X1419760D01*
X1418916Y1237141D01*
X1417473Y1239021D01*
X1415593Y1240464D01*
X1413554Y1241308D01*
D02*
G37*
G36*
X1484500Y1235405D02*
X1482814Y1235069D01*
X1481386Y1234115D01*
X1480431Y1232686D01*
X1480096Y1231000D01*
X1480431Y1229314D01*
X1481386Y1227886D01*
X1482814Y1226931D01*
X1484500Y1226595D01*
X1486186Y1226931D01*
X1487615Y1227886D01*
X1488569Y1229314D01*
X1488905Y1231000D01*
X1488569Y1232686D01*
X1487615Y1234115D01*
X1486186Y1235069D01*
X1484500Y1235405D01*
D02*
G37*
G36*
X1419760Y1230102D02*
X1413554D01*
Y1223896D01*
X1415593Y1224741D01*
X1417473Y1226183D01*
X1418916Y1228063D01*
X1419760Y1230102D01*
D02*
G37*
G36*
X1408554D02*
X1402348D01*
X1403192Y1228063D01*
X1404635Y1226183D01*
X1406515Y1224741D01*
X1408554Y1223896D01*
Y1230102D01*
D02*
G37*
G36*
X1770000Y1238967D02*
X1767679Y1238661D01*
X1765517Y1237765D01*
X1763660Y1236340D01*
X1762235Y1234483D01*
X1761339Y1232321D01*
X1761033Y1230000D01*
X1761339Y1227679D01*
X1762235Y1225517D01*
X1763660Y1223660D01*
X1765517Y1222235D01*
X1767679Y1221339D01*
X1770000Y1221033D01*
X1772321Y1221339D01*
X1774483Y1222235D01*
X1776340Y1223660D01*
X1777765Y1225517D01*
X1778661Y1227679D01*
X1778967Y1230000D01*
X1778661Y1232321D01*
X1777765Y1234483D01*
X1776340Y1236340D01*
X1774483Y1237765D01*
X1772321Y1238661D01*
X1770000Y1238967D01*
D02*
G37*
G36*
X1466000Y1243655D02*
X1464314Y1243319D01*
X1462885Y1242365D01*
X1461931Y1240936D01*
X1461595Y1239250D01*
X1461931Y1237564D01*
X1462885Y1236135D01*
X1463197Y1235927D01*
Y1234657D01*
X1462386Y1234115D01*
X1461431Y1232686D01*
X1461095Y1231000D01*
X1461431Y1229314D01*
X1462386Y1227886D01*
X1463814Y1226931D01*
X1465500Y1226595D01*
X1467186Y1226931D01*
X1468615Y1227886D01*
X1469569Y1229314D01*
X1469905Y1231000D01*
X1469569Y1232686D01*
X1468615Y1234115D01*
X1468303Y1234323D01*
Y1235593D01*
X1469115Y1236135D01*
X1470069Y1237564D01*
X1470405Y1239250D01*
X1470069Y1240936D01*
X1469115Y1242365D01*
X1467686Y1243319D01*
X1466000Y1243655D01*
D02*
G37*
G36*
X1725500Y1233155D02*
X1723814Y1232819D01*
X1722386Y1231864D01*
X1721431Y1230436D01*
X1721095Y1228750D01*
X1721431Y1227064D01*
X1722386Y1225636D01*
X1723814Y1224681D01*
X1725500Y1224345D01*
X1727186Y1224681D01*
X1728615Y1225636D01*
X1729569Y1227064D01*
X1729905Y1228750D01*
X1729569Y1230436D01*
X1728615Y1231864D01*
X1727186Y1232819D01*
X1725500Y1233155D01*
D02*
G37*
G36*
X1690250D02*
X1688564Y1232819D01*
X1687135Y1231864D01*
X1686181Y1230436D01*
X1685845Y1228750D01*
X1686181Y1227064D01*
X1687135Y1225636D01*
X1688564Y1224681D01*
X1690250Y1224345D01*
X1691936Y1224681D01*
X1693365Y1225636D01*
X1694319Y1227064D01*
X1694655Y1228750D01*
X1694319Y1230436D01*
X1693365Y1231864D01*
X1691936Y1232819D01*
X1690250Y1233155D01*
D02*
G37*
G36*
X1664038Y1260655D02*
X1662352Y1260319D01*
X1660923Y1259364D01*
X1660861Y1259271D01*
X1659591D01*
X1659529Y1259364D01*
X1658100Y1260319D01*
X1656414Y1260655D01*
X1654728Y1260319D01*
X1653300Y1259364D01*
X1652345Y1257936D01*
X1652009Y1256250D01*
X1652345Y1254564D01*
X1653300Y1253136D01*
X1654728Y1252181D01*
X1656414Y1251845D01*
X1658100Y1252181D01*
X1659529Y1253136D01*
X1659591Y1253229D01*
X1660861D01*
X1660923Y1253136D01*
X1662352Y1252181D01*
X1664038Y1251845D01*
X1665724Y1252181D01*
X1667153Y1253136D01*
X1668107Y1254564D01*
X1668443Y1256250D01*
X1668107Y1257936D01*
X1667153Y1259364D01*
X1665724Y1260319D01*
X1664038Y1260655D01*
D02*
G37*
G36*
X1712000Y1266155D02*
X1710314Y1265819D01*
X1708885Y1264865D01*
X1707931Y1263436D01*
X1707595Y1261750D01*
X1707931Y1260064D01*
X1708885Y1258635D01*
X1710314Y1257681D01*
X1712000Y1257345D01*
X1713686Y1257681D01*
X1715114Y1258635D01*
X1716069Y1260064D01*
X1716405Y1261750D01*
X1716069Y1263436D01*
X1715114Y1264865D01*
X1713686Y1265819D01*
X1712000Y1266155D01*
D02*
G37*
G36*
X1698250Y1265405D02*
X1696564Y1265069D01*
X1695135Y1264115D01*
X1694181Y1262686D01*
X1693845Y1261000D01*
X1694181Y1259314D01*
X1695135Y1257886D01*
X1696564Y1256931D01*
X1698250Y1256595D01*
X1699936Y1256931D01*
X1701364Y1257886D01*
X1702319Y1259314D01*
X1702655Y1261000D01*
X1702319Y1262686D01*
X1701364Y1264115D01*
X1699936Y1265069D01*
X1698250Y1265405D01*
D02*
G37*
G36*
X1310000Y1279405D02*
X1308314Y1279069D01*
X1306886Y1278114D01*
X1305931Y1276686D01*
X1305595Y1275000D01*
X1305931Y1273314D01*
X1306886Y1271886D01*
X1308314Y1270931D01*
X1310000Y1270595D01*
X1311686Y1270931D01*
X1313114Y1271886D01*
X1314069Y1273314D01*
X1314405Y1275000D01*
X1314069Y1276686D01*
X1313114Y1278114D01*
X1311686Y1279069D01*
X1310000Y1279405D01*
D02*
G37*
G36*
X1430500Y1272905D02*
X1428814Y1272569D01*
X1427386Y1271615D01*
X1426431Y1270186D01*
X1426095Y1268500D01*
X1426431Y1266814D01*
X1427386Y1265386D01*
X1428814Y1264431D01*
X1430500Y1264095D01*
X1432186Y1264431D01*
X1433615Y1265386D01*
X1434569Y1266814D01*
X1434905Y1268500D01*
X1434569Y1270186D01*
X1433615Y1271615D01*
X1432186Y1272569D01*
X1430500Y1272905D01*
D02*
G37*
G36*
X1503500Y1268155D02*
X1501814Y1267819D01*
X1500385Y1266864D01*
X1499431Y1265436D01*
X1499095Y1263750D01*
X1499431Y1262064D01*
X1500385Y1260636D01*
X1501814Y1259681D01*
X1503500Y1259345D01*
X1505186Y1259681D01*
X1506615Y1260636D01*
X1507569Y1262064D01*
X1507905Y1263750D01*
X1507569Y1265436D01*
X1506615Y1266864D01*
X1505186Y1267819D01*
X1503500Y1268155D01*
D02*
G37*
G36*
X1294813Y1258216D02*
X1293128Y1257880D01*
X1291699Y1256926D01*
X1290744Y1255497D01*
X1290409Y1253811D01*
X1290744Y1252126D01*
X1291699Y1250697D01*
X1293128Y1249742D01*
X1294813Y1249407D01*
X1296499Y1249742D01*
X1297928Y1250697D01*
X1298882Y1252126D01*
X1299218Y1253811D01*
X1298882Y1255497D01*
X1297928Y1256926D01*
X1296499Y1257880D01*
X1294813Y1258216D01*
D02*
G37*
G36*
X1376250Y1249405D02*
X1374564Y1249069D01*
X1373136Y1248114D01*
X1372181Y1246686D01*
X1371845Y1245000D01*
X1372181Y1243314D01*
X1373136Y1241886D01*
X1374564Y1240931D01*
X1376250Y1240595D01*
X1377936Y1240931D01*
X1379364Y1241886D01*
X1380319Y1243314D01*
X1380655Y1245000D01*
X1380319Y1246686D01*
X1379364Y1248114D01*
X1377936Y1249069D01*
X1376250Y1249405D01*
D02*
G37*
G36*
X1511250Y1247905D02*
X1509564Y1247569D01*
X1508136Y1246615D01*
X1507181Y1245186D01*
X1506845Y1243500D01*
X1507181Y1241814D01*
X1508136Y1240386D01*
X1509564Y1239431D01*
X1511250Y1239095D01*
X1512936Y1239431D01*
X1514364Y1240386D01*
X1515319Y1241814D01*
X1515655Y1243500D01*
X1515319Y1245186D01*
X1514364Y1246615D01*
X1512936Y1247569D01*
X1511250Y1247905D01*
D02*
G37*
G36*
X1431250D02*
X1429564Y1247569D01*
X1428136Y1246615D01*
X1427181Y1245186D01*
X1426845Y1243500D01*
X1427181Y1241814D01*
X1428136Y1240386D01*
X1429564Y1239431D01*
X1431250Y1239095D01*
X1432936Y1239431D01*
X1434364Y1240386D01*
X1435319Y1241814D01*
X1435655Y1243500D01*
X1435319Y1245186D01*
X1434364Y1246615D01*
X1432936Y1247569D01*
X1431250Y1247905D01*
D02*
G37*
G36*
X1421324Y1268272D02*
X1400784D01*
Y1247732D01*
X1421324D01*
Y1268272D01*
D02*
G37*
G36*
X1610000Y1277856D02*
X1606516Y1277513D01*
X1603167Y1276497D01*
X1600080Y1274847D01*
X1597374Y1272626D01*
X1595153Y1269920D01*
X1593503Y1266833D01*
X1592487Y1263484D01*
X1592144Y1260000D01*
X1592487Y1256516D01*
X1593503Y1253167D01*
X1595153Y1250080D01*
X1597374Y1247374D01*
X1600080Y1245153D01*
X1603167Y1243503D01*
X1606516Y1242487D01*
X1610000Y1242144D01*
X1613483Y1242487D01*
X1616833Y1243503D01*
X1619920Y1245153D01*
X1622626Y1247374D01*
X1624847Y1250080D01*
X1626497Y1253167D01*
X1627513Y1256516D01*
X1627856Y1260000D01*
X1627513Y1263484D01*
X1626497Y1266833D01*
X1624847Y1269920D01*
X1622626Y1272626D01*
X1619920Y1274847D01*
X1616833Y1276497D01*
X1613483Y1277513D01*
X1610000Y1277856D01*
D02*
G37*
G36*
X1778890Y1258890D02*
X1761110D01*
Y1241110D01*
X1778890D01*
Y1258890D01*
D02*
G37*
G36*
X1411054Y1217561D02*
X1408373Y1217208D01*
X1405875Y1216173D01*
X1403729Y1214527D01*
X1402083Y1212382D01*
X1401048Y1209883D01*
X1400695Y1207202D01*
X1401048Y1204521D01*
X1402083Y1202023D01*
X1403729Y1199877D01*
X1405875Y1198231D01*
X1408373Y1197197D01*
X1411054Y1196844D01*
X1413735Y1197197D01*
X1416233Y1198231D01*
X1418379Y1199877D01*
X1420025Y1202023D01*
X1421060Y1204521D01*
X1421413Y1207202D01*
X1421060Y1209883D01*
X1420025Y1212382D01*
X1418379Y1214527D01*
X1416233Y1216173D01*
X1413735Y1217208D01*
X1411054Y1217561D01*
D02*
G37*
G36*
X1437250Y1201405D02*
X1435564Y1201069D01*
X1434135Y1200115D01*
X1433181Y1198686D01*
X1432845Y1197000D01*
X1433181Y1195314D01*
X1434135Y1193885D01*
X1435564Y1192931D01*
X1437250Y1192595D01*
X1438936Y1192931D01*
X1440365Y1193885D01*
X1441319Y1195314D01*
X1441655Y1197000D01*
X1441319Y1198686D01*
X1440365Y1200115D01*
X1438936Y1201069D01*
X1437250Y1201405D01*
D02*
G37*
G36*
X1501250Y1201155D02*
X1499564Y1200819D01*
X1498136Y1199865D01*
X1497181Y1198436D01*
X1496845Y1196750D01*
X1497181Y1195064D01*
X1498136Y1193635D01*
X1499564Y1192681D01*
X1501250Y1192345D01*
X1502936Y1192681D01*
X1504364Y1193635D01*
X1505319Y1195064D01*
X1505655Y1196750D01*
X1505319Y1198436D01*
X1504364Y1199865D01*
X1502936Y1200819D01*
X1501250Y1201155D01*
D02*
G37*
G36*
X1345650Y1216484D02*
X1340150D01*
X1337926Y1216191D01*
X1335853Y1215332D01*
X1334073Y1213967D01*
X1332708Y1212187D01*
X1331849Y1210114D01*
X1331557Y1207890D01*
X1331849Y1205666D01*
X1332708Y1203593D01*
X1334002Y1201907D01*
X1333392Y1200926D01*
X1333319Y1200830D01*
X1332400Y1201013D01*
X1330344Y1200604D01*
X1328601Y1199439D01*
X1327436Y1197696D01*
X1327027Y1195640D01*
X1327436Y1193584D01*
X1328601Y1191841D01*
X1330344Y1190676D01*
X1332400Y1190267D01*
X1334456Y1190676D01*
X1336199Y1191841D01*
X1337364Y1193584D01*
X1337773Y1195640D01*
X1337364Y1197696D01*
X1336616Y1198817D01*
X1337421Y1199798D01*
X1337926Y1199589D01*
X1340150Y1199296D01*
X1345650D01*
X1347874Y1199589D01*
X1349947Y1200448D01*
X1351727Y1201814D01*
X1353092Y1203593D01*
X1353951Y1205666D01*
X1354243Y1207890D01*
X1353951Y1210114D01*
X1353092Y1212187D01*
X1351727Y1213967D01*
X1349947Y1215332D01*
X1347874Y1216191D01*
X1345650Y1216484D01*
D02*
G37*
G36*
X1732750Y1216155D02*
X1731064Y1215819D01*
X1729635Y1214865D01*
X1728681Y1213436D01*
X1728345Y1211750D01*
X1728681Y1210064D01*
X1729635Y1208635D01*
X1731064Y1207681D01*
X1731064Y1207681D01*
X1731064D01*
X1731635Y1206864D01*
X1730681Y1205436D01*
X1730345Y1203750D01*
X1730681Y1202064D01*
X1731635Y1200636D01*
X1733064Y1199681D01*
X1734750Y1199345D01*
X1736436Y1199681D01*
X1737865Y1200636D01*
X1738819Y1202064D01*
X1739155Y1203750D01*
X1738819Y1205436D01*
X1737865Y1206864D01*
X1736436Y1207819D01*
X1736436Y1207819D01*
X1736436D01*
X1735865Y1208635D01*
X1735865Y1208635D01*
X1736819Y1210064D01*
X1737155Y1211750D01*
X1736819Y1213436D01*
X1735865Y1214865D01*
X1734436Y1215819D01*
X1732750Y1216155D01*
D02*
G37*
G36*
X1426820Y1206213D02*
X1425134Y1205878D01*
X1423705Y1204923D01*
X1422750Y1203494D01*
X1422415Y1201809D01*
X1422750Y1200123D01*
X1423705Y1198694D01*
X1425134Y1197739D01*
X1426820Y1197404D01*
X1428505Y1197739D01*
X1429934Y1198694D01*
X1430889Y1200123D01*
X1431224Y1201809D01*
X1430889Y1203494D01*
X1429934Y1204923D01*
X1428505Y1205878D01*
X1426820Y1206213D01*
D02*
G37*
G36*
X1462571Y1200963D02*
X1460886Y1200628D01*
X1459457Y1199673D01*
X1458502Y1198244D01*
X1458167Y1196558D01*
X1458502Y1194873D01*
X1459457Y1193444D01*
X1460886Y1192489D01*
X1462571Y1192154D01*
X1464257Y1192489D01*
X1465686Y1193444D01*
X1466641Y1194873D01*
X1466976Y1196558D01*
X1466641Y1198244D01*
X1465686Y1199673D01*
X1464257Y1200628D01*
X1462571Y1200963D01*
D02*
G37*
G36*
X1461000Y1186655D02*
X1459314Y1186319D01*
X1457885Y1185365D01*
X1456931Y1183936D01*
X1456595Y1182250D01*
X1456931Y1180564D01*
X1457885Y1179136D01*
X1459314Y1178181D01*
X1461000Y1177845D01*
X1462686Y1178181D01*
X1464115Y1179136D01*
X1465069Y1180564D01*
X1465405Y1182250D01*
X1465069Y1183936D01*
X1464115Y1185365D01*
X1462686Y1186319D01*
X1461000Y1186655D01*
D02*
G37*
G36*
X1488750Y1180905D02*
X1487064Y1180569D01*
X1485636Y1179614D01*
X1484681Y1178186D01*
X1484345Y1176500D01*
X1484681Y1174814D01*
X1485636Y1173385D01*
X1487064Y1172431D01*
X1488750Y1172095D01*
X1490436Y1172431D01*
X1491864Y1173385D01*
X1492819Y1174814D01*
X1493155Y1176500D01*
X1492819Y1178186D01*
X1491864Y1179614D01*
X1490436Y1180569D01*
X1488750Y1180905D01*
D02*
G37*
G36*
X1446000Y1179405D02*
X1444314Y1179069D01*
X1442885Y1178114D01*
X1441931Y1176686D01*
X1441595Y1175000D01*
X1441931Y1173314D01*
X1442885Y1171886D01*
X1444314Y1170931D01*
X1446000Y1170595D01*
X1447686Y1170931D01*
X1449115Y1171886D01*
X1450069Y1173314D01*
X1450405Y1175000D01*
X1450069Y1176686D01*
X1449115Y1178114D01*
X1447686Y1179069D01*
X1446000Y1179405D01*
D02*
G37*
G36*
X1711000Y1200155D02*
X1709314Y1199819D01*
X1707885Y1198865D01*
X1706931Y1197436D01*
X1706595Y1195750D01*
X1706931Y1194064D01*
X1707885Y1192635D01*
X1709314Y1191681D01*
X1711000Y1191345D01*
X1712686Y1191681D01*
X1714115Y1192635D01*
X1715069Y1194064D01*
X1715405Y1195750D01*
X1715069Y1197436D01*
X1714115Y1198865D01*
X1712686Y1199819D01*
X1711000Y1200155D01*
D02*
G37*
G36*
X1393000Y1194905D02*
X1391314Y1194569D01*
X1389886Y1193615D01*
X1388931Y1192186D01*
X1388595Y1190500D01*
X1388931Y1188814D01*
X1389886Y1187385D01*
X1391314Y1186431D01*
X1393000Y1186095D01*
X1394686Y1186431D01*
X1396115Y1187385D01*
X1397069Y1188814D01*
X1397405Y1190500D01*
X1397069Y1192186D01*
X1396115Y1193615D01*
X1394686Y1194569D01*
X1393000Y1194905D01*
D02*
G37*
G36*
X1770000Y1198967D02*
X1767679Y1198661D01*
X1765517Y1197766D01*
X1763660Y1196340D01*
X1762235Y1194483D01*
X1761339Y1192321D01*
X1761033Y1190000D01*
X1761339Y1187679D01*
X1762235Y1185517D01*
X1763660Y1183660D01*
X1765517Y1182235D01*
X1767679Y1181339D01*
X1770000Y1181033D01*
X1772321Y1181339D01*
X1774483Y1182235D01*
X1776340Y1183660D01*
X1777765Y1185517D01*
X1778661Y1187679D01*
X1778967Y1190000D01*
X1778661Y1192321D01*
X1777765Y1194483D01*
X1776340Y1196340D01*
X1774483Y1197766D01*
X1772321Y1198661D01*
X1770000Y1198967D01*
D02*
G37*
G36*
X1521500Y1227155D02*
X1519814Y1226819D01*
X1518385Y1225864D01*
X1517431Y1224436D01*
X1517095Y1222750D01*
X1517431Y1221064D01*
X1518385Y1219635D01*
X1519814Y1218681D01*
X1521500Y1218345D01*
X1523186Y1218681D01*
X1524615Y1219635D01*
X1525569Y1221064D01*
X1525905Y1222750D01*
X1525569Y1224436D01*
X1524615Y1225864D01*
X1523186Y1226819D01*
X1521500Y1227155D01*
D02*
G37*
G36*
X1705750Y1226655D02*
X1704064Y1226319D01*
X1702635Y1225365D01*
X1701681Y1223936D01*
X1701345Y1222250D01*
X1701681Y1220564D01*
X1702635Y1219136D01*
X1704064Y1218181D01*
X1705750Y1217845D01*
X1707436Y1218181D01*
X1708864Y1219136D01*
X1709819Y1220564D01*
X1710155Y1222250D01*
X1709819Y1223936D01*
X1708864Y1225365D01*
X1707436Y1226319D01*
X1705750Y1226655D01*
D02*
G37*
G36*
X1363250Y1221405D02*
X1361564Y1221069D01*
X1360135Y1220115D01*
X1359181Y1218686D01*
X1358845Y1217000D01*
X1359181Y1215314D01*
X1360135Y1213885D01*
X1361564Y1212931D01*
X1363250Y1212595D01*
X1364936Y1212931D01*
X1366364Y1213885D01*
X1367319Y1215314D01*
X1367655Y1217000D01*
X1367319Y1218686D01*
X1366364Y1220115D01*
X1364936Y1221069D01*
X1363250Y1221405D01*
D02*
G37*
G36*
X1607500Y1229155D02*
X1605814Y1228819D01*
X1604386Y1227865D01*
X1603431Y1226436D01*
X1603095Y1224750D01*
X1603431Y1223064D01*
X1604386Y1221636D01*
X1605814Y1220681D01*
X1607500Y1220345D01*
X1609186Y1220681D01*
X1610614Y1221636D01*
X1611569Y1223064D01*
X1611905Y1224750D01*
X1611569Y1226436D01*
X1610614Y1227865D01*
X1609186Y1228819D01*
X1607500Y1229155D01*
D02*
G37*
G36*
X1428250Y1237905D02*
X1426564Y1237569D01*
X1425135Y1236615D01*
X1424181Y1235186D01*
X1423845Y1233500D01*
X1424181Y1231814D01*
X1425135Y1230386D01*
X1426184Y1229685D01*
X1425936Y1228439D01*
X1425634Y1228379D01*
X1424205Y1227424D01*
X1423250Y1225995D01*
X1422915Y1224310D01*
X1423250Y1222624D01*
X1424205Y1221195D01*
X1425634Y1220240D01*
X1427320Y1219905D01*
X1429005Y1220240D01*
X1430434Y1221195D01*
X1431389Y1222624D01*
X1431724Y1224310D01*
X1431389Y1225995D01*
X1430434Y1227424D01*
X1429386Y1228125D01*
X1429633Y1229370D01*
X1429936Y1229431D01*
X1431364Y1230386D01*
X1432319Y1231814D01*
X1432655Y1233500D01*
X1432319Y1235186D01*
X1431364Y1236615D01*
X1429936Y1237569D01*
X1428250Y1237905D01*
D02*
G37*
G36*
X1312500Y1228655D02*
X1310814Y1228319D01*
X1309386Y1227365D01*
X1308431Y1225936D01*
X1308095Y1224250D01*
X1308431Y1222564D01*
X1309386Y1221135D01*
X1310814Y1220181D01*
X1312500Y1219845D01*
X1314186Y1220181D01*
X1315614Y1221135D01*
X1316569Y1222564D01*
X1316905Y1224250D01*
X1316569Y1225936D01*
X1315614Y1227365D01*
X1314186Y1228319D01*
X1312500Y1228655D01*
D02*
G37*
G36*
X1512000Y1219405D02*
X1510314Y1219069D01*
X1508885Y1218114D01*
X1507931Y1216686D01*
X1507595Y1215000D01*
X1507931Y1213314D01*
X1508885Y1211886D01*
X1510314Y1210931D01*
X1512000Y1210595D01*
X1513686Y1210931D01*
X1515114Y1211886D01*
X1516069Y1213314D01*
X1516405Y1215000D01*
X1516069Y1216686D01*
X1515114Y1218114D01*
X1513686Y1219069D01*
X1512000Y1219405D01*
D02*
G37*
G36*
X1634250Y1209155D02*
X1632564Y1208819D01*
X1631136Y1207865D01*
X1630181Y1206436D01*
X1629845Y1204750D01*
X1630013Y1203905D01*
X1629115Y1203007D01*
X1628079Y1203213D01*
X1626394Y1202878D01*
X1624965Y1201923D01*
X1624010Y1200494D01*
X1623675Y1198809D01*
X1624010Y1197123D01*
X1624965Y1195694D01*
X1626394Y1194739D01*
X1627246Y1194570D01*
Y1194569D01*
X1628079Y1194403D01*
X1628834Y1194553D01*
Y1194554D01*
X1629765Y1194739D01*
X1631194Y1195694D01*
X1632149Y1197123D01*
X1632484Y1198809D01*
X1632316Y1199653D01*
X1633214Y1200551D01*
X1634250Y1200345D01*
X1635936Y1200681D01*
X1637365Y1201636D01*
X1638319Y1203064D01*
X1638655Y1204750D01*
X1638319Y1206436D01*
X1637365Y1207865D01*
X1635936Y1208819D01*
X1634250Y1209155D01*
D02*
G37*
G36*
X1308150Y1216471D02*
X1301650D01*
X1299818Y1216229D01*
X1298110Y1215522D01*
X1296643Y1214397D01*
X1295518Y1212930D01*
X1294811Y1211223D01*
X1294570Y1209390D01*
X1294811Y1207558D01*
X1295518Y1205850D01*
X1296643Y1204383D01*
X1298110Y1203258D01*
X1299818Y1202551D01*
X1301650Y1202309D01*
X1308150D01*
X1309983Y1202551D01*
X1311690Y1203258D01*
X1313157Y1204383D01*
X1314282Y1205850D01*
X1314989Y1207558D01*
X1315231Y1209390D01*
X1314989Y1211223D01*
X1314282Y1212930D01*
X1313157Y1214397D01*
X1311690Y1215522D01*
X1309983Y1216229D01*
X1308150Y1216471D01*
D02*
G37*
G36*
X1770000Y1218967D02*
X1767679Y1218661D01*
X1765517Y1217766D01*
X1763660Y1216340D01*
X1762235Y1214483D01*
X1761339Y1212321D01*
X1761033Y1210000D01*
X1761339Y1207679D01*
X1762235Y1205517D01*
X1763660Y1203660D01*
X1765517Y1202235D01*
X1767679Y1201339D01*
X1770000Y1201033D01*
X1772321Y1201339D01*
X1774483Y1202235D01*
X1776340Y1203660D01*
X1777765Y1205517D01*
X1778661Y1207679D01*
X1778967Y1210000D01*
X1778661Y1212321D01*
X1777765Y1214483D01*
X1776340Y1216340D01*
X1774483Y1217766D01*
X1772321Y1218661D01*
X1770000Y1218967D01*
D02*
G37*
G36*
X1622079Y1217464D02*
X1620394Y1217129D01*
X1618965Y1216174D01*
X1618010Y1214745D01*
X1617675Y1213059D01*
X1618010Y1211374D01*
X1618965Y1209945D01*
X1620394Y1208990D01*
X1622079Y1208655D01*
X1623765Y1208990D01*
X1625194Y1209945D01*
X1626149Y1211374D01*
X1626484Y1213059D01*
X1626149Y1214745D01*
X1625194Y1216174D01*
X1623765Y1217129D01*
X1622079Y1217464D01*
D02*
G37*
G36*
X1430070D02*
X1428384Y1217129D01*
X1426955Y1216174D01*
X1426000Y1214745D01*
X1425665Y1213059D01*
X1426000Y1211374D01*
X1426955Y1209945D01*
X1428384Y1208990D01*
X1430070Y1208655D01*
X1431755Y1208990D01*
X1433184Y1209945D01*
X1434139Y1211374D01*
X1434474Y1213059D01*
X1434139Y1214745D01*
X1433184Y1216174D01*
X1431755Y1217129D01*
X1430070Y1217464D01*
D02*
G37*
G36*
X1477500Y1215655D02*
X1475814Y1215320D01*
X1475778Y1215296D01*
Y1215295D01*
X1474386Y1214364D01*
X1473431Y1212936D01*
X1473095Y1211250D01*
X1473431Y1209564D01*
X1474386Y1208136D01*
X1475814Y1207181D01*
X1477500Y1206845D01*
X1479186Y1207181D01*
X1480614Y1208136D01*
X1481569Y1209564D01*
X1481905Y1211250D01*
X1481569Y1212936D01*
X1480614Y1214364D01*
X1479186Y1215319D01*
X1479019Y1215352D01*
X1479019Y1215353D01*
X1477500Y1215655D01*
D02*
G37*
%LPD*%
D23*
X1790000Y1110000D02*
D03*
X1770000D02*
D03*
D25*
X1411054Y1232602D02*
D03*
Y1139600D02*
D03*
D27*
X1669500Y1277750D02*
D03*
X1705500Y1188750D02*
D03*
X1352000Y1116000D02*
D03*
X1578750Y1117500D02*
D03*
X1572827Y1221060D02*
D03*
X1553500Y1186250D02*
D03*
X1554250Y1173750D02*
D03*
X1736000Y1118000D02*
D03*
X1713250Y1178250D02*
D03*
X1359000Y1245250D02*
D03*
X1304750Y1254500D02*
D03*
X1376500Y1145750D02*
D03*
X1530350Y1127900D02*
D03*
X1519000Y1145250D02*
D03*
X1477250Y1219250D02*
D03*
X1460750Y1249750D02*
D03*
X1327000Y1216500D02*
D03*
X1299500Y1226750D02*
D03*
X1356750Y1264250D02*
D03*
X1695000Y1273500D02*
D03*
X1597750Y1224750D02*
D03*
X1628000Y1190340D02*
D03*
X1552750Y1105500D02*
D03*
X1377500Y1217500D02*
D03*
X1485750Y1139250D02*
D03*
X1746585Y1189058D02*
D03*
X1470000Y1173250D02*
D03*
X1734500Y1106500D02*
D03*
X1373000Y1173750D02*
D03*
X1735830Y1238830D02*
D03*
X1730500Y1256750D02*
D03*
X1626500Y1277750D02*
D03*
D29*
X1610000Y1115500D02*
D03*
Y1260000D02*
D03*
M02*
