%FSLAX44Y44*%
%MOMM*%
G71*
G01*
G75*
G04 Layer_Color=8421504*
%ADD10R,1.3000X0.4500*%
%ADD11R,2.7940X0.7366*%
%ADD12R,0.5000X0.2000*%
%ADD13R,0.7620X0.7620*%
%ADD14R,0.3000X0.3000*%
%ADD15R,0.7620X0.7620*%
%ADD16R,0.6200X0.5700*%
%ADD17C,0.1500*%
%ADD18C,0.2540*%
%ADD19R,1.5240X1.5240*%
%ADD20C,1.5240*%
%ADD21C,0.8000*%
%ADD22O,1.8000X1.1500*%
%ADD23O,2.0000X1.4500*%
%ADD24R,1.8000X1.8000*%
%ADD25C,1.8000*%
%ADD26C,0.6100*%
%ADD27C,0.6000*%
%ADD28R,0.5700X0.6200*%
%ADD29R,0.6000X0.5500*%
%ADD30R,1.4000X2.2000*%
%ADD31O,1.7500X0.3500*%
%ADD32O,0.3500X1.7500*%
%ADD33R,0.8500X0.3500*%
%ADD34R,0.9500X0.9500*%
%ADD35R,0.5500X0.6000*%
%ADD36R,0.9700X0.9600*%
%ADD37R,0.9500X0.9500*%
%ADD38R,1.2500X0.3000*%
%ADD39O,0.3000X0.8000*%
%ADD40O,0.8000X0.3000*%
%ADD41R,1.5000X1.0000*%
%ADD42C,3.3000*%
%ADD43C,0.4000*%
%ADD44C,0.2286*%
%ADD45C,0.1778*%
D10*
X1342900Y1170640D02*
D03*
Y1177140D02*
D03*
Y1164140D02*
D03*
Y1157640D02*
D03*
Y1183640D02*
D03*
D11*
X1572820Y1162100D02*
D03*
X1532180D02*
D03*
X1572820Y1174800D02*
D03*
X1532180D02*
D03*
X1572820Y1187500D02*
D03*
X1532180D02*
D03*
X1572820Y1200200D02*
D03*
X1532180D02*
D03*
X1572820Y1212900D02*
D03*
X1532180D02*
D03*
D12*
X1618750Y1170000D02*
D03*
Y1175000D02*
D03*
Y1180000D02*
D03*
Y1185000D02*
D03*
Y1190000D02*
D03*
Y1195000D02*
D03*
Y1200000D02*
D03*
X1606250D02*
D03*
Y1195000D02*
D03*
Y1190000D02*
D03*
Y1185000D02*
D03*
Y1180000D02*
D03*
Y1175000D02*
D03*
Y1170000D02*
D03*
D13*
X1317500Y1249485D02*
D03*
Y1235515D02*
D03*
X1718250Y1158485D02*
D03*
Y1144515D02*
D03*
Y1125985D02*
D03*
Y1112015D02*
D03*
Y1253485D02*
D03*
Y1239515D02*
D03*
Y1220985D02*
D03*
Y1207015D02*
D03*
D14*
X1366750Y1173750D02*
D03*
X1358250Y1177250D02*
D03*
Y1170250D02*
D03*
D15*
X1437015Y1257750D02*
D03*
X1450985D02*
D03*
X1437015Y1207500D02*
D03*
X1450985D02*
D03*
X1437015Y1232625D02*
D03*
X1450985D02*
D03*
X1437015Y1165500D02*
D03*
X1450985D02*
D03*
X1437015Y1113750D02*
D03*
X1450985D02*
D03*
X1437015Y1139625D02*
D03*
X1450985D02*
D03*
D16*
X1375250Y1166050D02*
D03*
Y1156450D02*
D03*
X1817089Y1090853D02*
D03*
Y1081253D02*
D03*
X1875591Y1090853D02*
D03*
Y1081253D02*
D03*
X1817089Y1090853D02*
D03*
Y1081253D02*
D03*
M02*
