%FSLAX44Y44*%
%MOMM*%
G71*
G01*
G75*
G04 Layer_Color=32768*
%ADD10R,1.3000X0.4500*%
%ADD11R,2.7940X0.7366*%
%ADD12R,0.5000X0.2000*%
%ADD13R,0.7620X0.7620*%
%ADD14R,0.3000X0.3000*%
%ADD15R,0.7620X0.7620*%
%ADD16R,0.6200X0.5700*%
%ADD17C,0.1500*%
%ADD18C,0.2540*%
%ADD19R,1.5240X1.5240*%
%ADD20C,1.5240*%
%ADD21C,0.8000*%
%ADD22O,1.8000X1.1500*%
%ADD23O,2.0000X1.4500*%
%ADD24R,1.8000X1.8000*%
%ADD25C,1.8000*%
%ADD26C,0.6100*%
%ADD27C,0.6000*%
%ADD28R,0.5700X0.6200*%
%ADD29R,0.6000X0.5500*%
%ADD30R,1.4000X2.2000*%
%ADD31O,1.7500X0.3500*%
%ADD32O,0.3500X1.7500*%
%ADD33R,0.8500X0.3500*%
%ADD34R,0.9500X0.9500*%
%ADD35R,0.5500X0.6000*%
%ADD36R,0.9700X0.9600*%
%ADD37R,0.9500X0.9500*%
%ADD38R,1.2500X0.3000*%
%ADD39O,0.3000X0.8000*%
%ADD40O,0.8000X0.3000*%
%ADD41R,1.5000X1.0000*%
%ADD42C,3.3000*%
%ADD43C,0.4000*%
%ADD44C,0.2286*%
%ADD45C,0.1778*%
%ADD46R,1.5032X0.6532*%
%ADD47R,2.8956X0.8382*%
%ADD48R,0.7032X0.4032*%
%ADD49R,0.9652X0.9652*%
%ADD50R,0.5032X0.5032*%
%ADD51R,0.9652X0.9652*%
%ADD52R,0.8232X0.7732*%
%ADD53C,0.2032*%
%ADD54R,1.7272X1.7272*%
%ADD55C,1.7272*%
%ADD56C,1.0032*%
%ADD57O,2.0032X1.3532*%
%ADD58O,2.2032X1.6532*%
%ADD59R,2.0032X2.0032*%
%ADD60C,2.0032*%
%ADD61R,0.7732X0.8232*%
%ADD62R,0.8032X0.7532*%
%ADD63R,1.6032X2.4032*%
%ADD64O,1.9532X0.5532*%
%ADD65O,0.5532X1.9532*%
%ADD66R,1.0532X0.5532*%
%ADD67R,1.1532X1.1532*%
%ADD68R,0.7532X0.8032*%
%ADD69R,1.1732X1.1632*%
%ADD70R,1.1532X1.1532*%
%ADD71R,1.4532X0.5032*%
%ADD72O,0.5032X1.0032*%
%ADD73O,1.0032X0.5032*%
%ADD74R,1.7032X1.2032*%
%ADD75C,3.5032*%
%ADD76C,0.1000*%
%ADD77C,0.6000*%
%ADD78C,0.2500*%
%ADD79C,0.2000*%
%ADD80C,0.1270*%
%ADD81C,0.0500*%
D81*
X1307790Y1235710D02*
G03*
X1307790Y1235710I-3500J0D01*
G01*
X1589000Y1151750D02*
G03*
X1589000Y1151750I-3500J0D01*
G01*
X1583750Y1212250D02*
G03*
X1583750Y1212250I-3500J0D01*
G01*
X1636500Y1256250D02*
G03*
X1636500Y1256250I-3500J0D01*
G01*
X1672980Y1121050D02*
G03*
X1672980Y1121050I-3500J0D01*
G01*
X1664230D02*
G03*
X1664230Y1121050I-3500J0D01*
G01*
X1688250Y1256250D02*
G03*
X1688250Y1256250I-3500J0D01*
G01*
X1678750D02*
G03*
X1678750Y1256250I-3500J0D01*
G01*
X1473500Y1191750D02*
G03*
X1473500Y1191750I-3500J0D01*
G01*
X1492333D02*
G03*
X1492333Y1191750I-3500J0D01*
G01*
X1501750Y1182000D02*
G03*
X1501750Y1182000I-3500J0D01*
G01*
X1482917D02*
G03*
X1482917Y1182000I-3500J0D01*
G01*
X1448500Y1155750D02*
G03*
X1448500Y1155750I-3500J0D01*
G01*
Y1218500D02*
G03*
X1448500Y1218500I-3500J0D01*
G01*
Y1268250D02*
G03*
X1448500Y1268250I-3500J0D01*
G01*
Y1243500D02*
G03*
X1448500Y1243500I-3500J0D01*
G01*
Y1103500D02*
G03*
X1448500Y1103500I-3500J0D01*
G01*
Y1128750D02*
G03*
X1448500Y1128750I-3500J0D01*
G01*
X1378750Y1161250D02*
G03*
X1378750Y1161250I-3500J0D01*
G01*
X1820589Y1086053D02*
G03*
X1820589Y1086053I-3500J0D01*
G01*
X1879091D02*
G03*
X1879091Y1086053I-3500J0D01*
G01*
X1820589D02*
G03*
X1820589Y1086053I-3500J0D01*
G01*
X1312790Y1231710D02*
Y1239710D01*
X1304290Y1231710D02*
Y1239710D01*
X1295790Y1231710D02*
X1312790D01*
X1295790Y1239710D02*
X1312790D01*
X1295790Y1231710D02*
Y1239710D01*
X1299290Y1235710D02*
X1309290D01*
X1577000Y1147750D02*
Y1155750D01*
X1585500Y1147750D02*
Y1155750D01*
X1577000D02*
X1594000D01*
X1577000Y1147750D02*
X1594000D01*
Y1155750D01*
X1580500Y1151750D02*
X1590500D01*
X1576250Y1203750D02*
X1584250D01*
X1576250Y1212250D02*
X1584250D01*
X1576250Y1203750D02*
Y1220750D01*
X1584250Y1203750D02*
Y1220750D01*
X1576250D02*
X1584250D01*
X1580250Y1207250D02*
Y1217250D01*
X1629000Y1247750D02*
X1637000D01*
X1629000Y1256250D02*
X1637000D01*
X1629000Y1247750D02*
Y1264750D01*
X1637000Y1247750D02*
Y1264750D01*
X1629000D02*
X1637000D01*
X1633000Y1251250D02*
Y1261250D01*
X1665480Y1112550D02*
X1673480D01*
X1665480Y1121050D02*
X1673480D01*
X1665480Y1112550D02*
Y1129550D01*
X1673480Y1112550D02*
Y1129550D01*
X1665480D02*
X1673480D01*
X1669480Y1116050D02*
Y1126050D01*
X1656730Y1112550D02*
X1664730D01*
X1656730Y1121050D02*
X1664730D01*
X1656730Y1112550D02*
Y1129550D01*
X1664730Y1112550D02*
Y1129550D01*
X1656730D02*
X1664730D01*
X1660730Y1116050D02*
Y1126050D01*
X1680750Y1264750D02*
X1688750D01*
X1680750Y1256250D02*
X1688750D01*
Y1247750D02*
Y1264750D01*
X1680750Y1247750D02*
Y1264750D01*
Y1247750D02*
X1688750D01*
X1684750Y1251250D02*
Y1261250D01*
X1671250Y1264750D02*
X1679250D01*
X1671250Y1256250D02*
X1679250D01*
Y1247750D02*
Y1264750D01*
X1671250Y1247750D02*
Y1264750D01*
Y1247750D02*
X1679250D01*
X1675250Y1251250D02*
Y1261250D01*
X1470000Y1186750D02*
Y1196750D01*
X1466000Y1200250D02*
X1474000D01*
Y1183250D02*
Y1200250D01*
X1466000Y1183250D02*
Y1200250D01*
Y1191750D02*
X1474000D01*
X1466000Y1183250D02*
X1474000D01*
X1488833Y1186750D02*
Y1196750D01*
X1484833Y1200250D02*
X1492833D01*
Y1183250D02*
Y1200250D01*
X1484833Y1183250D02*
Y1200250D01*
Y1191750D02*
X1492833D01*
X1484833Y1183250D02*
X1492833D01*
X1498250Y1177000D02*
Y1187000D01*
X1494250Y1173500D02*
X1502250D01*
X1494250D02*
Y1190500D01*
X1502250Y1173500D02*
Y1190500D01*
X1494250Y1182000D02*
X1502250D01*
X1494250Y1190500D02*
X1502250D01*
X1479417Y1177000D02*
Y1187000D01*
X1475417Y1173500D02*
X1483417D01*
X1475417D02*
Y1190500D01*
X1483417Y1173500D02*
Y1190500D01*
X1475417Y1182000D02*
X1483417D01*
X1475417Y1190500D02*
X1483417D01*
X1440000Y1155750D02*
X1450000D01*
X1436500Y1151750D02*
Y1159750D01*
X1453500D01*
X1436500Y1151750D02*
X1453500D01*
X1445000D02*
Y1159750D01*
X1453500Y1151750D02*
Y1159750D01*
X1440000Y1218500D02*
X1450000D01*
X1436500Y1214500D02*
Y1222500D01*
X1453500D01*
X1436500Y1214500D02*
X1453500D01*
X1445000D02*
Y1222500D01*
X1453500Y1214500D02*
Y1222500D01*
X1440000Y1268250D02*
X1450000D01*
X1436500Y1264250D02*
Y1272250D01*
X1453500D01*
X1436500Y1264250D02*
X1453500D01*
X1445000D02*
Y1272250D01*
X1453500Y1264250D02*
Y1272250D01*
X1440000Y1243500D02*
X1450000D01*
X1436500Y1239500D02*
Y1247500D01*
X1453500D01*
X1436500Y1239500D02*
X1453500D01*
X1445000D02*
Y1247500D01*
X1453500Y1239500D02*
Y1247500D01*
X1440000Y1103500D02*
X1450000D01*
X1436500Y1099500D02*
Y1107500D01*
X1453500D01*
X1436500Y1099500D02*
X1453500D01*
X1445000D02*
Y1107500D01*
X1453500Y1099500D02*
Y1107500D01*
X1440000Y1128750D02*
X1450000D01*
X1436500Y1124750D02*
Y1132750D01*
X1453500D01*
X1436500Y1124750D02*
X1453500D01*
X1445000D02*
Y1132750D01*
X1453500Y1124750D02*
Y1132750D01*
X1371250Y1152750D02*
X1379250D01*
X1371250Y1161250D02*
X1379250D01*
Y1152750D02*
Y1169750D01*
X1371250Y1152750D02*
Y1169750D01*
X1379250D01*
X1375250Y1156250D02*
Y1166250D01*
X1817089Y1081053D02*
Y1091053D01*
X1813089Y1077553D02*
X1821089D01*
Y1094553D01*
X1813089Y1077553D02*
Y1094553D01*
Y1086053D02*
X1821089D01*
X1813089Y1094553D02*
X1821089D01*
X1875591Y1081053D02*
Y1091053D01*
X1871591Y1077553D02*
X1879592D01*
Y1094553D01*
X1871591Y1077553D02*
Y1094553D01*
Y1086053D02*
X1879592D01*
X1871591Y1094553D02*
X1879592D01*
X1817089Y1081053D02*
Y1091053D01*
X1813089Y1077553D02*
X1821089D01*
Y1094553D01*
X1813089Y1077553D02*
Y1094553D01*
Y1086053D02*
X1821089D01*
X1813089Y1094553D02*
X1821089D01*
M02*
