%FSLAX44Y44*%
%MOMM*%
G71*
G01*
G75*
G04 Layer_Color=32768*
%ADD10R,1.3000X0.4500*%
%ADD11R,2.7940X0.7366*%
%ADD12R,0.5000X0.2000*%
%ADD13R,0.7620X0.7620*%
%ADD14R,0.3000X0.3000*%
%ADD15R,0.7620X0.7620*%
%ADD16R,0.6200X0.5700*%
%ADD17C,0.1500*%
%ADD18C,0.2540*%
%ADD19R,1.5240X1.5240*%
%ADD20C,1.5240*%
%ADD21C,0.8000*%
%ADD22O,1.8000X1.1500*%
%ADD23O,2.0000X1.4500*%
%ADD24R,1.8000X1.8000*%
%ADD25C,1.8000*%
%ADD26C,0.6100*%
%ADD27C,0.6000*%
%ADD28R,0.5700X0.6200*%
%ADD29R,0.6000X0.5500*%
%ADD30R,1.4000X2.2000*%
%ADD31O,1.7500X0.3500*%
%ADD32O,0.3500X1.7500*%
%ADD33R,0.8500X0.3500*%
%ADD34R,0.9500X0.9500*%
%ADD35R,0.5500X0.6000*%
%ADD36R,0.9700X0.9600*%
%ADD37R,0.9500X0.9500*%
%ADD38R,1.2500X0.3000*%
%ADD39O,0.3000X0.8000*%
%ADD40O,0.8000X0.3000*%
%ADD41R,1.5000X1.0000*%
%ADD42C,3.3000*%
%ADD43C,0.4000*%
%ADD44C,0.2286*%
%ADD45C,0.1778*%
%ADD46R,1.5032X0.6532*%
%ADD47R,2.8956X0.8382*%
%ADD48R,0.7032X0.4032*%
%ADD49R,0.9652X0.9652*%
%ADD50R,0.5032X0.5032*%
%ADD51R,0.9652X0.9652*%
%ADD52R,0.8232X0.7732*%
%ADD53C,0.2032*%
%ADD54R,1.7272X1.7272*%
%ADD55C,1.7272*%
%ADD56C,1.0032*%
%ADD57O,2.0032X1.3532*%
%ADD58O,2.2032X1.6532*%
%ADD59R,2.0032X2.0032*%
%ADD60C,2.0032*%
%ADD61R,0.7732X0.8232*%
%ADD62R,0.8032X0.7532*%
%ADD63R,1.6032X2.4032*%
%ADD64O,1.9532X0.5532*%
%ADD65O,0.5532X1.9532*%
%ADD66R,1.0532X0.5532*%
%ADD67R,1.1532X1.1532*%
%ADD68R,0.7532X0.8032*%
%ADD69R,1.1732X1.1632*%
%ADD70R,1.1532X1.1532*%
%ADD71R,1.4532X0.5032*%
%ADD72O,0.5032X1.0032*%
%ADD73O,1.0032X0.5032*%
%ADD74R,1.7032X1.2032*%
%ADD75C,3.5032*%
%ADD76C,0.1000*%
%ADD77C,0.6000*%
%ADD78C,0.2500*%
%ADD79C,0.2000*%
%ADD80C,0.1270*%
%ADD81C,0.0500*%
G36*
X1296298Y1164131D02*
X1295540D01*
Y1167913D01*
X1293589D01*
Y1164372D01*
X1292831D01*
Y1167913D01*
X1290658D01*
Y1163984D01*
X1289900D01*
Y1168763D01*
X1296298D01*
Y1164131D01*
D02*
G37*
G36*
Y1174865D02*
X1296270Y1174440D01*
X1296215Y1174061D01*
X1296104Y1173691D01*
X1296067Y1173617D01*
X1295956Y1173442D01*
X1295771Y1173211D01*
X1295706Y1173155D01*
X1295651Y1173100D01*
X1295503Y1172998D01*
X1295484Y1172989D01*
X1295429Y1172961D01*
X1295244Y1172868D01*
X1295124Y1172822D01*
X1294976Y1172776D01*
X1294819Y1172748D01*
X1294662Y1172739D01*
X1294597D01*
X1294412Y1172767D01*
X1294162Y1172831D01*
X1294033Y1172896D01*
X1293894Y1172970D01*
X1293876Y1172979D01*
X1293839Y1173007D01*
X1293691Y1173137D01*
X1293598Y1173229D01*
X1293497Y1173340D01*
X1293404Y1173479D01*
X1293312Y1173636D01*
X1293275Y1173543D01*
X1293173Y1173303D01*
X1292988Y1173007D01*
X1292868Y1172868D01*
X1292794Y1172804D01*
X1292720Y1172739D01*
X1292702Y1172721D01*
X1292646Y1172693D01*
X1292563Y1172637D01*
X1292452Y1172582D01*
X1292304Y1172526D01*
X1292230Y1172499D01*
X1292147Y1172471D01*
X1291962Y1172434D01*
X1291758Y1172425D01*
X1291684D01*
X1291481Y1172452D01*
X1291213Y1172508D01*
X1290917Y1172619D01*
X1290899Y1172628D01*
X1290852Y1172656D01*
X1290695Y1172748D01*
X1290501Y1172896D01*
X1290399Y1172989D01*
X1290316Y1173090D01*
X1290307Y1173100D01*
X1290279Y1173137D01*
X1290205Y1173285D01*
X1290094Y1173506D01*
X1290048Y1173636D01*
X1290002Y1173793D01*
Y1173811D01*
X1289983Y1173867D01*
X1289955Y1174080D01*
X1289937Y1174228D01*
X1289919Y1174403D01*
X1289909Y1174597D01*
X1289900Y1174819D01*
Y1177260D01*
X1296298D01*
Y1174865D01*
D02*
G37*
G36*
X1292628Y1163179D02*
X1293034Y1163105D01*
X1293469Y1162976D01*
X1293561Y1162930D01*
X1293792Y1162800D01*
X1293931Y1162708D01*
X1294070Y1162587D01*
X1294218Y1162439D01*
X1294283Y1162365D01*
X1294338Y1162282D01*
X1294384Y1162199D01*
X1294440Y1162107D01*
X1294495Y1161977D01*
X1294551Y1161829D01*
X1294597Y1161654D01*
X1294615Y1161561D01*
X1294634Y1161459D01*
X1294643Y1161256D01*
X1294624Y1161006D01*
X1294569Y1160757D01*
X1294458Y1160507D01*
X1294338Y1160322D01*
X1294190Y1160146D01*
X1294005Y1159971D01*
X1296298D01*
Y1159185D01*
X1289900D01*
Y1159915D01*
X1290473D01*
X1290455Y1159934D01*
X1290381Y1159999D01*
X1290270Y1160100D01*
X1290205Y1160165D01*
X1290140Y1160248D01*
X1290076Y1160331D01*
X1290020Y1160424D01*
X1289955Y1160535D01*
X1289909Y1160655D01*
X1289863Y1160775D01*
X1289826Y1160914D01*
X1289808Y1161062D01*
X1289798Y1161219D01*
Y1161228D01*
Y1161247D01*
X1289808Y1161311D01*
X1289835Y1161552D01*
X1289928Y1161885D01*
X1290002Y1162060D01*
X1290103Y1162236D01*
X1290113D01*
X1290122Y1162254D01*
X1290159Y1162310D01*
X1290325Y1162495D01*
X1290446Y1162615D01*
X1290594Y1162735D01*
X1290760Y1162856D01*
X1290954Y1162957D01*
X1291046Y1162994D01*
X1291315Y1163077D01*
X1291499Y1163124D01*
X1291712Y1163170D01*
X1291832Y1163179D01*
X1291953Y1163198D01*
X1292082Y1163207D01*
X1292332D01*
X1292628Y1163179D01*
D02*
G37*
G36*
X1292369Y1153222D02*
X1292840Y1153157D01*
X1293441Y1152981D01*
X1293589Y1152907D01*
X1293737Y1152824D01*
X1293996Y1152630D01*
X1294097Y1152519D01*
X1294199Y1152390D01*
X1294319Y1152205D01*
X1294384Y1152103D01*
X1294440Y1151983D01*
X1294541Y1151715D01*
X1294588Y1151567D01*
X1294615Y1151410D01*
X1294634Y1151243D01*
X1294643Y1151067D01*
X1294634Y1150910D01*
X1294560Y1150522D01*
X1294486Y1150282D01*
X1294375Y1150032D01*
X1294218Y1149773D01*
X1294116Y1149653D01*
X1294005Y1149542D01*
X1293996Y1149533D01*
X1293977Y1149514D01*
X1293885Y1149449D01*
X1293746Y1149357D01*
X1293654Y1149302D01*
X1293543Y1149246D01*
X1293423Y1149191D01*
X1293293Y1149135D01*
X1293145Y1149089D01*
X1292988Y1149043D01*
X1292812Y1149006D01*
X1292628Y1148978D01*
X1292221Y1148950D01*
X1292175D01*
X1292017Y1148959D01*
Y1152427D01*
X1291980D01*
X1291888Y1152417D01*
X1291583Y1152362D01*
X1291398Y1152306D01*
X1291194Y1152232D01*
X1291010Y1152131D01*
X1290843Y1152001D01*
X1290778Y1151927D01*
X1290714Y1151844D01*
X1290649Y1151733D01*
X1290575Y1151585D01*
X1290510Y1151419D01*
X1290482Y1151326D01*
X1290464Y1151234D01*
X1290446Y1151021D01*
X1290473Y1150762D01*
X1290538Y1150522D01*
X1290594Y1150402D01*
X1290667Y1150282D01*
X1290714Y1150226D01*
X1290769Y1150171D01*
X1290843Y1150106D01*
X1290945Y1150023D01*
X1291074Y1149949D01*
X1291222Y1149865D01*
X1291398Y1149791D01*
X1291296Y1148978D01*
X1291287D01*
X1291268Y1148987D01*
X1291176Y1149015D01*
X1290889Y1149144D01*
X1290529Y1149366D01*
X1290353Y1149514D01*
X1290187Y1149699D01*
Y1149708D01*
X1290168Y1149727D01*
X1290131Y1149791D01*
X1290067Y1149902D01*
X1289993Y1150060D01*
X1289955Y1150152D01*
X1289919Y1150245D01*
X1289863Y1150476D01*
X1289835Y1150596D01*
X1289817Y1150734D01*
X1289798Y1151021D01*
Y1151030D01*
Y1151067D01*
X1289808Y1151188D01*
X1289881Y1151604D01*
X1289955Y1151862D01*
X1290057Y1152131D01*
X1290214Y1152399D01*
X1290418Y1152639D01*
X1290538Y1152732D01*
X1290677Y1152824D01*
X1290769Y1152879D01*
X1290871Y1152935D01*
X1290991Y1152990D01*
X1291120Y1153046D01*
X1291268Y1153092D01*
X1291426Y1153138D01*
X1291777Y1153203D01*
X1292175Y1153231D01*
X1292369Y1153222D01*
D02*
G37*
G36*
X1292646Y1158214D02*
X1293034Y1158140D01*
X1293247Y1158085D01*
X1293460Y1158002D01*
X1293783Y1157826D01*
X1293922Y1157724D01*
X1294061Y1157604D01*
X1294209Y1157465D01*
X1294273Y1157391D01*
X1294329Y1157308D01*
X1294375Y1157225D01*
X1294430Y1157132D01*
X1294486Y1157003D01*
X1294541Y1156846D01*
X1294597Y1156661D01*
X1294615Y1156559D01*
X1294634Y1156458D01*
X1294643Y1156347D01*
Y1156236D01*
X1294634Y1156097D01*
X1294560Y1155755D01*
X1294477Y1155542D01*
X1294356Y1155311D01*
X1294190Y1155089D01*
X1294088Y1154978D01*
X1293968Y1154877D01*
X1294541D01*
Y1154155D01*
X1290353D01*
X1290168Y1154165D01*
X1289937Y1154183D01*
X1289438Y1154248D01*
X1289197Y1154303D01*
X1289003Y1154377D01*
X1288985Y1154387D01*
X1288929Y1154424D01*
X1288744Y1154544D01*
X1288633Y1154645D01*
X1288578Y1154701D01*
X1288513Y1154766D01*
X1288402Y1154913D01*
X1288291Y1155080D01*
Y1155089D01*
X1288282Y1155098D01*
X1288254Y1155163D01*
X1288162Y1155404D01*
X1288116Y1155570D01*
X1288069Y1155773D01*
X1288042Y1156004D01*
X1288032Y1156125D01*
X1288023Y1156254D01*
Y1156263D01*
Y1156291D01*
X1288032Y1156393D01*
X1288069Y1156735D01*
X1288116Y1156948D01*
X1288190Y1157169D01*
X1288282Y1157391D01*
X1288402Y1157595D01*
X1288412Y1157604D01*
X1288421Y1157613D01*
X1288476Y1157678D01*
X1288559Y1157752D01*
X1288680Y1157844D01*
X1288846Y1157937D01*
X1288938Y1157974D01*
X1289031Y1158020D01*
X1289142Y1158048D01*
X1289262Y1158066D01*
X1289521Y1158085D01*
X1289419Y1157317D01*
X1289410D01*
X1289364Y1157308D01*
X1289225Y1157271D01*
X1289049Y1157188D01*
X1288976Y1157132D01*
X1288902Y1157058D01*
X1288864Y1157003D01*
X1288791Y1156846D01*
X1288707Y1156596D01*
X1288680Y1156430D01*
X1288670Y1156254D01*
X1288698Y1155940D01*
X1288763Y1155672D01*
X1288818Y1155533D01*
X1288892Y1155413D01*
X1288938Y1155367D01*
X1289049Y1155246D01*
X1289244Y1155117D01*
X1289364Y1155052D01*
X1289503Y1155006D01*
X1289724Y1154978D01*
X1289854Y1154969D01*
X1290029Y1154960D01*
X1290510Y1154950D01*
X1290501Y1154960D01*
X1290482Y1154978D01*
X1290418Y1155043D01*
X1290316Y1155154D01*
X1290205Y1155302D01*
X1290094Y1155487D01*
X1289993Y1155709D01*
X1289955Y1155829D01*
X1289928Y1155958D01*
X1289909Y1156097D01*
X1289900Y1156236D01*
Y1156245D01*
Y1156282D01*
X1289909Y1156393D01*
X1289937Y1156569D01*
X1289983Y1156781D01*
X1290067Y1157021D01*
X1290187Y1157271D01*
X1290270Y1157391D01*
X1290362Y1157512D01*
X1290464Y1157623D01*
X1290520Y1157669D01*
X1290584Y1157724D01*
X1290704Y1157807D01*
X1290852Y1157891D01*
X1290945Y1157937D01*
X1291056Y1157983D01*
X1291296Y1158075D01*
X1291435Y1158122D01*
X1291573Y1158159D01*
X1291731Y1158196D01*
X1291897Y1158223D01*
X1292239Y1158242D01*
X1292350D01*
X1292646Y1158214D01*
D02*
G37*
G36*
X1293312Y1183917D02*
X1293737Y1183880D01*
X1294005Y1183834D01*
X1294301Y1183769D01*
X1294597Y1183667D01*
X1294883Y1183547D01*
X1295004Y1183473D01*
X1295142Y1183390D01*
X1295309Y1183270D01*
X1295494Y1183113D01*
X1295586Y1183029D01*
X1295679Y1182928D01*
X1295771Y1182826D01*
X1295863Y1182715D01*
X1295947Y1182595D01*
X1296021Y1182465D01*
X1296085Y1182336D01*
X1296141Y1182197D01*
X1296215Y1182003D01*
X1296252Y1181892D01*
X1296289Y1181772D01*
X1296317Y1181643D01*
X1296344Y1181513D01*
X1296390Y1181217D01*
X1296409Y1181069D01*
Y1180912D01*
X1296400Y1180755D01*
X1296344Y1180348D01*
X1296205Y1179821D01*
X1296085Y1179553D01*
X1296002Y1179424D01*
X1295919Y1179294D01*
X1295827Y1179183D01*
X1295715Y1179072D01*
X1295568Y1178934D01*
X1295475Y1178860D01*
X1295364Y1178786D01*
X1295133Y1178628D01*
X1294856Y1178490D01*
X1294708Y1178434D01*
X1294541Y1178379D01*
X1294347Y1179211D01*
X1294736Y1179377D01*
X1295068Y1179581D01*
X1295226Y1179719D01*
X1295364Y1179867D01*
X1295383Y1179886D01*
X1295420Y1179941D01*
X1295466Y1180034D01*
X1295531Y1180154D01*
X1295586Y1180311D01*
X1295642Y1180487D01*
X1295660Y1180589D01*
X1295679Y1180699D01*
X1295688Y1180810D01*
Y1180931D01*
Y1180940D01*
Y1180958D01*
X1295679Y1181051D01*
X1295642Y1181365D01*
X1295540Y1181763D01*
X1295447Y1181975D01*
X1295327Y1182170D01*
Y1182179D01*
X1295309Y1182188D01*
X1295262Y1182253D01*
X1295078Y1182438D01*
X1294939Y1182558D01*
X1294782Y1182669D01*
X1294588Y1182770D01*
X1294486Y1182817D01*
X1294375Y1182863D01*
X1294366D01*
X1294347Y1182872D01*
X1294273Y1182891D01*
X1294153Y1182928D01*
X1293996Y1182955D01*
X1293820Y1182992D01*
X1293607Y1183029D01*
X1293386Y1183048D01*
X1293145Y1183057D01*
X1293007D01*
X1292664Y1183029D01*
X1292202Y1182955D01*
X1291721Y1182826D01*
X1291712D01*
X1291694Y1182817D01*
X1291620Y1182780D01*
X1291379Y1182641D01*
X1291231Y1182539D01*
X1291074Y1182410D01*
X1291010Y1182336D01*
X1290936Y1182262D01*
X1290871Y1182179D01*
X1290806Y1182086D01*
X1290760Y1181994D01*
X1290714Y1181892D01*
X1290658Y1181763D01*
X1290603Y1181596D01*
X1290556Y1181411D01*
X1290520Y1181208D01*
X1290510Y1181106D01*
Y1180995D01*
X1290520Y1180875D01*
X1290566Y1180579D01*
X1290686Y1180191D01*
X1290788Y1179988D01*
X1290917Y1179793D01*
X1290991Y1179710D01*
X1291093Y1179627D01*
X1291222Y1179525D01*
X1291398Y1179405D01*
X1291490Y1179350D01*
X1291601Y1179294D01*
X1291721Y1179248D01*
X1291851Y1179193D01*
X1291989Y1179156D01*
X1292137Y1179118D01*
X1291925Y1178268D01*
X1291916D01*
X1291879Y1178277D01*
X1291749Y1178323D01*
X1291333Y1178490D01*
X1291074Y1178619D01*
X1290815Y1178786D01*
X1290556Y1178989D01*
X1290446Y1179100D01*
X1290335Y1179230D01*
X1290325Y1179239D01*
X1290316Y1179257D01*
X1290251Y1179350D01*
X1290159Y1179498D01*
X1290113Y1179590D01*
X1290067Y1179701D01*
X1289965Y1179951D01*
X1289919Y1180089D01*
X1289872Y1180237D01*
X1289817Y1180561D01*
X1289798Y1180736D01*
X1289789Y1180921D01*
Y1180931D01*
Y1180968D01*
X1289798Y1181097D01*
X1289845Y1181522D01*
X1289965Y1182068D01*
X1290067Y1182345D01*
X1290205Y1182604D01*
X1290214Y1182613D01*
X1290224Y1182632D01*
X1290288Y1182706D01*
X1290520Y1182974D01*
X1290695Y1183131D01*
X1290788Y1183214D01*
X1290899Y1183298D01*
X1291148Y1183455D01*
X1291426Y1183593D01*
X1291564Y1183649D01*
X1291731Y1183695D01*
X1291943Y1183760D01*
X1292063Y1183788D01*
X1292202Y1183824D01*
X1292341Y1183852D01*
X1292489Y1183871D01*
X1292646Y1183898D01*
X1292812Y1183908D01*
X1292979Y1183926D01*
X1293145D01*
X1293312Y1183917D01*
D02*
G37*
G36*
X1296298Y1187236D02*
X1296289Y1186876D01*
X1296233Y1186256D01*
X1296169Y1185979D01*
X1296067Y1185729D01*
X1295928Y1185470D01*
X1295891Y1185415D01*
X1295771Y1185285D01*
X1295688Y1185202D01*
X1295586Y1185119D01*
X1295457Y1185026D01*
X1295318Y1184952D01*
X1295300Y1184943D01*
X1295253Y1184925D01*
X1295059Y1184851D01*
X1294930Y1184823D01*
X1294782Y1184786D01*
X1294615Y1184768D01*
X1294440Y1184758D01*
X1294403D01*
X1294301Y1184768D01*
X1293959Y1184823D01*
X1293746Y1184888D01*
X1293515Y1184980D01*
X1293284Y1185110D01*
X1293062Y1185285D01*
X1293053Y1185295D01*
X1293034Y1185313D01*
X1292979Y1185387D01*
X1292886Y1185517D01*
X1292785Y1185711D01*
X1292729Y1185831D01*
X1292674Y1185969D01*
X1292628Y1186117D01*
X1292590Y1186293D01*
X1292554Y1186478D01*
X1292526Y1186681D01*
X1292507Y1186913D01*
X1292498Y1187153D01*
Y1188789D01*
X1289900D01*
Y1189640D01*
X1296298D01*
Y1187236D01*
D02*
G37*
%LPC*%
G36*
X1292295Y1157438D02*
X1292258D01*
X1292147Y1157428D01*
X1291786Y1157391D01*
X1291352Y1157280D01*
X1291139Y1157197D01*
X1290963Y1157077D01*
X1290899Y1157012D01*
X1290834Y1156929D01*
X1290760Y1156827D01*
X1290677Y1156698D01*
X1290612Y1156541D01*
X1290566Y1156365D01*
X1290556Y1156273D01*
X1290547Y1156171D01*
X1290556Y1156078D01*
X1290603Y1155847D01*
X1290723Y1155552D01*
X1290825Y1155404D01*
X1290963Y1155256D01*
X1291046Y1155200D01*
X1291139Y1155135D01*
X1291287Y1155071D01*
X1291370Y1155034D01*
X1291463Y1155006D01*
X1291694Y1154941D01*
X1291814Y1154923D01*
X1291953Y1154904D01*
X1292110Y1154886D01*
X1292267D01*
X1292406Y1154895D01*
X1292748Y1154932D01*
X1292960Y1154978D01*
X1293173Y1155043D01*
X1293386Y1155135D01*
X1293478Y1155200D01*
X1293561Y1155265D01*
X1293626Y1155330D01*
X1293700Y1155413D01*
X1293783Y1155524D01*
X1293857Y1155653D01*
X1293931Y1155810D01*
X1293959Y1155894D01*
X1293977Y1155986D01*
X1293996Y1156078D01*
Y1156180D01*
Y1156189D01*
Y1156199D01*
X1293987Y1156263D01*
X1293940Y1156485D01*
X1293894Y1156633D01*
X1293811Y1156781D01*
X1293709Y1156929D01*
X1293561Y1157077D01*
X1293543Y1157095D01*
X1293478Y1157132D01*
X1293386Y1157188D01*
X1293247Y1157253D01*
X1293062Y1157327D01*
X1292849Y1157382D01*
X1292729Y1157401D01*
X1292590Y1157419D01*
X1292452Y1157428D01*
X1292295Y1157438D01*
D02*
G37*
G36*
X1292664Y1152380D02*
Y1149782D01*
X1292988Y1149838D01*
X1293275Y1149930D01*
X1293413Y1150004D01*
X1293534Y1150087D01*
X1293607Y1150152D01*
X1293681Y1150235D01*
X1293765Y1150346D01*
X1293811Y1150411D01*
X1293848Y1150485D01*
X1293922Y1150651D01*
X1293950Y1150744D01*
X1293977Y1150845D01*
X1293996Y1150947D01*
Y1151058D01*
Y1151067D01*
Y1151086D01*
X1293987Y1151151D01*
X1293950Y1151373D01*
X1293839Y1151678D01*
X1293746Y1151825D01*
X1293626Y1151973D01*
X1293607Y1151992D01*
X1293561Y1152029D01*
X1293478Y1152094D01*
X1293367Y1152158D01*
X1293238Y1152232D01*
X1293071Y1152297D01*
X1292877Y1152353D01*
X1292664Y1152380D01*
D02*
G37*
G36*
X1295540Y1188789D02*
X1293256D01*
Y1187144D01*
X1293265Y1187005D01*
X1293293Y1186691D01*
X1293386Y1186302D01*
X1293460Y1186127D01*
X1293561Y1185979D01*
X1293617Y1185923D01*
X1293691Y1185868D01*
X1293783Y1185803D01*
X1293903Y1185738D01*
X1294051Y1185683D01*
X1294135Y1185655D01*
X1294218Y1185646D01*
X1294412Y1185627D01*
X1294652Y1185655D01*
X1294874Y1185711D01*
X1294985Y1185766D01*
X1295096Y1185831D01*
X1295142Y1185868D01*
X1295253Y1185969D01*
X1295318Y1186053D01*
X1295373Y1186145D01*
X1295429Y1186247D01*
X1295475Y1186367D01*
Y1186376D01*
X1295484Y1186413D01*
X1295512Y1186543D01*
X1295531Y1186792D01*
X1295540Y1186959D01*
Y1187162D01*
Y1188789D01*
D02*
G37*
G36*
X1292211Y1162402D02*
X1292175D01*
X1292063Y1162393D01*
X1291712Y1162356D01*
X1291499Y1162310D01*
X1291278Y1162245D01*
X1291065Y1162153D01*
X1290880Y1162033D01*
X1290815Y1161968D01*
X1290741Y1161885D01*
X1290667Y1161783D01*
X1290584Y1161644D01*
X1290510Y1161496D01*
X1290464Y1161330D01*
X1290455Y1161237D01*
X1290446Y1161145D01*
X1290455Y1161062D01*
X1290501Y1160840D01*
X1290621Y1160553D01*
X1290723Y1160405D01*
X1290862Y1160267D01*
X1290945Y1160211D01*
X1291046Y1160146D01*
X1291185Y1160082D01*
X1291268Y1160045D01*
X1291361Y1160017D01*
X1291583Y1159952D01*
X1291712Y1159934D01*
X1291842Y1159915D01*
X1291989Y1159897D01*
X1292147D01*
X1292304Y1159906D01*
X1292683Y1159943D01*
X1293136Y1160054D01*
X1293358Y1160146D01*
X1293543Y1160267D01*
X1293617Y1160331D01*
X1293691Y1160415D01*
X1293728Y1160461D01*
X1293774Y1160516D01*
X1293857Y1160646D01*
X1293922Y1160803D01*
X1293959Y1160886D01*
X1293977Y1160979D01*
X1293996Y1161071D01*
Y1161173D01*
Y1161182D01*
Y1161191D01*
X1293987Y1161256D01*
X1293940Y1161478D01*
X1293894Y1161617D01*
X1293811Y1161765D01*
X1293709Y1161913D01*
X1293635Y1161986D01*
X1293561Y1162051D01*
X1293543Y1162070D01*
X1293478Y1162107D01*
X1293376Y1162162D01*
X1293238Y1162227D01*
X1293044Y1162291D01*
X1292933Y1162319D01*
X1292812Y1162347D01*
X1292535Y1162384D01*
X1292378Y1162393D01*
X1292211Y1162402D01*
D02*
G37*
G36*
X1295540Y1176410D02*
X1293617D01*
Y1175032D01*
X1293626Y1174718D01*
X1293681Y1174228D01*
X1293765Y1174043D01*
X1293857Y1173885D01*
X1293931Y1173802D01*
X1294005Y1173738D01*
X1294042Y1173710D01*
X1294162Y1173654D01*
X1294329Y1173599D01*
X1294440Y1173580D01*
X1294560Y1173571D01*
X1294745Y1173590D01*
X1294930Y1173636D01*
X1295115Y1173728D01*
X1295152Y1173756D01*
X1295244Y1173839D01*
X1295300Y1173904D01*
X1295355Y1173978D01*
X1295410Y1174070D01*
X1295447Y1174172D01*
X1295457Y1174181D01*
X1295466Y1174228D01*
X1295494Y1174394D01*
X1295512Y1174523D01*
X1295521Y1174690D01*
X1295540Y1174893D01*
Y1175134D01*
Y1176410D01*
D02*
G37*
G36*
X1292859D02*
X1290658D01*
Y1174819D01*
X1290686Y1174237D01*
X1290723Y1174070D01*
X1290778Y1173913D01*
X1290852Y1173756D01*
X1290945Y1173636D01*
X1291000Y1173580D01*
X1291056Y1173525D01*
X1291130Y1173479D01*
X1291213Y1173423D01*
X1291250Y1173405D01*
X1291370Y1173359D01*
X1291537Y1173312D01*
X1291647Y1173303D01*
X1291758Y1173294D01*
X1291971Y1173322D01*
X1292165Y1173377D01*
X1292369Y1173488D01*
X1292415Y1173525D01*
X1292516Y1173617D01*
X1292646Y1173784D01*
X1292702Y1173885D01*
X1292748Y1174006D01*
X1292757Y1174024D01*
X1292766Y1174061D01*
X1292803Y1174246D01*
X1292840Y1174533D01*
X1292859Y1174727D01*
Y1174939D01*
Y1176410D01*
D02*
G37*
%LPD*%
D17*
X1286900Y1130640D02*
Y1210640D01*
D76*
X1579250Y1170500D02*
Y1175500D01*
X1576750Y1173000D02*
X1581750D01*
X1580000Y1190000D02*
Y1195000D01*
X1577500Y1192500D02*
X1582500D01*
X1644750Y1189500D02*
X1654750D01*
X1649750Y1184500D02*
Y1194500D01*
X1366330Y1162090D02*
X1374330D01*
X1370330Y1158090D02*
Y1166090D01*
X1366330Y1206500D02*
X1374330D01*
X1370330Y1202500D02*
Y1210500D01*
X1301500Y1246750D02*
X1306500D01*
X1304000Y1244250D02*
Y1249250D01*
X1342500Y1109250D02*
Y1114250D01*
X1340000Y1111750D02*
X1345000D01*
X1333250Y1227000D02*
X1341250D01*
X1337250Y1223000D02*
Y1231000D01*
X1590500Y1210000D02*
Y1215000D01*
X1588000Y1212500D02*
X1593000D01*
X1678000Y1274000D02*
X1683000D01*
X1680500Y1271500D02*
Y1276500D01*
X1300250Y1263500D02*
X1309750D01*
X1305000Y1258750D02*
Y1268250D01*
X1309250Y1112750D02*
X1318750D01*
X1314000Y1108000D02*
Y1117500D01*
X1333250Y1264500D02*
X1341250D01*
X1337250Y1260500D02*
Y1268500D01*
X1738080Y1143430D02*
X1743080D01*
X1740580Y1140930D02*
Y1145930D01*
X1588500Y1170500D02*
Y1175500D01*
X1586000Y1173000D02*
X1591000D01*
X1643000Y1263000D02*
Y1268000D01*
X1640500Y1265500D02*
X1645500D01*
X1511750Y1189750D02*
Y1197750D01*
X1507750Y1193750D02*
X1515750D01*
X1511750Y1158500D02*
Y1166500D01*
X1507750Y1162500D02*
X1515750D01*
X1481000Y1207750D02*
Y1217750D01*
X1476000Y1212750D02*
X1486000D01*
X1481000Y1155250D02*
Y1165250D01*
X1476000Y1160250D02*
X1486000D01*
X1485000Y1247500D02*
Y1257500D01*
X1480000Y1252500D02*
X1490000D01*
X1478280Y1127800D02*
Y1132800D01*
X1475780Y1130300D02*
X1480780D01*
X1520190Y1127800D02*
Y1132800D01*
X1517690Y1130300D02*
X1522690D01*
X1576070Y1127800D02*
Y1132800D01*
X1573570Y1130300D02*
X1578570D01*
X1697990Y1127800D02*
Y1132800D01*
X1695490Y1130300D02*
X1700490D01*
X1740080Y1229280D02*
Y1234280D01*
X1737580Y1231780D02*
X1742580D01*
X1740580Y1152080D02*
Y1157080D01*
X1738080Y1154580D02*
X1743080D01*
X1740080Y1218130D02*
Y1223130D01*
X1737580Y1220630D02*
X1742580D01*
D81*
X1574750Y1162000D02*
X1583750D01*
X1574750Y1184000D02*
X1583750D01*
Y1162000D02*
Y1184000D01*
X1574750Y1162000D02*
Y1184000D01*
X1575500Y1203500D02*
X1584500D01*
X1575500Y1181500D02*
X1584500D01*
X1575500D02*
Y1203500D01*
X1584500Y1181500D02*
Y1203500D01*
X1703000Y1136250D02*
Y1242750D01*
X1596500Y1136250D02*
Y1242750D01*
Y1136250D02*
X1703000D01*
X1596500Y1242750D02*
X1703000D01*
X1385830Y1154590D02*
Y1169590D01*
X1354830Y1154590D02*
Y1169590D01*
X1385830D01*
X1354830Y1154590D02*
X1385830D01*
Y1199000D02*
Y1214000D01*
X1354830Y1199000D02*
Y1214000D01*
X1385830D01*
X1354830Y1199000D02*
X1385830D01*
X1315000Y1242250D02*
Y1251250D01*
X1293000Y1242250D02*
Y1251250D01*
X1315000D01*
X1293000Y1242250D02*
X1315000D01*
X1338000Y1122750D02*
X1347000D01*
X1338000Y1100750D02*
X1347000D01*
X1338000D02*
Y1122750D01*
X1347000Y1100750D02*
Y1122750D01*
X1321750Y1219500D02*
Y1234500D01*
X1352750Y1219500D02*
Y1234500D01*
X1321750Y1219500D02*
X1352750D01*
X1321750Y1234500D02*
X1352750D01*
X1586000Y1201500D02*
X1595000D01*
X1586000Y1223500D02*
X1595000D01*
Y1201500D02*
Y1223500D01*
X1586000Y1201500D02*
Y1223500D01*
X1669500Y1269500D02*
Y1278500D01*
X1691500Y1269500D02*
Y1278500D01*
X1669500Y1269500D02*
X1691500D01*
X1669500Y1278500D02*
X1691500D01*
X1289500Y1256000D02*
Y1271000D01*
X1320500Y1256000D02*
Y1271000D01*
X1289500Y1256000D02*
X1320500D01*
X1289500Y1271000D02*
X1320500D01*
X1329500Y1105250D02*
Y1120250D01*
X1298500Y1105250D02*
Y1120250D01*
X1329500D01*
X1298500Y1105250D02*
X1329500D01*
X1352750Y1257000D02*
Y1272000D01*
X1321750Y1257000D02*
Y1272000D01*
X1352750D01*
X1321750Y1257000D02*
X1352750D01*
X1751580Y1138930D02*
Y1147930D01*
X1729580Y1138930D02*
Y1147930D01*
X1751580D01*
X1729580Y1138930D02*
X1751580D01*
X1584000Y1162000D02*
X1593000D01*
X1584000Y1184000D02*
X1593000D01*
Y1162000D02*
Y1184000D01*
X1584000Y1162000D02*
Y1184000D01*
X1638500Y1276500D02*
X1647500D01*
X1638500Y1254500D02*
X1647500D01*
X1638500D02*
Y1276500D01*
X1647500Y1254500D02*
Y1276500D01*
X1504250Y1178250D02*
X1519250D01*
X1504250Y1209250D02*
X1519250D01*
Y1178250D02*
Y1209250D01*
X1504250Y1178250D02*
Y1209250D01*
X1504250Y1178000D02*
X1519250D01*
X1504250Y1147000D02*
X1519250D01*
X1504250D02*
Y1178000D01*
X1519250Y1147000D02*
Y1178000D01*
X1459000Y1225750D02*
X1503000D01*
X1459000Y1199750D02*
X1503000D01*
Y1225750D01*
X1459000Y1199750D02*
Y1225750D01*
Y1173250D02*
X1503000D01*
X1459000Y1147250D02*
X1503000D01*
Y1173250D01*
X1459000Y1147250D02*
Y1173250D01*
X1463750Y1233750D02*
X1506250D01*
X1463750Y1271250D02*
X1506250D01*
Y1233750D02*
Y1271250D01*
X1463750Y1233750D02*
Y1271250D01*
X1467280Y1125800D02*
X1489280D01*
X1467280Y1134800D02*
X1489280D01*
X1467280Y1125800D02*
Y1134800D01*
X1489280Y1125800D02*
Y1134800D01*
X1509190Y1125800D02*
X1531190D01*
X1509190Y1134800D02*
X1531190D01*
X1509190Y1125800D02*
Y1134800D01*
X1531190Y1125800D02*
Y1134800D01*
X1565070Y1125800D02*
X1587070D01*
X1565070Y1134800D02*
X1587070D01*
X1565070Y1125800D02*
Y1134800D01*
X1587070Y1125800D02*
Y1134800D01*
X1686990Y1125800D02*
X1708990D01*
X1686990Y1134800D02*
X1708990D01*
X1686990Y1125800D02*
Y1134800D01*
X1708990Y1125800D02*
Y1134800D01*
X1729080Y1236280D02*
X1751080D01*
X1729080Y1227280D02*
X1751080D01*
Y1236280D01*
X1729080Y1227280D02*
Y1236280D01*
X1729580Y1159080D02*
X1751580D01*
X1729580Y1150080D02*
X1751580D01*
Y1159080D01*
X1729580Y1150080D02*
Y1159080D01*
X1729080Y1216130D02*
X1751080D01*
X1729080Y1225130D02*
X1751080D01*
X1729080Y1216130D02*
Y1225130D01*
X1751080Y1216130D02*
Y1225130D01*
M02*
