%FSLAX44Y44*%
%MOMM*%
G71*
G01*
G75*
G04 Layer_Physical_Order=3*
G04 Layer_Color=16440176*
%ADD10R,1.3000X0.4500*%
%ADD11R,2.7940X0.7366*%
%ADD12R,0.5000X0.2000*%
%ADD13R,0.7620X0.7620*%
%ADD14R,0.3000X0.3000*%
%ADD15R,0.7620X0.7620*%
%ADD16R,0.6200X0.5700*%
%ADD17C,0.1500*%
%ADD18C,0.2540*%
%ADD19R,1.5240X1.5240*%
%ADD20C,1.5240*%
%ADD21C,0.8000*%
%ADD22O,1.8000X1.1500*%
%ADD23O,2.0000X1.4500*%
%ADD24R,1.8000X1.8000*%
%ADD25C,1.8000*%
%ADD26C,0.6100*%
%ADD27C,0.6000*%
%ADD28C,3.3000*%
D17*
X1418000Y1182250D02*
X1461000D01*
X1411054Y1189196D02*
Y1207202D01*
Y1189196D02*
X1418000Y1182250D01*
D18*
X1427281Y1207469D02*
X1442719D01*
X1422250Y1212500D02*
X1427281Y1207469D01*
X1415834Y1221062D02*
X1428250Y1233478D01*
X1479000Y1205000D02*
X1487250Y1196750D01*
X1479000Y1205000D02*
Y1211250D01*
X1457250Y1167250D02*
X1477750D01*
X1680345Y1132250D02*
X1692435Y1144340D01*
X1685456Y1142750D02*
X1695956Y1153250D01*
X1696250D01*
X1692435Y1144340D02*
X1696840D01*
X1590500Y1142750D02*
X1685456D01*
X1738650Y1130965D02*
X1739935Y1132250D01*
X1733879Y1130965D02*
X1738650D01*
X1732594Y1132250D02*
X1733879Y1130965D01*
X1739935Y1132250D02*
X1767750D01*
X1736306Y1136555D02*
X1736335D01*
X1736250Y1136500D02*
X1736306Y1136555D01*
X1705160Y1129660D02*
X1713565D01*
X1668000Y1092500D02*
X1705160Y1129660D01*
X1716155Y1132250D02*
X1732594D01*
X1713565Y1129660D02*
X1716155Y1132250D01*
X1767750D02*
X1770000Y1130000D01*
X1582750Y1092500D02*
X1668000D01*
X1706435Y1161840D02*
X1713090D01*
X1697845Y1153250D02*
X1706435Y1161840D01*
X1696250Y1153250D02*
X1697845D01*
X1713090Y1161840D02*
X1723000Y1171750D01*
Y1192000D01*
X1734750Y1203750D01*
X1736250Y1183845D02*
X1740840Y1188435D01*
X1736250Y1136500D02*
Y1183845D01*
X1740840Y1188435D02*
Y1208410D01*
X1737500Y1211750D02*
X1740840Y1208410D01*
X1732750Y1211750D02*
X1737500D01*
X1733250Y1224250D02*
X1752175Y1205325D01*
X1745815Y1183410D02*
X1748843D01*
X1752175Y1186743D02*
Y1205325D01*
X1748843Y1183410D02*
X1752175Y1186743D01*
X1702500Y1224250D02*
X1733250D01*
X1733590Y1234910D02*
X1757500Y1211000D01*
X1588590Y1234910D02*
X1733590D01*
X1757500Y1182500D02*
Y1211000D01*
X1744500Y1182095D02*
X1745815Y1183410D01*
X1744500Y1172250D02*
Y1182095D01*
X1580500Y1243000D02*
X1588590Y1234910D01*
X1744500Y1172250D02*
X1744750Y1172000D01*
X1616584Y1215470D02*
X1619764Y1218649D01*
X1560530Y1215470D02*
X1616584D01*
X1619764Y1218649D02*
X1696899D01*
X1702500Y1224250D01*
X1553250Y1222750D02*
X1560530Y1215470D01*
X1521500Y1222750D02*
X1553250D01*
X1487250Y1196750D02*
X1501250D01*
X1453750Y1153282D02*
Y1163750D01*
Y1153282D02*
X1456911Y1150121D01*
Y1145491D02*
Y1150121D01*
X1453750Y1142330D02*
X1456911Y1145491D01*
X1453750Y1126750D02*
Y1142330D01*
Y1163750D02*
X1457250Y1167250D01*
X1677500Y1132250D02*
X1680345D01*
X1696840Y1144340D02*
X1708750Y1156250D01*
X1669090Y1113090D02*
X1694750Y1138750D01*
X1712500Y1136500D02*
X1736250D01*
X1707250Y1139250D02*
X1711250Y1135250D01*
X1695250Y1139250D02*
X1707250D01*
X1663185Y1113090D02*
X1669090D01*
X1672500Y1132250D02*
X1677500D01*
X1645000Y1104750D02*
X1672500Y1132250D01*
X1637000Y1104750D02*
X1645000D01*
X1629040Y1112710D02*
X1637000Y1104750D01*
X1629040Y1112710D02*
Y1123387D01*
X1617887Y1134540D02*
X1629040Y1123387D01*
X1602113Y1134540D02*
X1617887D01*
X1592323Y1124750D02*
X1602113Y1134540D01*
X1565000Y1124750D02*
X1592323D01*
X1646405Y1096310D02*
X1663185Y1113090D01*
X1592035Y1096310D02*
X1646405D01*
X1574250Y1101000D02*
X1582750Y1092500D01*
X1560035Y1119785D02*
X1565000Y1124750D01*
X1547688Y1119785D02*
X1560035D01*
X1561613Y1115975D02*
X1563678Y1118040D01*
X1546110Y1115975D02*
X1561613D01*
X1477350Y1121850D02*
X1545623D01*
X1476750Y1121250D02*
X1477350Y1121850D01*
X1534165Y1112750D02*
X1539455Y1118040D01*
X1545623Y1121850D02*
X1547688Y1119785D01*
X1544045Y1118040D02*
X1546110Y1115975D01*
X1539455Y1118040D02*
X1544045D01*
X1563678D02*
X1570305D01*
X1459250Y1121250D02*
X1476750D01*
X1453750Y1126750D02*
X1459250Y1121250D01*
X1479750Y1155250D02*
X1494250D01*
X1452250Y1120750D02*
X1461000Y1112000D01*
X1426000Y1120750D02*
X1452250D01*
X1355500Y1224250D02*
X1376250Y1245000D01*
X1355500Y1223750D02*
Y1224250D01*
X1355440Y1223690D02*
X1355500Y1223750D01*
X1325860Y1174255D02*
X1355440Y1203835D01*
X1325860Y1111140D02*
Y1174255D01*
X1355440Y1203835D02*
Y1223690D01*
X1325860Y1111140D02*
X1343400Y1093600D01*
X1309624Y1239000D02*
X1337500D01*
X1446410Y1097410D02*
X1461000Y1112000D01*
X1350590Y1097410D02*
X1446410D01*
X1344500Y1103500D02*
X1350590Y1097410D01*
X1343400Y1093600D02*
X1451100D01*
X1459540Y1102040D01*
X1470045D01*
X1472175Y1099910D01*
X1555065D01*
X1556156Y1101000D01*
X1574250D01*
X1385250Y1107500D02*
X1393000Y1115250D01*
X1352250Y1107500D02*
X1385250D01*
X1570305Y1118040D02*
X1592035Y1096310D01*
X1461000Y1112000D02*
X1477000D01*
X1507750D01*
X1508500Y1112750D02*
X1534165D01*
X1770000Y1130000D02*
X1790000D01*
X1479000Y1211250D02*
X1503750Y1236000D01*
X1477500Y1211250D02*
X1479000D01*
X1503750Y1236000D02*
Y1263500D01*
X1694750Y1138750D02*
X1695250Y1139250D01*
X1711250Y1135250D02*
X1712500Y1136500D01*
X1736250D02*
X1756500D01*
X1770000Y1150000D01*
X1790000D01*
X1403938Y1221062D02*
X1415834D01*
X1398000Y1227000D02*
X1403938Y1221062D01*
X1369250Y1227000D02*
X1398000D01*
X1363250Y1217000D02*
Y1221000D01*
X1369250Y1227000D01*
X1428250Y1233478D02*
Y1233500D01*
X1344500Y1103500D02*
Y1118000D01*
X1350500Y1124000D01*
X1357000D01*
X1363000Y1130000D01*
Y1144500D01*
X1442719Y1207469D02*
X1446750Y1211500D01*
X1422250Y1212500D02*
Y1219240D01*
X1446750Y1211500D02*
X1477250D01*
X1422250Y1219240D02*
X1427320Y1224310D01*
X1460750Y1139750D02*
X1475250D01*
X1479750Y1144250D01*
X1507750Y1112000D02*
X1508500Y1112750D01*
X1363000Y1144500D02*
X1363250Y1144750D01*
Y1217000D01*
X1501250Y1162250D02*
X1512250Y1151250D01*
X1598750D01*
X1757500Y1182500D02*
X1770000Y1170000D01*
X1790000D01*
X1580500Y1243000D02*
Y1254000D01*
X1570750Y1263750D02*
X1580500Y1254000D01*
X1503500Y1263750D02*
X1570750D01*
X1503500D02*
X1503750Y1263500D01*
X1479750Y1144250D02*
Y1155250D01*
X1501250Y1162250D02*
Y1196750D01*
X1494250Y1155250D02*
X1501250Y1162250D01*
X1477250Y1211500D02*
X1477500Y1211250D01*
X1393000Y1115250D02*
Y1190500D01*
X1294813Y1253811D02*
X1309624Y1239000D01*
D20*
X1770000Y1170000D02*
D03*
X1790000D02*
D03*
X1770000Y1150000D02*
D03*
X1790000D02*
D03*
X1770000Y1130000D02*
D03*
X1790000D02*
D03*
D25*
X1411054Y1207202D02*
D03*
D26*
X1427320Y1224310D02*
D03*
X1477750Y1167250D02*
D03*
X1736335Y1136555D02*
D03*
X1734750Y1203750D02*
D03*
X1696250Y1153250D02*
D03*
X1744750Y1172000D02*
D03*
X1702500Y1224250D02*
D03*
X1521500Y1222750D02*
D03*
X1694750Y1138750D02*
D03*
X1677500Y1132250D02*
D03*
X1708750Y1156250D02*
D03*
X1645000Y1104750D02*
D03*
X1476750Y1121250D02*
D03*
X1461000Y1182250D02*
D03*
X1376250Y1245000D02*
D03*
X1711250Y1135250D02*
D03*
X1732750Y1211750D02*
D03*
X1428250Y1233500D02*
D03*
X1426000Y1120750D02*
D03*
X1508500Y1112750D02*
D03*
X1477000Y1112000D02*
D03*
X1363250Y1217000D02*
D03*
X1363000Y1144500D02*
D03*
X1598750Y1151250D02*
D03*
X1503500Y1263750D02*
D03*
X1580500Y1243000D02*
D03*
X1460750Y1139750D02*
D03*
X1479750Y1155250D02*
D03*
X1501250Y1196750D02*
D03*
X1477500Y1211250D02*
D03*
X1352250Y1107500D02*
D03*
X1393000Y1190500D02*
D03*
X1590500Y1142750D02*
D03*
X1294813Y1253811D02*
D03*
X1337500Y1239000D02*
D03*
D27*
X1565000Y1124750D02*
D03*
M02*
