%FSLAX44Y44*%
%MOMM*%
G71*
G01*
G75*
G04 Layer_Color=16711935*
%ADD10R,1.3000X0.4500*%
%ADD11R,2.7940X0.7366*%
%ADD12R,0.5000X0.2000*%
%ADD13R,0.7620X0.7620*%
%ADD14R,0.3000X0.3000*%
%ADD15R,0.7620X0.7620*%
%ADD16R,0.6200X0.5700*%
%ADD17C,0.1500*%
%ADD18C,0.2540*%
%ADD19R,1.5240X1.5240*%
%ADD20C,1.5240*%
%ADD21C,0.8000*%
%ADD22O,1.8000X1.1500*%
%ADD23O,2.0000X1.4500*%
%ADD24R,1.8000X1.8000*%
%ADD25C,1.8000*%
%ADD26C,0.6100*%
%ADD27C,0.6000*%
%ADD28R,0.5700X0.6200*%
%ADD29R,0.6000X0.5500*%
%ADD30R,1.4000X2.2000*%
%ADD31O,1.7500X0.3500*%
%ADD32O,0.3500X1.7500*%
%ADD33R,0.8500X0.3500*%
%ADD34R,0.9500X0.9500*%
%ADD35R,0.5500X0.6000*%
%ADD36R,0.9700X0.9600*%
%ADD37R,0.9500X0.9500*%
%ADD38R,1.2500X0.3000*%
%ADD39O,0.3000X0.8000*%
%ADD40O,0.8000X0.3000*%
%ADD41R,1.5000X1.0000*%
%ADD42C,3.3000*%
%ADD43C,0.4000*%
%ADD44C,0.2286*%
%ADD45C,0.1778*%
%ADD46R,1.5032X0.6532*%
%ADD47R,2.8956X0.8382*%
%ADD48R,0.7032X0.4032*%
%ADD49R,0.9652X0.9652*%
%ADD50R,0.5032X0.5032*%
%ADD51R,0.9652X0.9652*%
%ADD52R,0.8232X0.7732*%
%ADD53C,0.2032*%
%ADD54R,1.7272X1.7272*%
%ADD55C,1.7272*%
%ADD56C,1.0032*%
%ADD57O,2.0032X1.3532*%
%ADD58O,2.2032X1.6532*%
%ADD59R,2.0032X2.0032*%
%ADD60C,2.0032*%
%ADD61R,0.7732X0.8232*%
%ADD62R,0.8032X0.7532*%
%ADD63R,1.6032X2.4032*%
%ADD64O,1.9532X0.5532*%
%ADD65O,0.5532X1.9532*%
%ADD66R,1.0532X0.5532*%
%ADD67R,1.1532X1.1532*%
%ADD68R,0.7532X0.8032*%
%ADD69R,1.1732X1.1632*%
%ADD70R,1.1532X1.1532*%
%ADD71R,1.4532X0.5032*%
%ADD72O,0.5032X1.0032*%
%ADD73O,1.0032X0.5032*%
%ADD74R,1.7032X1.2032*%
%ADD75C,3.5032*%
%ADD76C,0.1000*%
%ADD77C,0.6000*%
%ADD78C,0.2500*%
%ADD79C,0.2000*%
%ADD80C,0.1270*%
%ADD81C,0.0500*%
D17*
X1346900Y1130640D02*
Y1210640D01*
X1280900Y1130640D02*
X1346900D01*
X1280900D02*
Y1210640D01*
X1346900D01*
D76*
X1627250Y1217000D02*
G03*
X1627250Y1217000I-5000J0D01*
G01*
X1481000Y1210250D02*
G03*
X1481000Y1210250I-4000J0D01*
G01*
Y1157750D02*
G03*
X1481000Y1157750I-4000J0D01*
G01*
X1496500Y1248500D02*
G03*
X1496500Y1248500I-5000J0D01*
G01*
X1299290Y1238210D02*
X1309290D01*
Y1233210D02*
Y1238210D01*
X1299290Y1233210D02*
X1309290D01*
X1299290D02*
Y1238210D01*
X1580500Y1149250D02*
X1590500D01*
X1580500D02*
Y1154250D01*
X1590500D01*
Y1149250D02*
Y1154250D01*
X1576750Y1168000D02*
X1581750D01*
X1576750Y1178000D02*
X1581750D01*
Y1168000D02*
Y1178000D01*
X1576750Y1168000D02*
Y1178000D01*
X1577500Y1197500D02*
X1582500D01*
X1577500Y1187500D02*
X1582500D01*
X1577500D02*
Y1197500D01*
X1582500Y1187500D02*
Y1197500D01*
X1686250Y1153000D02*
Y1226000D01*
X1613250Y1153000D02*
Y1226000D01*
Y1153000D02*
X1686250D01*
X1613250Y1226000D02*
X1686250D01*
X1378330Y1158090D02*
Y1166090D01*
X1362330Y1158090D02*
Y1166090D01*
X1378330D01*
X1362330Y1158090D02*
X1378330D01*
Y1202500D02*
Y1210500D01*
X1362330Y1202500D02*
Y1210500D01*
X1378330D01*
X1362330Y1202500D02*
X1378330D01*
X1309000Y1244250D02*
Y1249250D01*
X1299000Y1244250D02*
Y1249250D01*
X1309000D01*
X1299000Y1244250D02*
X1309000D01*
X1340000Y1116750D02*
X1345000D01*
X1340000Y1106750D02*
X1345000D01*
X1340000D02*
Y1116750D01*
X1345000Y1106750D02*
Y1116750D01*
X1329250Y1223000D02*
Y1231000D01*
X1345250Y1223000D02*
Y1231000D01*
X1329250Y1223000D02*
X1345250D01*
X1329250Y1231000D02*
X1345250D01*
X1588000Y1207500D02*
X1593000D01*
X1588000Y1217500D02*
X1593000D01*
Y1207500D02*
Y1217500D01*
X1588000Y1207500D02*
Y1217500D01*
X1675500Y1271500D02*
Y1276500D01*
X1685500Y1271500D02*
Y1276500D01*
X1675500Y1271500D02*
X1685500D01*
X1675500Y1276500D02*
X1685500D01*
X1296250Y1258750D02*
Y1268250D01*
X1313750Y1258750D02*
Y1268250D01*
X1296250Y1258750D02*
X1313750D01*
X1296250Y1268250D02*
X1313750D01*
X1322750Y1108000D02*
Y1117500D01*
X1305250Y1108000D02*
Y1117500D01*
X1322750D01*
X1305250Y1108000D02*
X1322750D01*
X1582750Y1207250D02*
Y1217250D01*
X1577750Y1207250D02*
X1582750D01*
X1577750D02*
Y1217250D01*
X1582750D01*
X1635500Y1251250D02*
Y1261250D01*
X1630500Y1251250D02*
X1635500D01*
X1630500D02*
Y1261250D01*
X1635500D01*
X1345250Y1260500D02*
Y1268500D01*
X1329250Y1260500D02*
Y1268500D01*
X1345250D01*
X1329250Y1260500D02*
X1345250D01*
X1745580Y1140930D02*
Y1145930D01*
X1735580Y1140930D02*
Y1145930D01*
X1745580D01*
X1735580Y1140930D02*
X1745580D01*
X1586000Y1168000D02*
X1591000D01*
X1586000Y1178000D02*
X1591000D01*
Y1168000D02*
Y1178000D01*
X1586000Y1168000D02*
Y1178000D01*
X1640500Y1270500D02*
X1645500D01*
X1640500Y1260500D02*
X1645500D01*
X1640500D02*
Y1270500D01*
X1645500Y1260500D02*
Y1270500D01*
X1507750Y1185750D02*
X1515750D01*
X1507750Y1201750D02*
X1515750D01*
Y1185750D02*
Y1201750D01*
X1507750Y1185750D02*
Y1201750D01*
Y1170500D02*
X1515750D01*
X1507750Y1154500D02*
X1515750D01*
X1507750D02*
Y1170500D01*
X1515750Y1154500D02*
Y1170500D01*
X1671980Y1116050D02*
Y1126050D01*
X1666980Y1116050D02*
X1671980D01*
X1666980D02*
Y1126050D01*
X1671980D01*
X1663230Y1116050D02*
Y1126050D01*
X1658230Y1116050D02*
X1663230D01*
X1658230D02*
Y1126050D01*
X1663230D01*
X1682250Y1251250D02*
Y1261250D01*
X1687250D01*
Y1251250D02*
Y1261250D01*
X1682250Y1251250D02*
X1687250D01*
X1672750D02*
Y1261250D01*
X1677750D01*
Y1251250D02*
Y1261250D01*
X1672750Y1251250D02*
X1677750D01*
X1469000Y1223250D02*
X1493000D01*
X1469000Y1202250D02*
X1493000D01*
Y1223250D01*
X1469000Y1202250D02*
Y1223250D01*
Y1170750D02*
X1493000D01*
X1469000Y1149750D02*
X1493000D01*
Y1170750D01*
X1469000Y1149750D02*
Y1170750D01*
X1467500Y1196750D02*
X1472500D01*
X1467500Y1186750D02*
Y1196750D01*
Y1186750D02*
X1472500D01*
Y1196750D01*
X1486333D02*
X1491333D01*
X1486333Y1186750D02*
Y1196750D01*
Y1186750D02*
X1491333D01*
Y1196750D01*
X1495750Y1177000D02*
X1500750D01*
Y1187000D01*
X1495750D02*
X1500750D01*
X1495750Y1177000D02*
Y1187000D01*
X1476917Y1177000D02*
X1481917D01*
Y1187000D01*
X1476917D02*
X1481917D01*
X1476917Y1177000D02*
Y1187000D01*
X1440000Y1153250D02*
Y1158250D01*
Y1153250D02*
X1450000D01*
Y1158250D01*
X1440000D02*
X1450000D01*
X1440000Y1216000D02*
Y1221000D01*
Y1216000D02*
X1450000D01*
Y1221000D01*
X1440000D02*
X1450000D01*
X1440000Y1265750D02*
Y1270750D01*
Y1265750D02*
X1450000D01*
Y1270750D01*
X1440000D02*
X1450000D01*
X1440000Y1241000D02*
Y1246000D01*
Y1241000D02*
X1450000D01*
Y1246000D01*
X1440000D02*
X1450000D01*
X1440000Y1101000D02*
Y1106000D01*
Y1101000D02*
X1450000D01*
Y1106000D01*
X1440000D02*
X1450000D01*
X1440000Y1126250D02*
Y1131250D01*
Y1126250D02*
X1450000D01*
Y1131250D01*
X1440000D02*
X1450000D01*
X1469500Y1239500D02*
X1500500D01*
X1469500Y1265500D02*
X1500500D01*
Y1239500D02*
Y1265500D01*
X1469500Y1239500D02*
Y1265500D01*
X1473280Y1127800D02*
X1483280D01*
X1473280Y1132800D02*
X1483280D01*
X1473280Y1127800D02*
Y1132800D01*
X1483280Y1127800D02*
Y1132800D01*
X1515190Y1127800D02*
X1525190D01*
X1515190Y1132800D02*
X1525190D01*
X1515190Y1127800D02*
Y1132800D01*
X1525190Y1127800D02*
Y1132800D01*
X1571070Y1127800D02*
X1581070D01*
X1571070Y1132800D02*
X1581070D01*
X1571070Y1127800D02*
Y1132800D01*
X1581070Y1127800D02*
Y1132800D01*
X1692990Y1127800D02*
X1702990D01*
X1692990Y1132800D02*
X1702990D01*
X1692990Y1127800D02*
Y1132800D01*
X1702990Y1127800D02*
Y1132800D01*
X1735080Y1234280D02*
X1745080D01*
X1735080Y1229280D02*
X1745080D01*
Y1234280D01*
X1735080Y1229280D02*
Y1234280D01*
X1735580Y1157080D02*
X1745580D01*
X1735580Y1152080D02*
X1745580D01*
Y1157080D01*
X1735580Y1152080D02*
Y1157080D01*
X1735080Y1218130D02*
X1745080D01*
X1735080Y1223130D02*
X1745080D01*
X1735080Y1218130D02*
Y1223130D01*
X1745080Y1218130D02*
Y1223130D01*
X1372750Y1156250D02*
Y1166250D01*
Y1156250D02*
X1377750D01*
Y1166250D01*
X1372750D02*
X1377750D01*
X1814589Y1081053D02*
X1819589D01*
X1814589D02*
Y1091053D01*
X1819589D01*
Y1081053D02*
Y1091053D01*
X1873091Y1081053D02*
X1878091D01*
X1873091D02*
Y1091053D01*
X1878091D01*
Y1081053D02*
Y1091053D01*
X1814589Y1081053D02*
X1819589D01*
X1814589D02*
Y1091053D01*
X1819589D01*
Y1081053D02*
Y1091053D01*
D79*
X1287000Y1284750D02*
X1800000D01*
Y1084250D02*
Y1284750D01*
X1287000Y1084250D02*
X1800000D01*
X1287000D02*
Y1284750D01*
M02*
