M48
;Layer_Color=9474304
;FILE_FORMAT=2:5
INCH,LZ
;TYPE=PLATED
T1F00S00C0.01181
T4F00S00C0.04016
T5F00S00C0.05118
T6F00S00C0.08661
;TYPE=NON_PLATED
T7F00S00C0.03150
%
T01
X0532382Y0436024
X0532283Y043937
X0536614Y0450591
X0541929Y0451083
X0540551Y0462106
X0548425Y0468701
X0569291Y0462598
X0575197Y0465453
X057874Y0461909
X0581791Y0459547
X0582579Y0454823
X0584941Y0448524
X0588091Y044498
X0593012Y0448622
X0598032Y0450886
X06025Y0444055
X0606988Y0437992
X0611319Y0435236
X0615945Y0431004
X0616142Y0442815
X0621555Y0439961
X0593898Y0438091
X0581398Y0441437
X0576575Y0444095
X0575098Y0448721
X0571386Y0451892
X0562894Y0454823
X0563287Y044439
X0561417Y044124
X0563583Y0434252
X0577854Y0431693
X0586122Y0463189
X0611939Y0462424
X0611614Y0467028
X0640945Y0468638
X0642618Y0464665
X0643504Y0461122
X0643634Y0457995
X0639862Y045748
X0629429Y0453248
X0626181Y0449902
X0650492Y0434646
X0657874Y0435925
X0667421Y0437697
X0667224Y0448327
X0667815Y0454035
X0663976Y0454134
X0672474Y0459668
X0674508Y0463878
X0671457Y0468012
X0679331Y0456102
X0679277Y0453201
X0683596Y0447463
Y0444222
X0683465Y0440158
X0682874Y043563
X0689961Y0447539
X0690453Y0456693
X0691929Y046624
X0673721Y0446949
X0673622Y0470768
X0671686Y0481323
X0679331Y048376
X0683398Y0487729
X0688518Y0487425
X0681299Y0494783
X0674016Y0496752
X0668602Y0496457
X0667323Y0501378
X0657283Y0503051
X0655133Y0494587
X0652132
X0640354Y0503051
X0638614Y0477582
X0640976Y0471972
X0643405Y0474311
X0632874Y0482185
X0629035
X0682185Y0477067
X0682972Y0473917
X0699508Y0476083
X0619223Y0480732
X0622244Y048937
X059498Y0489567
X0591929Y0497539
X0584449Y0484646
X0581595Y048002
X0581693Y047687
X0575815Y0471086
X0565846Y047126
X056174Y0473153
X056302Y0477582
X0561937Y0482012
X0562303Y048563
X0563484Y0489567
X0563189Y0499409
X0575098Y0492028
X0577165Y0487894
X0576968Y0484646
X0595276Y0478346
X0599016Y0481398
X0591043Y0471161
X0542323Y0479331
X0536713Y0479134
X0535039Y0490256
X0541831Y0490158
X0534154Y0497736
X0526575Y0487795
X0522441Y0478937
X0516732Y0481988
X0511614Y0482972
X0509769Y0493626
X0513681Y0493898
X0515748Y0501968
T04
X0555533Y0438661
Y0448661
Y0458661
X0694193Y0461378
Y0451378
Y0441378
Y0431378
X0704193
Y0441378
Y0451378
Y0461378
Y0471378
X0694193
Y0481378
X0704193
Y0491378
X0694193
Y0501378
X0704193
X0555533Y0495276
Y0485277
Y0475277
T05
X0611221Y0444419
Y0490618
T06
X0633858Y0439173
Y0496063
T07
X0524567Y0451039
Y0470724
M30
