%FSLAX44Y44*%
%MOMM*%
G71*
G01*
G75*
G04 Layer_Color=32896*
%ADD10R,0.7620X0.7620*%
%ADD11R,0.5000X0.2000*%
%ADD12R,0.7620X0.7620*%
%ADD13R,0.3000X0.3000*%
%ADD14R,1.3000X0.4500*%
%ADD15R,2.7940X0.7366*%
%ADD16R,0.6200X0.5700*%
%ADD17C,0.1500*%
%ADD18C,0.2540*%
%ADD19C,0.1524*%
%ADD20C,0.2000*%
%ADD21O,2.0000X1.4500*%
%ADD22O,1.8000X1.1500*%
%ADD23C,0.8000*%
%ADD24C,1.8000*%
%ADD25R,1.8000X1.8000*%
%ADD26C,1.8000*%
%ADD27R,1.8000X1.8000*%
%ADD28C,0.6100*%
%ADD29C,0.6000*%
%ADD30R,0.6000X0.5500*%
%ADD31R,0.9500X0.9500*%
%ADD32R,0.5500X0.6000*%
%ADD33R,0.9500X0.9500*%
%ADD34R,0.8500X0.3500*%
%ADD35R,1.5000X1.0000*%
%ADD36O,0.8000X0.3000*%
%ADD37O,0.3000X0.8000*%
%ADD38R,1.2500X0.3000*%
%ADD39O,0.3500X1.7500*%
%ADD40O,1.7500X0.3500*%
%ADD41R,0.9700X0.9600*%
%ADD42R,0.5700X0.6200*%
%ADD43R,1.4000X2.2000*%
%ADD44C,0.2032*%
%ADD45C,3.3000*%
%ADD46C,0.4000*%
%ADD47C,0.2286*%
%ADD48C,0.1778*%
%ADD49R,0.9652X0.9652*%
%ADD50R,0.7032X0.4032*%
%ADD51R,0.9652X0.9652*%
%ADD52R,0.5032X0.5032*%
%ADD53R,1.5032X0.6532*%
%ADD54R,2.8956X0.8382*%
%ADD55R,0.8232X0.7732*%
%ADD56C,0.2032*%
%ADD57O,2.2032X1.6532*%
%ADD58O,2.0032X1.3532*%
%ADD59C,1.0032*%
%ADD60C,2.0032*%
%ADD61R,2.0032X2.0032*%
%ADD62C,2.0032*%
%ADD63R,2.0032X2.0032*%
%ADD64C,0.0100*%
%ADD65R,0.8032X0.7532*%
%ADD66R,1.1532X1.1532*%
%ADD67R,0.7532X0.8032*%
%ADD68R,1.1532X1.1532*%
%ADD69R,1.0532X0.5532*%
%ADD70R,1.7032X1.2032*%
%ADD71O,1.0032X0.5032*%
%ADD72O,0.5032X1.0032*%
%ADD73R,1.4532X0.5032*%
%ADD74O,0.5532X1.9532*%
%ADD75O,1.9532X0.5532*%
%ADD76R,1.1732X1.1632*%
%ADD77R,0.7732X0.8232*%
%ADD78R,1.6032X2.4032*%
%ADD79C,3.5032*%
%ADD80C,0.2500*%
%ADD81C,0.6000*%
%ADD82C,0.1000*%
D20*
X1468000Y1238000D02*
Y1244500D01*
Y1238000D02*
X1469500D01*
X1468000Y1260500D02*
Y1267000D01*
X1469500D01*
X1500500D02*
X1502000D01*
Y1260500D02*
Y1267000D01*
Y1238000D02*
Y1244500D01*
X1500500Y1238000D02*
X1502000D01*
X1474650Y1149750D02*
Y1170750D01*
X1487350Y1149750D02*
Y1170750D01*
X1474650Y1149750D02*
X1487350D01*
X1474650Y1170750D02*
X1487350D01*
X1474650Y1202250D02*
Y1223250D01*
X1487350Y1202250D02*
Y1223250D01*
X1474650Y1202250D02*
X1487350D01*
X1474650Y1223250D02*
X1487350D01*
X1620250Y1219000D02*
X1679250D01*
X1620250Y1160000D02*
X1679250D01*
X1620250D02*
Y1219000D01*
X1679250Y1160000D02*
Y1219000D01*
D48*
X1593750Y1163500D02*
Y1175250D01*
Y1163500D02*
X1599178Y1158072D01*
X1614896D01*
X1543645Y1235222D02*
X1545125Y1236701D01*
Y1254125D01*
X1620000Y1278750D02*
X1628000D01*
X1580250D02*
X1620000D01*
X1545125Y1254125D02*
X1547500Y1256500D01*
X1547750D01*
Y1256500D02*
Y1256500D01*
X1577000D01*
X1580250Y1259750D01*
Y1278750D01*
X1575348Y1265578D02*
X1576617Y1264309D01*
Y1261770D01*
X1575348Y1260500D01*
X1570270D01*
X1569000Y1261770D01*
Y1264309D01*
X1570270Y1265578D01*
X1569000Y1268118D02*
Y1270657D01*
Y1269387D01*
X1576617D01*
X1575348Y1268118D01*
X1569000Y1279544D02*
Y1274465D01*
X1574078Y1279544D01*
X1575348D01*
X1576617Y1278274D01*
Y1275735D01*
X1575348Y1274465D01*
X1565000Y1273000D02*
Y1280618D01*
X1561191D01*
X1559922Y1279348D01*
Y1276809D01*
X1561191Y1275539D01*
X1565000D01*
X1562461D02*
X1559922Y1273000D01*
X1552304D02*
X1557383D01*
X1552304Y1278078D01*
Y1279348D01*
X1553574Y1280618D01*
X1556113D01*
X1557383Y1279348D01*
X1544687Y1273000D02*
X1549765D01*
X1544687Y1278078D01*
Y1279348D01*
X1545956Y1280618D01*
X1548495D01*
X1549765Y1279348D01*
X1565000Y1260500D02*
Y1268118D01*
X1561191D01*
X1559922Y1266848D01*
Y1264309D01*
X1561191Y1263039D01*
X1565000D01*
X1562461D02*
X1559922Y1260500D01*
X1552304D02*
X1557383D01*
X1552304Y1265578D01*
Y1266848D01*
X1553574Y1268118D01*
X1556113D01*
X1557383Y1266848D01*
X1549765Y1260500D02*
X1547226D01*
X1548495D01*
Y1268118D01*
X1549765Y1266848D01*
X1583172Y1142098D02*
X1584441Y1143367D01*
X1586980D01*
X1588250Y1142098D01*
Y1137020D01*
X1586980Y1135750D01*
X1584441D01*
X1583172Y1137020D01*
X1580632Y1135750D02*
X1578093D01*
X1579363D01*
Y1143367D01*
X1580632Y1142098D01*
X1569206Y1143367D02*
X1574285D01*
Y1139559D01*
X1571745Y1140828D01*
X1570476D01*
X1569206Y1139559D01*
Y1137020D01*
X1570476Y1135750D01*
X1573015D01*
X1574285Y1137020D01*
X1704672Y1144348D02*
X1705941Y1145618D01*
X1708480D01*
X1709750Y1144348D01*
Y1139270D01*
X1708480Y1138000D01*
X1705941D01*
X1704672Y1139270D01*
X1702133Y1138000D02*
X1699593D01*
X1700863D01*
Y1145618D01*
X1702133Y1144348D01*
X1695784D02*
X1694515Y1145618D01*
X1691976D01*
X1690706Y1144348D01*
Y1143078D01*
X1691976Y1141809D01*
X1693245D01*
X1691976D01*
X1690706Y1140539D01*
Y1139270D01*
X1691976Y1138000D01*
X1694515D01*
X1695784Y1139270D01*
X1721172Y1156598D02*
X1722442Y1157868D01*
X1724981D01*
X1726250Y1156598D01*
Y1151520D01*
X1724981Y1150250D01*
X1722442D01*
X1721172Y1151520D01*
X1718633Y1150250D02*
X1716093D01*
X1717363D01*
Y1157868D01*
X1718633Y1156598D01*
X1712285D02*
X1711015Y1157868D01*
X1708476D01*
X1707206Y1156598D01*
Y1151520D01*
X1708476Y1150250D01*
X1711015D01*
X1712285Y1151520D01*
Y1156598D01*
X1723922Y1234348D02*
X1725191Y1235618D01*
X1727730D01*
X1729000Y1234348D01*
Y1229270D01*
X1727730Y1228000D01*
X1725191D01*
X1723922Y1229270D01*
X1721382D02*
X1720113Y1228000D01*
X1717574D01*
X1716304Y1229270D01*
Y1234348D01*
X1717574Y1235618D01*
X1720113D01*
X1721382Y1234348D01*
Y1233078D01*
X1720113Y1231809D01*
X1716304D01*
X1723922Y1221348D02*
X1725191Y1222617D01*
X1727730D01*
X1729000Y1221348D01*
Y1216270D01*
X1727730Y1215000D01*
X1725191D01*
X1723922Y1216270D01*
X1721382Y1221348D02*
X1720113Y1222617D01*
X1717574D01*
X1716304Y1221348D01*
Y1220078D01*
X1717574Y1218809D01*
X1716304Y1217539D01*
Y1216270D01*
X1717574Y1215000D01*
X1720113D01*
X1721382Y1216270D01*
Y1217539D01*
X1720113Y1218809D01*
X1721382Y1220078D01*
Y1221348D01*
X1720113Y1218809D02*
X1717574D01*
X1482922Y1142348D02*
X1484191Y1143617D01*
X1486730D01*
X1488000Y1142348D01*
Y1137270D01*
X1486730Y1136000D01*
X1484191D01*
X1482922Y1137270D01*
X1480383Y1136000D02*
X1477843D01*
X1479113D01*
Y1143617D01*
X1480383Y1142348D01*
X1468956Y1143617D02*
X1471495Y1142348D01*
X1474034Y1139809D01*
Y1137270D01*
X1472765Y1136000D01*
X1470226D01*
X1468956Y1137270D01*
Y1138539D01*
X1470226Y1139809D01*
X1474034D01*
X1541172Y1140098D02*
X1542441Y1141367D01*
X1544980D01*
X1546250Y1140098D01*
Y1135020D01*
X1544980Y1133750D01*
X1542441D01*
X1541172Y1135020D01*
X1538633Y1133750D02*
X1536093D01*
X1537363D01*
Y1141367D01*
X1538633Y1140098D01*
X1528476Y1133750D02*
Y1141367D01*
X1532285Y1137559D01*
X1527206D01*
X1515618Y1239000D02*
Y1241539D01*
Y1240270D01*
X1508000D01*
Y1239000D01*
Y1241539D01*
X1514348Y1250426D02*
X1515618Y1249157D01*
Y1246618D01*
X1514348Y1245348D01*
X1509270D01*
X1508000Y1246618D01*
Y1249157D01*
X1509270Y1250426D01*
X1508000Y1252965D02*
Y1255505D01*
Y1254235D01*
X1515618D01*
X1514348Y1252965D01*
Y1259313D02*
X1515618Y1260583D01*
Y1263122D01*
X1514348Y1264392D01*
X1513078D01*
X1511809Y1263122D01*
Y1261853D01*
Y1263122D01*
X1510539Y1264392D01*
X1509270D01*
X1508000Y1263122D01*
Y1260583D01*
X1509270Y1259313D01*
X1451500Y1115250D02*
Y1122868D01*
X1447691D01*
X1446422Y1121598D01*
Y1119059D01*
X1447691Y1117789D01*
X1451500D01*
X1448961D02*
X1446422Y1115250D01*
X1443882D02*
X1441343D01*
X1442613D01*
Y1122868D01*
X1443882Y1121598D01*
X1437534D02*
X1436265Y1122868D01*
X1433726D01*
X1432456Y1121598D01*
Y1120328D01*
X1433726Y1119059D01*
X1432456Y1117789D01*
Y1116520D01*
X1433726Y1115250D01*
X1436265D01*
X1437534Y1116520D01*
Y1117789D01*
X1436265Y1119059D01*
X1437534Y1120328D01*
Y1121598D01*
X1436265Y1119059D02*
X1433726D01*
X1436000Y1177000D02*
X1443618D01*
Y1180809D01*
X1442348Y1182078D01*
X1439809D01*
X1438539Y1180809D01*
Y1177000D01*
Y1179539D02*
X1436000Y1182078D01*
Y1184617D02*
Y1187157D01*
Y1185887D01*
X1443618D01*
X1442348Y1184617D01*
X1443618Y1190965D02*
Y1196044D01*
X1442348D01*
X1437270Y1190965D01*
X1436000D01*
X1456500Y1177000D02*
X1464117D01*
Y1180809D01*
X1462848Y1182078D01*
X1460309D01*
X1459039Y1180809D01*
Y1177000D01*
Y1179539D02*
X1456500Y1182078D01*
Y1184617D02*
Y1187157D01*
Y1185887D01*
X1464117D01*
X1462848Y1184617D01*
X1464117Y1196044D02*
X1462848Y1193505D01*
X1460309Y1190965D01*
X1457770D01*
X1456500Y1192235D01*
Y1194774D01*
X1457770Y1196044D01*
X1459039D01*
X1460309Y1194774D01*
Y1190965D01*
X1451500Y1090500D02*
Y1098118D01*
X1447691D01*
X1446422Y1096848D01*
Y1094309D01*
X1447691Y1093039D01*
X1451500D01*
X1448961D02*
X1446422Y1090500D01*
X1443882Y1096848D02*
X1442613Y1098118D01*
X1440074D01*
X1438804Y1096848D01*
Y1095578D01*
X1440074Y1094309D01*
X1438804Y1093039D01*
Y1091770D01*
X1440074Y1090500D01*
X1442613D01*
X1443882Y1091770D01*
Y1093039D01*
X1442613Y1094309D01*
X1443882Y1095578D01*
Y1096848D01*
X1442613Y1094309D02*
X1440074D01*
X1451500Y1142250D02*
Y1149867D01*
X1447691D01*
X1446422Y1148598D01*
Y1146059D01*
X1447691Y1144789D01*
X1451500D01*
X1448961D02*
X1446422Y1142250D01*
X1443882Y1149867D02*
X1438804D01*
Y1148598D01*
X1443882Y1143520D01*
Y1142250D01*
X1451500Y1249500D02*
Y1257117D01*
X1447691D01*
X1446422Y1255848D01*
Y1253309D01*
X1447691Y1252039D01*
X1451500D01*
X1448961D02*
X1446422Y1249500D01*
X1438804Y1257117D02*
X1441343Y1255848D01*
X1443882Y1253309D01*
Y1250770D01*
X1442613Y1249500D01*
X1440074D01*
X1438804Y1250770D01*
Y1252039D01*
X1440074Y1253309D01*
X1443882D01*
X1446250Y1185250D02*
X1453867D01*
Y1189059D01*
X1452598Y1190328D01*
X1450059D01*
X1448789Y1189059D01*
Y1185250D01*
Y1187789D02*
X1446250Y1190328D01*
X1453867Y1197946D02*
Y1192868D01*
X1450059D01*
X1451328Y1195407D01*
Y1196676D01*
X1450059Y1197946D01*
X1447520D01*
X1446250Y1196676D01*
Y1194137D01*
X1447520Y1192868D01*
X1425500Y1185250D02*
X1433118D01*
Y1189059D01*
X1431848Y1190328D01*
X1429309D01*
X1428039Y1189059D01*
Y1185250D01*
Y1187789D02*
X1425500Y1190328D01*
Y1196676D02*
X1433118D01*
X1429309Y1192868D01*
Y1197946D01*
X1451500Y1224500D02*
Y1232117D01*
X1447691D01*
X1446422Y1230848D01*
Y1228309D01*
X1447691Y1227039D01*
X1451500D01*
X1448961D02*
X1446422Y1224500D01*
X1443882Y1230848D02*
X1442613Y1232117D01*
X1440074D01*
X1438804Y1230848D01*
Y1229578D01*
X1440074Y1228309D01*
X1441343D01*
X1440074D01*
X1438804Y1227039D01*
Y1225770D01*
X1440074Y1224500D01*
X1442613D01*
X1443882Y1225770D01*
X1450500Y1274000D02*
Y1281617D01*
X1446691D01*
X1445422Y1280348D01*
Y1277809D01*
X1446691Y1276539D01*
X1450500D01*
X1447961D02*
X1445422Y1274000D01*
X1442883D02*
X1440343D01*
X1441613D01*
Y1281617D01*
X1442883Y1280348D01*
X1457000Y1170618D02*
X1454461D01*
X1455730D01*
Y1163000D01*
X1457000D01*
X1454461D01*
X1445574Y1169348D02*
X1446843Y1170618D01*
X1449382D01*
X1450652Y1169348D01*
Y1164270D01*
X1449382Y1163000D01*
X1446843D01*
X1445574Y1164270D01*
X1443035Y1163000D02*
X1440495D01*
X1441765D01*
Y1170618D01*
X1443035Y1169348D01*
X1431608Y1170618D02*
X1436687D01*
Y1166809D01*
X1434147Y1168078D01*
X1432878D01*
X1431608Y1166809D01*
Y1164270D01*
X1432878Y1163000D01*
X1435417D01*
X1436687Y1164270D01*
X1392172Y1164598D02*
X1393441Y1165867D01*
X1395980D01*
X1397250Y1164598D01*
Y1159520D01*
X1395980Y1158250D01*
X1393441D01*
X1392172Y1159520D01*
X1389633Y1158250D02*
X1387093D01*
X1388363D01*
Y1165867D01*
X1389633Y1164598D01*
X1392172Y1209348D02*
X1393441Y1210618D01*
X1395980D01*
X1397250Y1209348D01*
Y1204270D01*
X1395980Y1203000D01*
X1393441D01*
X1392172Y1204270D01*
X1384554Y1203000D02*
X1389633D01*
X1384554Y1208078D01*
Y1209348D01*
X1385824Y1210618D01*
X1388363D01*
X1389633Y1209348D01*
X1320098Y1248078D02*
X1321367Y1246809D01*
Y1244270D01*
X1320098Y1243000D01*
X1315020D01*
X1313750Y1244270D01*
Y1246809D01*
X1315020Y1248078D01*
X1320098Y1250618D02*
X1321367Y1251887D01*
Y1254426D01*
X1320098Y1255696D01*
X1318828D01*
X1317559Y1254426D01*
Y1253157D01*
Y1254426D01*
X1316289Y1255696D01*
X1315020D01*
X1313750Y1254426D01*
Y1251887D01*
X1315020Y1250618D01*
X1353598Y1110828D02*
X1354868Y1109559D01*
Y1107020D01*
X1353598Y1105750D01*
X1348520D01*
X1347250Y1107020D01*
Y1109559D01*
X1348520Y1110828D01*
X1347250Y1117176D02*
X1354868D01*
X1351059Y1113367D01*
Y1118446D01*
X1359672Y1229598D02*
X1360941Y1230867D01*
X1363480D01*
X1364750Y1229598D01*
Y1224520D01*
X1363480Y1223250D01*
X1360941D01*
X1359672Y1224520D01*
X1352054Y1230867D02*
X1357133D01*
Y1227059D01*
X1354593Y1228328D01*
X1353324D01*
X1352054Y1227059D01*
Y1224520D01*
X1353324Y1223250D01*
X1355863D01*
X1357133Y1224520D01*
X1593098Y1231078D02*
X1594368Y1229809D01*
Y1227270D01*
X1593098Y1226000D01*
X1588020D01*
X1586750Y1227270D01*
Y1229809D01*
X1588020Y1231078D01*
X1586750Y1233617D02*
Y1236157D01*
Y1234887D01*
X1594368D01*
X1593098Y1233617D01*
X1586750Y1239966D02*
Y1242505D01*
Y1241235D01*
X1594368D01*
X1593098Y1239966D01*
X1397117Y1177000D02*
Y1179539D01*
Y1178270D01*
X1389500D01*
Y1177000D01*
Y1179539D01*
X1395848Y1188426D02*
X1397117Y1187157D01*
Y1184617D01*
X1395848Y1183348D01*
X1390770D01*
X1389500Y1184617D01*
Y1187157D01*
X1390770Y1188426D01*
X1389500Y1190965D02*
Y1193505D01*
Y1192235D01*
X1397117D01*
X1395848Y1190965D01*
X1364617Y1236250D02*
Y1238789D01*
Y1237520D01*
X1357000D01*
Y1236250D01*
Y1238789D01*
X1363348Y1247676D02*
X1364617Y1246407D01*
Y1243867D01*
X1363348Y1242598D01*
X1358270D01*
X1357000Y1243867D01*
Y1246407D01*
X1358270Y1247676D01*
X1357000Y1255294D02*
Y1250216D01*
X1362078Y1255294D01*
X1363348D01*
X1364617Y1254024D01*
Y1251485D01*
X1363348Y1250216D01*
X1477500Y1234118D02*
X1474961D01*
X1476230D01*
Y1226500D01*
X1477500D01*
X1474961D01*
X1466074Y1232848D02*
X1467343Y1234118D01*
X1469883D01*
X1471152Y1232848D01*
Y1227770D01*
X1469883Y1226500D01*
X1467343D01*
X1466074Y1227770D01*
X1463535Y1232848D02*
X1462265Y1234118D01*
X1459726D01*
X1458456Y1232848D01*
Y1231578D01*
X1459726Y1230309D01*
X1460995D01*
X1459726D01*
X1458456Y1229039D01*
Y1227770D01*
X1459726Y1226500D01*
X1462265D01*
X1463535Y1227770D01*
X1749000Y1111868D02*
X1746461D01*
X1747730D01*
Y1104250D01*
X1749000D01*
X1746461D01*
X1737574Y1110598D02*
X1738843Y1111868D01*
X1741382D01*
X1742652Y1110598D01*
Y1105520D01*
X1741382Y1104250D01*
X1738843D01*
X1737574Y1105520D01*
X1729956Y1111868D02*
X1735034D01*
Y1108059D01*
X1732495Y1109328D01*
X1731226D01*
X1729956Y1108059D01*
Y1105520D01*
X1731226Y1104250D01*
X1733765D01*
X1735034Y1105520D01*
X1748250Y1270117D02*
X1745711D01*
X1746980D01*
Y1262500D01*
X1748250D01*
X1745711D01*
X1736824Y1268848D02*
X1738093Y1270117D01*
X1740632D01*
X1741902Y1268848D01*
Y1263770D01*
X1740632Y1262500D01*
X1738093D01*
X1736824Y1263770D01*
X1729206Y1270117D02*
X1731745Y1268848D01*
X1734285Y1266309D01*
Y1263770D01*
X1733015Y1262500D01*
X1730476D01*
X1729206Y1263770D01*
Y1265039D01*
X1730476Y1266309D01*
X1734285D01*
X1715117Y1163750D02*
Y1166289D01*
Y1165020D01*
X1707500D01*
Y1163750D01*
Y1166289D01*
X1713848Y1175176D02*
X1715117Y1173907D01*
Y1171367D01*
X1713848Y1170098D01*
X1708770D01*
X1707500Y1171367D01*
Y1173907D01*
X1708770Y1175176D01*
X1715117Y1177716D02*
Y1182794D01*
X1713848D01*
X1708770Y1177716D01*
X1707500D01*
X1608867Y1222250D02*
Y1224789D01*
Y1223520D01*
X1601250D01*
Y1222250D01*
Y1224789D01*
X1607598Y1233676D02*
X1608867Y1232407D01*
Y1229867D01*
X1607598Y1228598D01*
X1602520D01*
X1601250Y1229867D01*
Y1232407D01*
X1602520Y1233676D01*
X1607598Y1236216D02*
X1608867Y1237485D01*
Y1240024D01*
X1607598Y1241294D01*
X1606328D01*
X1605059Y1240024D01*
X1603789Y1241294D01*
X1602520D01*
X1601250Y1240024D01*
Y1237485D01*
X1602520Y1236216D01*
X1603789D01*
X1605059Y1237485D01*
X1606328Y1236216D01*
X1607598D01*
X1605059Y1237485D02*
Y1240024D01*
X1528250Y1098118D02*
X1525711D01*
X1526980D01*
Y1090500D01*
X1528250D01*
X1525711D01*
X1516824Y1096848D02*
X1518093Y1098118D01*
X1520632D01*
X1521902Y1096848D01*
Y1091770D01*
X1520632Y1090500D01*
X1518093D01*
X1516824Y1091770D01*
X1514285D02*
X1513015Y1090500D01*
X1510476D01*
X1509206Y1091770D01*
Y1096848D01*
X1510476Y1098118D01*
X1513015D01*
X1514285Y1096848D01*
Y1095578D01*
X1513015Y1094309D01*
X1509206D01*
X1709750Y1098118D02*
X1707211D01*
X1708480D01*
Y1090500D01*
X1709750D01*
X1707211D01*
X1698324Y1096848D02*
X1699593Y1098118D01*
X1702133D01*
X1703402Y1096848D01*
Y1091770D01*
X1702133Y1090500D01*
X1699593D01*
X1698324Y1091770D01*
X1695784Y1090500D02*
X1693245D01*
X1694515D01*
Y1098118D01*
X1695784Y1096848D01*
X1689437D02*
X1688167Y1098118D01*
X1685628D01*
X1684358Y1096848D01*
Y1091770D01*
X1685628Y1090500D01*
X1688167D01*
X1689437Y1091770D01*
Y1096848D01*
X1498000Y1098118D02*
X1495461D01*
X1496730D01*
Y1090500D01*
X1498000D01*
X1495461D01*
X1486574Y1096848D02*
X1487843Y1098118D01*
X1490383D01*
X1491652Y1096848D01*
Y1091770D01*
X1490383Y1090500D01*
X1487843D01*
X1486574Y1091770D01*
X1484034Y1090500D02*
X1481495D01*
X1482765D01*
Y1098118D01*
X1484034Y1096848D01*
X1477687Y1090500D02*
X1475147D01*
X1476417D01*
Y1098118D01*
X1477687Y1096848D01*
X1587750Y1098118D02*
X1585211D01*
X1586480D01*
Y1090500D01*
X1587750D01*
X1585211D01*
X1576324Y1096848D02*
X1577593Y1098118D01*
X1580132D01*
X1581402Y1096848D01*
Y1091770D01*
X1580132Y1090500D01*
X1577593D01*
X1576324Y1091770D01*
X1573784Y1090500D02*
X1571245D01*
X1572515D01*
Y1098118D01*
X1573784Y1096848D01*
X1562358Y1090500D02*
X1567437D01*
X1562358Y1095578D01*
Y1096848D01*
X1563628Y1098118D01*
X1566167D01*
X1567437Y1096848D01*
X1316750Y1278118D02*
Y1270500D01*
X1311672D01*
X1309133D02*
X1306593D01*
X1307863D01*
Y1278118D01*
X1309133Y1276848D01*
X1319000Y1103867D02*
Y1096250D01*
X1313922D01*
X1306304D02*
X1311382D01*
X1306304Y1101328D01*
Y1102598D01*
X1307574Y1103867D01*
X1310113D01*
X1311382Y1102598D01*
X1313750Y1225500D02*
X1321367D01*
Y1229309D01*
X1320098Y1230578D01*
X1317559D01*
X1316289Y1229309D01*
Y1225500D01*
Y1228039D02*
X1313750Y1230578D01*
Y1238196D02*
Y1233118D01*
X1318828Y1238196D01*
X1320098D01*
X1321367Y1236926D01*
Y1234387D01*
X1320098Y1233118D01*
X1576500Y1226000D02*
X1584117D01*
Y1229809D01*
X1582848Y1231078D01*
X1580309D01*
X1579039Y1229809D01*
Y1226000D01*
Y1228539D02*
X1576500Y1231078D01*
X1577770Y1233617D02*
X1576500Y1234887D01*
Y1237426D01*
X1577770Y1238696D01*
X1582848D01*
X1584117Y1237426D01*
Y1234887D01*
X1582848Y1233617D01*
X1581578D01*
X1580309Y1234887D01*
Y1238696D01*
X1690750Y1248000D02*
X1698367D01*
Y1251809D01*
X1697098Y1253078D01*
X1694559D01*
X1693289Y1251809D01*
Y1248000D01*
Y1250539D02*
X1690750Y1253078D01*
Y1255618D02*
Y1258157D01*
Y1256887D01*
X1698367D01*
X1697098Y1255618D01*
X1690750Y1261965D02*
Y1264505D01*
Y1263235D01*
X1698367D01*
X1697098Y1261965D01*
X1704000Y1248000D02*
X1711617D01*
Y1251809D01*
X1710348Y1253078D01*
X1707809D01*
X1706539Y1251809D01*
Y1248000D01*
Y1250539D02*
X1704000Y1253078D01*
Y1255618D02*
Y1258157D01*
Y1256887D01*
X1711617D01*
X1710348Y1255618D01*
X1704000Y1267044D02*
Y1261965D01*
X1709078Y1267044D01*
X1710348D01*
X1711617Y1265774D01*
Y1263235D01*
X1710348Y1261965D01*
X1534250Y1237000D02*
X1541868D01*
Y1240809D01*
X1540598Y1242078D01*
X1538059D01*
X1536789Y1240809D01*
Y1237000D01*
Y1239539D02*
X1534250Y1242078D01*
Y1244617D02*
Y1247157D01*
Y1245887D01*
X1541868D01*
X1540598Y1244617D01*
Y1250965D02*
X1541868Y1252235D01*
Y1254774D01*
X1540598Y1256044D01*
X1539328D01*
X1538059Y1254774D01*
Y1253505D01*
Y1254774D01*
X1536789Y1256044D01*
X1535520D01*
X1534250Y1254774D01*
Y1252235D01*
X1535520Y1250965D01*
X1641500Y1112750D02*
X1649117D01*
Y1116559D01*
X1647848Y1117828D01*
X1645309D01*
X1644039Y1116559D01*
Y1112750D01*
Y1115289D02*
X1641500Y1117828D01*
Y1120368D02*
Y1122907D01*
Y1121637D01*
X1649117D01*
X1647848Y1120368D01*
X1641500Y1130524D02*
X1649117D01*
X1645309Y1126715D01*
Y1131794D01*
X1630500Y1112750D02*
X1638118D01*
Y1116559D01*
X1636848Y1117828D01*
X1634309D01*
X1633039Y1116559D01*
Y1112750D01*
Y1115289D02*
X1630500Y1117828D01*
Y1120368D02*
Y1122907D01*
Y1121637D01*
X1638118D01*
X1636848Y1120368D01*
X1638118Y1131794D02*
Y1126715D01*
X1634309D01*
X1635578Y1129255D01*
Y1130524D01*
X1634309Y1131794D01*
X1631770D01*
X1630500Y1130524D01*
Y1127985D01*
X1631770Y1126715D01*
X1362422Y1275598D02*
X1363691Y1276868D01*
X1366230D01*
X1367500Y1275598D01*
Y1270520D01*
X1366230Y1269250D01*
X1363691D01*
X1362422Y1270520D01*
X1354804Y1276868D02*
X1357343Y1275598D01*
X1359883Y1273059D01*
Y1270520D01*
X1358613Y1269250D01*
X1356074D01*
X1354804Y1270520D01*
Y1271789D01*
X1356074Y1273059D01*
X1359883D01*
X1721172Y1145848D02*
X1722442Y1147117D01*
X1724981D01*
X1726250Y1145848D01*
Y1140770D01*
X1724981Y1139500D01*
X1722442D01*
X1721172Y1140770D01*
X1718633Y1147117D02*
X1713554D01*
Y1145848D01*
X1718633Y1140770D01*
Y1139500D01*
X1602098Y1140328D02*
X1603367Y1139059D01*
Y1136520D01*
X1602098Y1135250D01*
X1597020D01*
X1595750Y1136520D01*
Y1139059D01*
X1597020Y1140328D01*
X1595750Y1142868D02*
Y1145407D01*
Y1144137D01*
X1603367D01*
X1602098Y1142868D01*
X1603367Y1149215D02*
Y1154294D01*
X1602098D01*
X1597020Y1149215D01*
X1595750D01*
X1593598Y1188578D02*
X1594868Y1187309D01*
Y1184770D01*
X1593598Y1183500D01*
X1588520D01*
X1587250Y1184770D01*
Y1187309D01*
X1588520Y1188578D01*
X1587250Y1191117D02*
Y1193657D01*
Y1192387D01*
X1594868D01*
X1593598Y1191117D01*
Y1197466D02*
X1594868Y1198735D01*
Y1201274D01*
X1593598Y1202544D01*
X1592328D01*
X1591059Y1201274D01*
X1589789Y1202544D01*
X1588520D01*
X1587250Y1201274D01*
Y1198735D01*
X1588520Y1197466D01*
X1589789D01*
X1591059Y1198735D01*
X1592328Y1197466D01*
X1593598D01*
X1591059Y1198735D02*
Y1201274D01*
X1613098Y1140328D02*
X1614368Y1139059D01*
Y1136520D01*
X1613098Y1135250D01*
X1608020D01*
X1606750Y1136520D01*
Y1139059D01*
X1608020Y1140328D01*
X1606750Y1142868D02*
Y1145407D01*
Y1144137D01*
X1614368D01*
X1613098Y1142868D01*
X1608020Y1149215D02*
X1606750Y1150485D01*
Y1153024D01*
X1608020Y1154294D01*
X1613098D01*
X1614368Y1153024D01*
Y1150485D01*
X1613098Y1149215D01*
X1611828D01*
X1610559Y1150485D01*
Y1154294D01*
X1540848Y1265578D02*
X1542117Y1264309D01*
Y1261770D01*
X1540848Y1260500D01*
X1535770D01*
X1534500Y1261770D01*
Y1264309D01*
X1535770Y1265578D01*
X1534500Y1273196D02*
Y1268118D01*
X1539578Y1273196D01*
X1540848D01*
X1542117Y1271926D01*
Y1269387D01*
X1540848Y1268118D01*
Y1275735D02*
X1542117Y1277005D01*
Y1279544D01*
X1540848Y1280813D01*
X1535770D01*
X1534500Y1279544D01*
Y1277005D01*
X1535770Y1275735D01*
X1540848D01*
X1715117Y1193250D02*
Y1195789D01*
Y1194520D01*
X1707500D01*
Y1193250D01*
Y1195789D01*
X1713848Y1204676D02*
X1715117Y1203407D01*
Y1200867D01*
X1713848Y1199598D01*
X1708770D01*
X1707500Y1200867D01*
Y1203407D01*
X1708770Y1204676D01*
X1707500Y1211024D02*
X1715117D01*
X1711309Y1207215D01*
Y1212294D01*
X1514848Y1214578D02*
X1516118Y1213309D01*
Y1210770D01*
X1514848Y1209500D01*
X1509770D01*
X1508500Y1210770D01*
Y1213309D01*
X1509770Y1214578D01*
X1508500Y1222196D02*
Y1217117D01*
X1513578Y1222196D01*
X1514848D01*
X1516118Y1220926D01*
Y1218387D01*
X1514848Y1217117D01*
X1508500Y1224735D02*
Y1227274D01*
Y1226005D01*
X1516118D01*
X1514848Y1224735D01*
X1508848Y1131578D02*
X1510117Y1130309D01*
Y1127770D01*
X1508848Y1126500D01*
X1503770D01*
X1502500Y1127770D01*
Y1130309D01*
X1503770Y1131578D01*
X1502500Y1139196D02*
Y1134118D01*
X1507578Y1139196D01*
X1508848D01*
X1510117Y1137926D01*
Y1135387D01*
X1508848Y1134118D01*
X1502500Y1146813D02*
Y1141735D01*
X1507578Y1146813D01*
X1508848D01*
X1510117Y1145544D01*
Y1143005D01*
X1508848Y1141735D01*
X1590750Y1156500D02*
Y1164118D01*
X1586941D01*
X1585672Y1162848D01*
Y1160309D01*
X1586941Y1159039D01*
X1590750D01*
X1588211D02*
X1585672Y1156500D01*
X1583132D02*
X1580593D01*
X1581863D01*
Y1164118D01*
X1583132Y1162848D01*
X1576785Y1157770D02*
X1575515Y1156500D01*
X1572976D01*
X1571706Y1157770D01*
Y1162848D01*
X1572976Y1164118D01*
X1575515D01*
X1576785Y1162848D01*
Y1161578D01*
X1575515Y1160309D01*
X1571706D01*
X1702500Y1222750D02*
X1710117D01*
Y1226559D01*
X1708848Y1227828D01*
X1706309D01*
X1705039Y1226559D01*
Y1222750D01*
Y1225289D02*
X1702500Y1227828D01*
Y1235446D02*
Y1230368D01*
X1707578Y1235446D01*
X1708848D01*
X1710117Y1234176D01*
Y1231637D01*
X1708848Y1230368D01*
Y1237985D02*
X1710117Y1239255D01*
Y1241794D01*
X1708848Y1243063D01*
X1707578D01*
X1706309Y1241794D01*
Y1240524D01*
Y1241794D01*
X1705039Y1243063D01*
X1703770D01*
X1702500Y1241794D01*
Y1239255D01*
X1703770Y1237985D01*
X1670500Y1114750D02*
X1678118D01*
Y1118559D01*
X1676848Y1119828D01*
X1674309D01*
X1673039Y1118559D01*
Y1114750D01*
Y1117289D02*
X1670500Y1119828D01*
Y1127446D02*
Y1122367D01*
X1675578Y1127446D01*
X1676848D01*
X1678118Y1126176D01*
Y1123637D01*
X1676848Y1122367D01*
X1670500Y1133794D02*
X1678118D01*
X1674309Y1129985D01*
Y1135063D01*
X1572260Y1246122D02*
Y1244852D01*
X1569721Y1242313D01*
X1567182Y1244852D01*
Y1246122D01*
X1569721Y1242313D02*
Y1238504D01*
X1564642D02*
X1562103D01*
X1563373D01*
Y1246122D01*
X1564642Y1244852D01*
D80*
X1383750Y1199500D02*
G03*
X1383750Y1199500I-1250J0D01*
G01*
X1709400Y1126230D02*
G03*
X1709400Y1126230I-1250J0D01*
G01*
X1490960Y1126370D02*
G03*
X1490960Y1126370I-1250J0D01*
G01*
X1587480Y1126230D02*
G03*
X1587480Y1126230I-1250J0D01*
G01*
X1501750Y1231500D02*
G03*
X1501750Y1231500I-1250J0D01*
G01*
X1464000Y1146250D02*
G03*
X1464000Y1146250I-1250J0D01*
G01*
X1354000Y1258750D02*
G03*
X1354000Y1258750I-1250J0D01*
G01*
X1461750Y1200000D02*
G03*
X1461750Y1200000I-1250J0D01*
G01*
X1749750Y1214250D02*
G03*
X1749750Y1214250I-1250J0D01*
G01*
X1747250Y1136750D02*
G03*
X1747250Y1136750I-1250J0D01*
G01*
X1716750Y1239500D02*
G03*
X1716750Y1239500I-1250J0D01*
G01*
X1721250Y1160750D02*
G03*
X1721250Y1160750I-1250J0D01*
G01*
X1616250Y1231750D02*
G03*
X1616250Y1231750I-1250J0D01*
G01*
X1531600Y1126370D02*
G03*
X1531600Y1126370I-1250J0D01*
G01*
D81*
X1633250Y1209000D02*
G03*
X1633250Y1209000I-3000J0D01*
G01*
D82*
X1571250Y1140250D02*
G03*
X1571250Y1140250I-750J0D01*
G01*
X1367768Y1175500D02*
Y1195500D01*
X1375388Y1175500D02*
Y1195500D01*
X1367768Y1175500D02*
X1375388D01*
X1367768Y1195500D02*
X1375388D01*
X1693418Y1102230D02*
Y1122230D01*
X1701038Y1102230D02*
Y1122230D01*
X1693418Y1102230D02*
X1701038D01*
X1693418Y1122230D02*
X1701038D01*
X1474978Y1102370D02*
Y1122370D01*
X1482598Y1102370D02*
Y1122370D01*
X1474978Y1102370D02*
X1482598D01*
X1474978Y1122370D02*
X1482598D01*
X1571498Y1102230D02*
Y1122230D01*
X1579118Y1102230D02*
Y1122230D01*
X1571498Y1102230D02*
X1579118D01*
X1571498Y1122230D02*
X1579118D01*
X1334518Y1235500D02*
Y1255500D01*
X1342138Y1235500D02*
Y1255500D01*
X1334518Y1235500D02*
X1342138D01*
X1334518Y1255500D02*
X1342138D01*
X1730348Y1192213D02*
Y1212213D01*
X1737968Y1192213D02*
Y1212213D01*
X1730348Y1192213D02*
X1737968D01*
X1730348Y1212213D02*
X1737968D01*
X1730348Y1114930D02*
Y1134930D01*
X1737968Y1114930D02*
Y1134930D01*
X1730348Y1114930D02*
X1737968D01*
X1730348Y1134930D02*
X1737968D01*
X1737312Y1240030D02*
Y1260030D01*
X1729692Y1240030D02*
Y1260030D01*
X1737312D01*
X1729692Y1240030D02*
X1737312D01*
Y1162747D02*
Y1182747D01*
X1729692Y1162747D02*
Y1182747D01*
X1737312D01*
X1729692Y1162747D02*
X1737312D01*
X1515618Y1102370D02*
Y1122370D01*
X1523238Y1102370D02*
Y1122370D01*
X1515618Y1102370D02*
X1523238D01*
X1515618Y1122370D02*
X1523238D01*
X1518750Y1231250D02*
X1523750D01*
X1518750Y1226250D02*
Y1231250D01*
X1573500Y1226000D02*
Y1231000D01*
X1568500Y1231250D02*
X1573500D01*
X1518750Y1143000D02*
Y1148000D01*
Y1143000D02*
X1523750D01*
X1573500D02*
Y1148000D01*
X1568250Y1143000D02*
X1573250D01*
M02*
