%FSLAX44Y44*%
%MOMM*%
G71*
G01*
G75*
G04 Layer_Color=32768*
%ADD10R,0.6200X0.5700*%
%ADD11R,0.7620X0.7620*%
%ADD12R,2.7940X0.7366*%
%ADD13R,1.3000X0.4500*%
%ADD14R,0.3000X0.3000*%
%ADD15R,0.7620X0.7620*%
%ADD16R,0.5000X0.2000*%
%ADD17C,0.1500*%
%ADD18C,0.2540*%
%ADD19C,0.2000*%
%ADD20C,0.1524*%
%ADD21R,1.8000X1.8000*%
%ADD22C,1.8000*%
%ADD23R,1.8000X1.8000*%
%ADD24C,1.8000*%
%ADD25C,0.8000*%
%ADD26O,1.8000X1.1500*%
%ADD27O,2.0000X1.4500*%
%ADD28C,0.6100*%
%ADD29C,0.6000*%
%ADD30C,3.3000*%
%ADD31R,1.4000X2.2000*%
%ADD32R,0.5700X0.6200*%
%ADD33R,0.9700X0.9600*%
%ADD34R,0.8500X0.3500*%
%ADD35O,1.7500X0.3500*%
%ADD36O,0.3500X1.7500*%
%ADD37R,1.2500X0.3000*%
%ADD38O,0.3000X0.8000*%
%ADD39O,0.8000X0.3000*%
%ADD40R,1.5000X1.0000*%
%ADD41R,0.5500X0.6000*%
%ADD42R,0.9500X0.9500*%
%ADD43R,0.6000X0.5500*%
%ADD44R,0.9500X0.9500*%
%ADD45C,0.2032*%
%ADD46C,0.4000*%
%ADD47C,0.2286*%
%ADD48C,0.1778*%
%ADD49R,0.8232X0.7732*%
%ADD50R,0.9652X0.9652*%
%ADD51R,2.8956X0.8382*%
%ADD52R,1.5032X0.6532*%
%ADD53R,0.5032X0.5032*%
%ADD54R,0.9652X0.9652*%
%ADD55R,0.7032X0.4032*%
%ADD56R,2.0032X2.0032*%
%ADD57C,2.0032*%
%ADD58R,2.0032X2.0032*%
%ADD59C,2.0032*%
%ADD60C,0.2032*%
%ADD61C,1.0032*%
%ADD62O,2.0032X1.3532*%
%ADD63O,2.2032X1.6532*%
%ADD64C,0.0100*%
%ADD65R,1.6032X2.4032*%
%ADD66R,0.7732X0.8232*%
%ADD67R,1.1732X1.1632*%
%ADD68R,1.0532X0.5532*%
%ADD69O,1.9532X0.5532*%
%ADD70O,0.5532X1.9532*%
%ADD71R,1.4532X0.5032*%
%ADD72O,0.5032X1.0032*%
%ADD73O,1.0032X0.5032*%
%ADD74R,1.7032X1.2032*%
%ADD75R,0.7532X0.8032*%
%ADD76R,1.1532X1.1532*%
%ADD77R,0.8032X0.7532*%
%ADD78R,1.1532X1.1532*%
%ADD79C,3.5032*%
%ADD80C,0.1000*%
%ADD81C,0.2500*%
%ADD82C,0.6000*%
%ADD83C,0.1270*%
%ADD84C,0.3810*%
%ADD85C,0.0254*%
%ADD86C,0.0500*%
D86*
X1688250Y1132750D02*
G03*
X1688250Y1132750I-3500J0D01*
G01*
X1700000Y1236000D02*
G03*
X1700000Y1236000I-3500J0D01*
G01*
X1651250Y1269250D02*
G03*
X1651250Y1269250I-3500J0D01*
G01*
Y1277500D02*
G03*
X1651250Y1277500I-3500J0D01*
G01*
X1611000Y1153750D02*
G03*
X1611000Y1153750I-3500J0D01*
G01*
X1378750Y1161250D02*
G03*
X1378750Y1161250I-3500J0D01*
G01*
X1583750Y1212250D02*
G03*
X1583750Y1212250I-3500J0D01*
G01*
X1448500Y1103500D02*
G03*
X1448500Y1103500I-3500J0D01*
G01*
Y1155750D02*
G03*
X1448500Y1155750I-3500J0D01*
G01*
Y1243500D02*
G03*
X1448500Y1243500I-3500J0D01*
G01*
X1492333Y1191750D02*
G03*
X1492333Y1191750I-3500J0D01*
G01*
X1473500D02*
G03*
X1473500Y1191750I-3500J0D01*
G01*
X1448500Y1218500D02*
G03*
X1448500Y1218500I-3500J0D01*
G01*
X1307790Y1235710D02*
G03*
X1307790Y1235710I-3500J0D01*
G01*
X1589000Y1151750D02*
G03*
X1589000Y1151750I-3500J0D01*
G01*
X1448500Y1128750D02*
G03*
X1448500Y1128750I-3500J0D01*
G01*
X1482917Y1182000D02*
G03*
X1482917Y1182000I-3500J0D01*
G01*
X1501750D02*
G03*
X1501750Y1182000I-3500J0D01*
G01*
X1659230Y1120300D02*
G03*
X1659230Y1120300I-3500J0D01*
G01*
X1667980D02*
G03*
X1667980Y1120300I-3500J0D01*
G01*
X1635750Y1256250D02*
G03*
X1635750Y1256250I-3500J0D01*
G01*
X1688250D02*
G03*
X1688250Y1256250I-3500J0D01*
G01*
X1678750D02*
G03*
X1678750Y1256250I-3500J0D01*
G01*
X1448500Y1268250D02*
G03*
X1448500Y1268250I-3500J0D01*
G01*
X1680750Y1124250D02*
X1688750D01*
X1680750Y1132750D02*
X1688750D01*
X1680750Y1124250D02*
Y1141250D01*
X1688750Y1124250D02*
Y1141250D01*
X1680750D02*
X1688750D01*
X1684750Y1127750D02*
Y1137750D01*
X1692500Y1227500D02*
X1700500D01*
X1692500Y1236000D02*
X1700500D01*
X1692500Y1227500D02*
Y1244500D01*
X1700500Y1227500D02*
Y1244500D01*
X1692500D02*
X1700500D01*
X1696500Y1231000D02*
Y1241000D01*
X1642750Y1269250D02*
X1652750D01*
X1656250Y1265250D02*
Y1273250D01*
X1639250Y1265250D02*
X1656250D01*
X1639250Y1273250D02*
X1656250D01*
X1647750Y1265250D02*
Y1273250D01*
X1639250Y1265250D02*
Y1273250D01*
X1642750Y1277500D02*
X1652750D01*
X1639250Y1273500D02*
Y1281500D01*
X1656250D01*
X1639250Y1273500D02*
X1656250D01*
X1647750D02*
Y1281500D01*
X1656250Y1273500D02*
Y1281500D01*
X1607500Y1148750D02*
Y1158750D01*
X1603500Y1145250D02*
X1611500D01*
Y1162250D01*
X1603500Y1145250D02*
Y1162250D01*
Y1153750D02*
X1611500D01*
X1603500Y1162250D02*
X1611500D01*
X1371250Y1152750D02*
X1379250D01*
X1371250Y1161250D02*
X1379250D01*
Y1152750D02*
Y1169750D01*
X1371250Y1152750D02*
Y1169750D01*
X1379250D01*
X1375250Y1156250D02*
Y1166250D01*
X1576250Y1203750D02*
X1584250D01*
X1576250Y1212250D02*
X1584250D01*
X1576250Y1203750D02*
Y1220750D01*
X1584250Y1203750D02*
Y1220750D01*
X1576250D02*
X1584250D01*
X1580250Y1207250D02*
Y1217250D01*
X1440000Y1103500D02*
X1450000D01*
X1436500Y1099500D02*
Y1107500D01*
X1453500D01*
X1436500Y1099500D02*
X1453500D01*
X1445000D02*
Y1107500D01*
X1453500Y1099500D02*
Y1107500D01*
X1440000Y1155750D02*
X1450000D01*
X1436500Y1151750D02*
Y1159750D01*
X1453500D01*
X1436500Y1151750D02*
X1453500D01*
X1445000D02*
Y1159750D01*
X1453500Y1151750D02*
Y1159750D01*
X1440000Y1243500D02*
X1450000D01*
X1436500Y1239500D02*
Y1247500D01*
X1453500D01*
X1436500Y1239500D02*
X1453500D01*
X1445000D02*
Y1247500D01*
X1453500Y1239500D02*
Y1247500D01*
X1488833Y1186750D02*
Y1196750D01*
X1484833Y1200250D02*
X1492833D01*
Y1183250D02*
Y1200250D01*
X1484833Y1183250D02*
Y1200250D01*
Y1191750D02*
X1492833D01*
X1484833Y1183250D02*
X1492833D01*
X1470000Y1186750D02*
Y1196750D01*
X1466000Y1200250D02*
X1474000D01*
Y1183250D02*
Y1200250D01*
X1466000Y1183250D02*
Y1200250D01*
Y1191750D02*
X1474000D01*
X1466000Y1183250D02*
X1474000D01*
X1440000Y1218500D02*
X1450000D01*
X1436500Y1214500D02*
Y1222500D01*
X1453500D01*
X1436500Y1214500D02*
X1453500D01*
X1445000D02*
Y1222500D01*
X1453500Y1214500D02*
Y1222500D01*
X1312790Y1231710D02*
Y1239710D01*
X1304290Y1231710D02*
Y1239710D01*
X1295790Y1231710D02*
X1312790D01*
X1295790Y1239710D02*
X1312790D01*
X1295790Y1231710D02*
Y1239710D01*
X1299290Y1235710D02*
X1309290D01*
X1577000Y1147750D02*
Y1155750D01*
X1585500Y1147750D02*
Y1155750D01*
X1577000D02*
X1594000D01*
X1577000Y1147750D02*
X1594000D01*
Y1155750D01*
X1580500Y1151750D02*
X1590500D01*
X1440000Y1128750D02*
X1450000D01*
X1436500Y1124750D02*
Y1132750D01*
X1453500D01*
X1436500Y1124750D02*
X1453500D01*
X1445000D02*
Y1132750D01*
X1453500Y1124750D02*
Y1132750D01*
X1479417Y1177000D02*
Y1187000D01*
X1475417Y1173500D02*
X1483417D01*
X1475417D02*
Y1190500D01*
X1483417Y1173500D02*
Y1190500D01*
X1475417Y1182000D02*
X1483417D01*
X1475417Y1190500D02*
X1483417D01*
X1498250Y1177000D02*
Y1187000D01*
X1494250Y1173500D02*
X1502250D01*
X1494250D02*
Y1190500D01*
X1502250Y1173500D02*
Y1190500D01*
X1494250Y1182000D02*
X1502250D01*
X1494250Y1190500D02*
X1502250D01*
X1651730Y1111800D02*
X1659730D01*
X1651730Y1120300D02*
X1659730D01*
X1651730Y1111800D02*
Y1128800D01*
X1659730Y1111800D02*
Y1128800D01*
X1651730D02*
X1659730D01*
X1655730Y1115300D02*
Y1125300D01*
X1660480Y1111800D02*
X1668480D01*
X1660480Y1120300D02*
X1668480D01*
X1660480Y1111800D02*
Y1128800D01*
X1668480Y1111800D02*
Y1128800D01*
X1660480D02*
X1668480D01*
X1664480Y1115300D02*
Y1125300D01*
X1628250Y1247750D02*
X1636250D01*
X1628250Y1256250D02*
X1636250D01*
X1628250Y1247750D02*
Y1264750D01*
X1636250Y1247750D02*
Y1264750D01*
X1628250D02*
X1636250D01*
X1632250Y1251250D02*
Y1261250D01*
X1680750Y1264750D02*
X1688750D01*
X1680750Y1256250D02*
X1688750D01*
Y1247750D02*
Y1264750D01*
X1680750Y1247750D02*
Y1264750D01*
Y1247750D02*
X1688750D01*
X1684750Y1251250D02*
Y1261250D01*
X1671250Y1264750D02*
X1679250D01*
X1671250Y1256250D02*
X1679250D01*
Y1247750D02*
Y1264750D01*
X1671250Y1247750D02*
Y1264750D01*
Y1247750D02*
X1679250D01*
X1675250Y1251250D02*
Y1261250D01*
X1440000Y1268250D02*
X1450000D01*
X1436500Y1264250D02*
Y1272250D01*
X1453500D01*
X1436500Y1264250D02*
X1453500D01*
X1445000D02*
Y1272250D01*
X1453500Y1264250D02*
Y1272250D01*
M02*
