%FSLAX44Y44*%
%MOMM*%
G71*
G01*
G75*
G04 Layer_Color=16711935*
%ADD10R,0.6200X0.5700*%
%ADD11R,0.7620X0.7620*%
%ADD12R,2.7940X0.7366*%
%ADD13R,1.3000X0.4500*%
%ADD14R,0.3000X0.3000*%
%ADD15R,0.7620X0.7620*%
%ADD16R,0.5000X0.2000*%
%ADD17C,0.1500*%
%ADD18C,0.2540*%
%ADD19C,0.2000*%
%ADD20C,0.1524*%
%ADD21R,1.8000X1.8000*%
%ADD22C,1.8000*%
%ADD23R,1.8000X1.8000*%
%ADD24C,1.8000*%
%ADD25C,0.8000*%
%ADD26O,1.8000X1.1500*%
%ADD27O,2.0000X1.4500*%
%ADD28C,0.6100*%
%ADD29C,0.6000*%
%ADD30C,3.3000*%
%ADD31R,1.4000X2.2000*%
%ADD32R,0.5700X0.6200*%
%ADD33R,0.9700X0.9600*%
%ADD34R,0.8500X0.3500*%
%ADD35O,1.7500X0.3500*%
%ADD36O,0.3500X1.7500*%
%ADD37R,1.2500X0.3000*%
%ADD38O,0.3000X0.8000*%
%ADD39O,0.8000X0.3000*%
%ADD40R,1.5000X1.0000*%
%ADD41R,0.5500X0.6000*%
%ADD42R,0.9500X0.9500*%
%ADD43R,0.6000X0.5500*%
%ADD44R,0.9500X0.9500*%
%ADD45C,0.2032*%
%ADD46C,0.4000*%
%ADD47C,0.2286*%
%ADD48C,0.1778*%
%ADD49R,0.8232X0.7732*%
%ADD50R,0.9652X0.9652*%
%ADD51R,2.8956X0.8382*%
%ADD52R,1.5032X0.6532*%
%ADD53R,0.5032X0.5032*%
%ADD54R,0.9652X0.9652*%
%ADD55R,0.7032X0.4032*%
%ADD56R,2.0032X2.0032*%
%ADD57C,2.0032*%
%ADD58R,2.0032X2.0032*%
%ADD59C,2.0032*%
%ADD60C,0.2032*%
%ADD61C,1.0032*%
%ADD62O,2.0032X1.3532*%
%ADD63O,2.2032X1.6532*%
%ADD64C,0.0100*%
%ADD65R,1.6032X2.4032*%
%ADD66R,0.7732X0.8232*%
%ADD67R,1.1732X1.1632*%
%ADD68R,1.0532X0.5532*%
%ADD69O,1.9532X0.5532*%
%ADD70O,0.5532X1.9532*%
%ADD71R,1.4532X0.5032*%
%ADD72O,0.5032X1.0032*%
%ADD73O,1.0032X0.5032*%
%ADD74R,1.7032X1.2032*%
%ADD75R,0.7532X0.8032*%
%ADD76R,1.1532X1.1532*%
%ADD77R,0.8032X0.7532*%
%ADD78R,1.1532X1.1532*%
%ADD79C,3.5032*%
D49*
X1684750Y1137550D02*
D03*
Y1127950D02*
D03*
X1696500Y1240800D02*
D03*
Y1231200D02*
D03*
X1580250Y1217050D02*
D03*
Y1207450D02*
D03*
X1488833Y1186950D02*
D03*
Y1196550D02*
D03*
X1470000Y1186950D02*
D03*
Y1196550D02*
D03*
X1479417Y1186800D02*
D03*
Y1177200D02*
D03*
X1498250Y1186800D02*
D03*
Y1177200D02*
D03*
X1655730Y1125100D02*
D03*
Y1115500D02*
D03*
X1664480Y1125100D02*
D03*
Y1115500D02*
D03*
X1632250Y1261050D02*
D03*
Y1251450D02*
D03*
X1684750D02*
D03*
Y1261050D02*
D03*
X1675250Y1251450D02*
D03*
Y1261050D02*
D03*
D56*
X1763250Y1273500D02*
D03*
D57*
X1788650D02*
D03*
X1763250Y1248100D02*
D03*
X1788650D02*
D03*
X1763250Y1222700D02*
D03*
X1788650D02*
D03*
X1763250Y1197300D02*
D03*
X1788650D02*
D03*
X1763250Y1171900D02*
D03*
X1788650D02*
D03*
X1763250Y1146500D02*
D03*
X1788650D02*
D03*
X1763250Y1121100D02*
D03*
X1788650D02*
D03*
X1763250Y1095700D02*
D03*
X1788650D02*
D03*
D58*
X1411054Y1165000D02*
D03*
Y1258002D02*
D03*
D59*
Y1139600D02*
D03*
Y1114200D02*
D03*
Y1232602D02*
D03*
Y1207202D02*
D03*
D60*
X1552500Y1128825D02*
D03*
Y1246170D02*
D03*
D61*
X1332400Y1145640D02*
D03*
Y1195640D02*
D03*
D62*
X1304900Y1131890D02*
D03*
Y1209390D02*
D03*
D63*
X1342900Y1133390D02*
D03*
Y1207890D02*
D03*
D64*
X1706083Y1222560D02*
D03*
X1752500Y1136750D02*
D03*
X1725364Y1151130D02*
D03*
X1725500Y1158500D02*
D03*
X1652250Y1104000D02*
D03*
X1664038Y1256250D02*
D03*
X1656414D02*
D03*
X1626500Y1277750D02*
D03*
X1730500Y1256750D02*
D03*
X1725500Y1228750D02*
D03*
X1669500Y1277750D02*
D03*
D65*
X1558250Y1156250D02*
D03*
Y1219250D02*
D03*
X1533250Y1156250D02*
D03*
Y1219250D02*
D03*
D66*
X1642950Y1269250D02*
D03*
X1652550D02*
D03*
Y1277500D02*
D03*
X1642950D02*
D03*
X1449800Y1103500D02*
D03*
X1440200D02*
D03*
X1449800Y1155750D02*
D03*
X1440200D02*
D03*
X1449800Y1243500D02*
D03*
X1440200D02*
D03*
X1449800Y1218500D02*
D03*
X1440200D02*
D03*
X1299490Y1235710D02*
D03*
X1309090D02*
D03*
X1590300Y1151750D02*
D03*
X1580700D02*
D03*
X1449800Y1128750D02*
D03*
X1440200D02*
D03*
X1449800Y1268250D02*
D03*
X1440200D02*
D03*
D67*
X1322150Y1112750D02*
D03*
X1305850D02*
D03*
X1296850Y1263500D02*
D03*
X1313150D02*
D03*
D68*
X1530350Y1118870D02*
D03*
Y1112370D02*
D03*
Y1105870D02*
D03*
X1508350D02*
D03*
Y1118870D02*
D03*
X1722580Y1166247D02*
D03*
Y1172747D02*
D03*
Y1179247D02*
D03*
X1744580D02*
D03*
Y1166247D02*
D03*
X1722580Y1243530D02*
D03*
Y1250030D02*
D03*
Y1256530D02*
D03*
X1744580D02*
D03*
Y1243530D02*
D03*
X1745080Y1131430D02*
D03*
Y1124930D02*
D03*
Y1118430D02*
D03*
X1723080D02*
D03*
Y1131430D02*
D03*
X1745080Y1208713D02*
D03*
Y1202213D02*
D03*
Y1195713D02*
D03*
X1723080D02*
D03*
Y1208713D02*
D03*
X1349250Y1252000D02*
D03*
Y1245500D02*
D03*
Y1239000D02*
D03*
X1327250D02*
D03*
Y1252000D02*
D03*
X1586230Y1118730D02*
D03*
Y1112230D02*
D03*
Y1105730D02*
D03*
X1564230D02*
D03*
Y1118730D02*
D03*
X1489710Y1118870D02*
D03*
Y1112370D02*
D03*
Y1105870D02*
D03*
X1467710D02*
D03*
Y1118870D02*
D03*
X1708150Y1118730D02*
D03*
Y1112230D02*
D03*
Y1105730D02*
D03*
X1686150D02*
D03*
Y1118730D02*
D03*
X1382500Y1192000D02*
D03*
Y1185500D02*
D03*
Y1179000D02*
D03*
X1360500D02*
D03*
Y1192000D02*
D03*
D69*
X1607500Y1217000D02*
D03*
Y1212000D02*
D03*
Y1207000D02*
D03*
Y1202000D02*
D03*
Y1197000D02*
D03*
Y1192000D02*
D03*
Y1187000D02*
D03*
Y1182000D02*
D03*
Y1177000D02*
D03*
Y1172000D02*
D03*
Y1167000D02*
D03*
Y1162000D02*
D03*
X1692000D02*
D03*
Y1167000D02*
D03*
Y1172000D02*
D03*
Y1177000D02*
D03*
Y1182000D02*
D03*
Y1187000D02*
D03*
Y1192000D02*
D03*
Y1197000D02*
D03*
Y1202000D02*
D03*
Y1207000D02*
D03*
Y1212000D02*
D03*
Y1217000D02*
D03*
D70*
X1622250Y1147250D02*
D03*
X1627250D02*
D03*
X1632250D02*
D03*
X1637250D02*
D03*
X1642250D02*
D03*
X1647250D02*
D03*
X1652250D02*
D03*
X1657250D02*
D03*
X1662250D02*
D03*
X1667250D02*
D03*
X1672250D02*
D03*
X1677250D02*
D03*
Y1231750D02*
D03*
X1672250D02*
D03*
X1667250D02*
D03*
X1662250D02*
D03*
X1647250D02*
D03*
X1642250D02*
D03*
X1637250D02*
D03*
X1632250D02*
D03*
X1627250D02*
D03*
X1622250D02*
D03*
X1657250D02*
D03*
X1652250D02*
D03*
D71*
X1496790Y1220250D02*
D03*
Y1215250D02*
D03*
Y1210250D02*
D03*
Y1205250D02*
D03*
X1465210Y1220250D02*
D03*
Y1215250D02*
D03*
Y1210250D02*
D03*
Y1205250D02*
D03*
X1496790Y1167750D02*
D03*
Y1162750D02*
D03*
Y1157750D02*
D03*
Y1152750D02*
D03*
X1465210Y1167750D02*
D03*
Y1162750D02*
D03*
Y1157750D02*
D03*
Y1152750D02*
D03*
D72*
X1495000Y1240000D02*
D03*
X1490000D02*
D03*
X1485000D02*
D03*
X1480000D02*
D03*
X1475000D02*
D03*
Y1265000D02*
D03*
X1480000D02*
D03*
X1485000D02*
D03*
X1490000D02*
D03*
X1495000D02*
D03*
D73*
X1470000Y1250000D02*
D03*
Y1255000D02*
D03*
X1500000D02*
D03*
Y1250000D02*
D03*
D74*
X1485000Y1252500D02*
D03*
D75*
X1744330Y1231780D02*
D03*
X1735830D02*
D03*
Y1220630D02*
D03*
X1744330D02*
D03*
X1744830Y1143430D02*
D03*
X1736330D02*
D03*
X1308250Y1246750D02*
D03*
X1299750D02*
D03*
X1474030Y1130300D02*
D03*
X1482530D02*
D03*
X1571820D02*
D03*
X1580320D02*
D03*
X1515940D02*
D03*
X1524440D02*
D03*
X1693740D02*
D03*
X1702240D02*
D03*
X1744830Y1154580D02*
D03*
X1736330D02*
D03*
D76*
X1344500Y1264500D02*
D03*
X1330000D02*
D03*
Y1227000D02*
D03*
X1344500D02*
D03*
X1377580Y1206500D02*
D03*
X1363080D02*
D03*
X1377580Y1162090D02*
D03*
X1363080D02*
D03*
D77*
X1342500Y1116000D02*
D03*
Y1107500D02*
D03*
X1632750Y1277750D02*
D03*
Y1269250D02*
D03*
X1588500Y1168750D02*
D03*
Y1177250D02*
D03*
X1580000Y1196750D02*
D03*
Y1188250D02*
D03*
X1579250Y1168750D02*
D03*
Y1177250D02*
D03*
X1590500Y1208250D02*
D03*
Y1216750D02*
D03*
X1662250Y1277750D02*
D03*
Y1269250D02*
D03*
D78*
X1511750Y1169750D02*
D03*
Y1155250D02*
D03*
Y1186500D02*
D03*
Y1201000D02*
D03*
D79*
X1610000Y1260000D02*
D03*
Y1115500D02*
D03*
M02*
