%FSLAX44Y44*%
%MOMM*%
G71*
G01*
G75*
G04 Layer_Color=16711935*
%ADD10R,0.6200X0.5700*%
%ADD11R,0.7620X0.7620*%
%ADD12R,2.7940X0.7366*%
%ADD13R,1.3000X0.4500*%
%ADD14R,0.3000X0.3000*%
%ADD15R,0.7620X0.7620*%
%ADD16R,0.5000X0.2000*%
%ADD17C,0.1500*%
%ADD18C,0.2540*%
%ADD19C,0.2000*%
%ADD20C,0.1524*%
%ADD21R,1.8000X1.8000*%
%ADD22C,1.8000*%
%ADD23R,1.8000X1.8000*%
%ADD24C,1.8000*%
%ADD25C,0.8000*%
%ADD26O,1.8000X1.1500*%
%ADD27O,2.0000X1.4500*%
%ADD28C,0.6100*%
%ADD29C,0.6000*%
%ADD30C,3.3000*%
%ADD31R,1.4000X2.2000*%
%ADD32R,0.5700X0.6200*%
%ADD33R,0.9700X0.9600*%
%ADD34R,0.8500X0.3500*%
%ADD35O,1.7500X0.3500*%
%ADD36O,0.3500X1.7500*%
%ADD37R,1.2500X0.3000*%
%ADD38O,0.3000X0.8000*%
%ADD39O,0.8000X0.3000*%
%ADD40R,1.5000X1.0000*%
%ADD41R,0.5500X0.6000*%
%ADD42R,0.9500X0.9500*%
%ADD43R,0.6000X0.5500*%
%ADD44R,0.9500X0.9500*%
%ADD45C,0.2032*%
%ADD46C,0.4000*%
%ADD47C,0.2286*%
%ADD48C,0.1778*%
%ADD49R,0.8232X0.7732*%
%ADD50R,0.9652X0.9652*%
%ADD51R,2.8956X0.8382*%
%ADD52R,1.5032X0.6532*%
%ADD53R,0.5032X0.5032*%
%ADD54R,0.9652X0.9652*%
%ADD55R,0.7032X0.4032*%
%ADD56R,2.0032X2.0032*%
%ADD57C,2.0032*%
%ADD58R,2.0032X2.0032*%
%ADD59C,2.0032*%
%ADD60C,0.2032*%
%ADD61C,1.0032*%
%ADD62O,2.0032X1.3532*%
%ADD63O,2.2032X1.6532*%
%ADD64C,0.0100*%
%ADD65R,1.6032X2.4032*%
%ADD66R,0.7732X0.8232*%
%ADD67R,1.1732X1.1632*%
%ADD68R,1.0532X0.5532*%
%ADD69O,1.9532X0.5532*%
%ADD70O,0.5532X1.9532*%
%ADD71R,1.4532X0.5032*%
%ADD72O,0.5032X1.0032*%
%ADD73O,1.0032X0.5032*%
%ADD74R,1.7032X1.2032*%
%ADD75R,0.7532X0.8032*%
%ADD76R,1.1532X1.1532*%
%ADD77R,0.8032X0.7532*%
%ADD78R,1.1532X1.1532*%
%ADD79C,3.5032*%
%ADD80C,0.1000*%
%ADD81C,0.2500*%
%ADD82C,0.6000*%
%ADD83C,0.1270*%
%ADD84C,0.3810*%
%ADD85C,0.0254*%
%ADD86C,0.0500*%
D17*
X1346900Y1130640D02*
Y1210640D01*
X1280900Y1130640D02*
X1346900D01*
X1280900D02*
Y1210640D01*
X1346900D01*
D19*
X1287000Y1284750D02*
X1800000D01*
Y1084250D02*
Y1284750D01*
X1287000Y1084250D02*
X1800000D01*
X1287000D02*
Y1284750D01*
D80*
X1627250Y1217000D02*
G03*
X1627250Y1217000I-5000J0D01*
G01*
X1481000Y1210250D02*
G03*
X1481000Y1210250I-4000J0D01*
G01*
Y1157750D02*
G03*
X1481000Y1157750I-4000J0D01*
G01*
X1496500Y1248500D02*
G03*
X1496500Y1248500I-5000J0D01*
G01*
X1687250Y1127750D02*
Y1137750D01*
X1682250Y1127750D02*
X1687250D01*
X1682250D02*
Y1137750D01*
X1687250D01*
X1699000Y1231000D02*
Y1241000D01*
X1694000Y1231000D02*
X1699000D01*
X1694000D02*
Y1241000D01*
X1699000D01*
X1652750Y1266750D02*
Y1271750D01*
X1642750D02*
X1652750D01*
X1642750Y1266750D02*
Y1271750D01*
Y1266750D02*
X1652750D01*
X1642750Y1275000D02*
Y1280000D01*
Y1275000D02*
X1652750D01*
Y1280000D01*
X1642750D02*
X1652750D01*
X1605000Y1148750D02*
X1610000D01*
X1605000D02*
Y1158750D01*
X1610000D01*
Y1148750D02*
Y1158750D01*
X1372750Y1156250D02*
Y1166250D01*
Y1156250D02*
X1377750D01*
Y1166250D01*
X1372750D02*
X1377750D01*
X1582750Y1207250D02*
Y1217250D01*
X1577750Y1207250D02*
X1582750D01*
X1577750D02*
Y1217250D01*
X1582750D01*
X1440000Y1101000D02*
Y1106000D01*
Y1101000D02*
X1450000D01*
Y1106000D01*
X1440000D02*
X1450000D01*
X1440000Y1153250D02*
Y1158250D01*
Y1153250D02*
X1450000D01*
Y1158250D01*
X1440000D02*
X1450000D01*
X1440000Y1241000D02*
Y1246000D01*
Y1241000D02*
X1450000D01*
Y1246000D01*
X1440000D02*
X1450000D01*
X1486333Y1196750D02*
X1491333D01*
X1486333Y1186750D02*
Y1196750D01*
Y1186750D02*
X1491333D01*
Y1196750D01*
X1467500D02*
X1472500D01*
X1467500Y1186750D02*
Y1196750D01*
Y1186750D02*
X1472500D01*
Y1196750D01*
X1440000Y1216000D02*
Y1221000D01*
Y1216000D02*
X1450000D01*
Y1221000D01*
X1440000D02*
X1450000D01*
X1299290Y1238210D02*
X1309290D01*
Y1233210D02*
Y1238210D01*
X1299290Y1233210D02*
X1309290D01*
X1299290D02*
Y1238210D01*
X1580500Y1149250D02*
X1590500D01*
X1580500D02*
Y1154250D01*
X1590500D01*
Y1149250D02*
Y1154250D01*
X1440000Y1126250D02*
Y1131250D01*
Y1126250D02*
X1450000D01*
Y1131250D01*
X1440000D02*
X1450000D01*
X1476917Y1177000D02*
X1481917D01*
Y1187000D01*
X1476917D02*
X1481917D01*
X1476917Y1177000D02*
Y1187000D01*
X1495750Y1177000D02*
X1500750D01*
Y1187000D01*
X1495750D02*
X1500750D01*
X1495750Y1177000D02*
Y1187000D01*
X1658230Y1115300D02*
Y1125300D01*
X1653230Y1115300D02*
X1658230D01*
X1653230D02*
Y1125300D01*
X1658230D01*
X1666980Y1115300D02*
Y1125300D01*
X1661980Y1115300D02*
X1666980D01*
X1661980D02*
Y1125300D01*
X1666980D01*
X1634750Y1251250D02*
Y1261250D01*
X1629750Y1251250D02*
X1634750D01*
X1629750D02*
Y1261250D01*
X1634750D01*
X1682250Y1251250D02*
Y1261250D01*
X1687250D01*
Y1251250D02*
Y1261250D01*
X1682250Y1251250D02*
X1687250D01*
X1672750D02*
Y1261250D01*
X1677750D01*
Y1251250D02*
Y1261250D01*
X1672750Y1251250D02*
X1677750D01*
X1440000Y1265750D02*
Y1270750D01*
Y1265750D02*
X1450000D01*
Y1270750D01*
X1440000D02*
X1450000D01*
X1322750Y1108000D02*
Y1117500D01*
X1305250Y1108000D02*
Y1117500D01*
X1322750D01*
X1305250Y1108000D02*
X1322750D01*
X1296250Y1258750D02*
Y1268250D01*
X1313750Y1258750D02*
Y1268250D01*
X1296250Y1258750D02*
X1313750D01*
X1296250Y1268250D02*
X1313750D01*
X1686250Y1153000D02*
Y1226000D01*
X1613250Y1153000D02*
Y1226000D01*
Y1153000D02*
X1686250D01*
X1613250Y1226000D02*
X1686250D01*
X1469000Y1223250D02*
X1493000D01*
X1469000Y1202250D02*
X1493000D01*
Y1223250D01*
X1469000Y1202250D02*
Y1223250D01*
Y1170750D02*
X1493000D01*
X1469000Y1149750D02*
X1493000D01*
Y1170750D01*
X1469000Y1149750D02*
Y1170750D01*
X1469500Y1239500D02*
X1500500D01*
X1469500Y1265500D02*
X1500500D01*
Y1239500D02*
Y1265500D01*
X1469500Y1239500D02*
Y1265500D01*
X1735080Y1234280D02*
X1745080D01*
X1735080Y1229280D02*
X1745080D01*
Y1234280D01*
X1735080Y1229280D02*
Y1234280D01*
X1735080Y1218130D02*
X1745080D01*
X1735080Y1223130D02*
X1745080D01*
X1735080Y1218130D02*
Y1223130D01*
X1745080Y1218130D02*
Y1223130D01*
X1745580Y1140930D02*
Y1145930D01*
X1735580Y1140930D02*
Y1145930D01*
X1745580D01*
X1735580Y1140930D02*
X1745580D01*
X1345250Y1260500D02*
Y1268500D01*
X1329250Y1260500D02*
Y1268500D01*
X1345250D01*
X1329250Y1260500D02*
X1345250D01*
X1329250Y1223000D02*
Y1231000D01*
X1345250Y1223000D02*
Y1231000D01*
X1329250Y1223000D02*
X1345250D01*
X1329250Y1231000D02*
X1345250D01*
X1340000Y1116750D02*
X1345000D01*
X1340000Y1106750D02*
X1345000D01*
X1340000D02*
Y1116750D01*
X1345000Y1106750D02*
Y1116750D01*
X1309000Y1244250D02*
Y1249250D01*
X1299000Y1244250D02*
Y1249250D01*
X1309000D01*
X1299000Y1244250D02*
X1309000D01*
X1507750Y1170500D02*
X1515750D01*
X1507750Y1154500D02*
X1515750D01*
X1507750D02*
Y1170500D01*
X1515750Y1154500D02*
Y1170500D01*
X1507750Y1185750D02*
X1515750D01*
X1507750Y1201750D02*
X1515750D01*
Y1185750D02*
Y1201750D01*
X1507750Y1185750D02*
Y1201750D01*
X1630250Y1278500D02*
X1635250D01*
X1630250Y1268500D02*
X1635250D01*
X1630250D02*
Y1278500D01*
X1635250Y1268500D02*
Y1278500D01*
X1378330Y1202500D02*
Y1210500D01*
X1362330Y1202500D02*
Y1210500D01*
X1378330D01*
X1362330Y1202500D02*
X1378330D01*
X1586000Y1168000D02*
X1591000D01*
X1586000Y1178000D02*
X1591000D01*
Y1168000D02*
Y1178000D01*
X1586000Y1168000D02*
Y1178000D01*
X1577500Y1197500D02*
X1582500D01*
X1577500Y1187500D02*
X1582500D01*
X1577500D02*
Y1197500D01*
X1582500Y1187500D02*
Y1197500D01*
X1576750Y1168000D02*
X1581750D01*
X1576750Y1178000D02*
X1581750D01*
Y1168000D02*
Y1178000D01*
X1576750Y1168000D02*
Y1178000D01*
X1473280Y1127800D02*
X1483280D01*
X1473280Y1132800D02*
X1483280D01*
X1473280Y1127800D02*
Y1132800D01*
X1483280Y1127800D02*
Y1132800D01*
X1571070Y1127800D02*
X1581070D01*
X1571070Y1132800D02*
X1581070D01*
X1571070Y1127800D02*
Y1132800D01*
X1581070Y1127800D02*
Y1132800D01*
X1515190Y1127800D02*
X1525190D01*
X1515190Y1132800D02*
X1525190D01*
X1515190Y1127800D02*
Y1132800D01*
X1525190Y1127800D02*
Y1132800D01*
X1692990Y1127800D02*
X1702990D01*
X1692990Y1132800D02*
X1702990D01*
X1692990Y1127800D02*
Y1132800D01*
X1702990Y1127800D02*
Y1132800D01*
X1588000Y1207500D02*
X1593000D01*
X1588000Y1217500D02*
X1593000D01*
Y1207500D02*
Y1217500D01*
X1588000Y1207500D02*
Y1217500D01*
X1735580Y1157080D02*
X1745580D01*
X1735580Y1152080D02*
X1745580D01*
Y1157080D01*
X1735580Y1152080D02*
Y1157080D01*
X1378330Y1158090D02*
Y1166090D01*
X1362330Y1158090D02*
Y1166090D01*
X1378330D01*
X1362330Y1158090D02*
X1378330D01*
X1606050Y1166190D02*
Y1204290D01*
X1618750D01*
Y1166190D02*
Y1204290D01*
X1606050Y1166190D02*
X1618750D01*
X1659750Y1268500D02*
Y1278500D01*
X1664750Y1268500D02*
Y1278500D01*
X1659750D02*
X1664750D01*
X1659750Y1268500D02*
X1664750D01*
M02*
