%FSLAX44Y44*%
%MOMM*%
G71*
G01*
G75*
%ADD10R,0.6200X0.5700*%
%ADD11R,0.7620X0.7620*%
%ADD12R,2.7940X0.7366*%
%ADD13R,1.3000X0.4500*%
%ADD14R,0.3000X0.3000*%
%ADD15R,0.7620X0.7620*%
%ADD16R,0.5000X0.2000*%
%ADD17C,0.1500*%
%ADD18C,0.2540*%
%ADD19C,0.2000*%
%ADD20C,0.1524*%
%ADD21R,1.8000X1.8000*%
%ADD22C,1.8000*%
%ADD23R,1.8000X1.8000*%
%ADD24C,1.8000*%
%ADD25C,0.8000*%
%ADD26O,1.8000X1.1500*%
%ADD27O,2.0000X1.4500*%
%ADD28C,0.6100*%
%ADD29C,0.6000*%
%ADD30C,3.3000*%
%ADD31R,0.5700X0.6200*%
%ADD32R,1.4000X2.2000*%
%ADD33R,0.9700X0.9600*%
%ADD34R,0.8500X0.3500*%
%ADD35O,1.7500X0.3500*%
%ADD36O,0.3500X1.7500*%
%ADD37R,1.2500X0.3000*%
%ADD38O,0.3000X0.8000*%
%ADD39O,0.8000X0.3000*%
%ADD40R,1.5000X1.0000*%
%ADD41R,0.5500X0.6000*%
%ADD42R,0.9500X0.9500*%
%ADD43R,0.6000X0.5500*%
%ADD44R,0.9500X0.9500*%
%ADD45C,0.2032*%
D10*
X1607500Y1158550D02*
D03*
Y1148950D02*
D03*
X1375250Y1166050D02*
D03*
Y1156450D02*
D03*
D11*
X1317500Y1249485D02*
D03*
Y1235515D02*
D03*
X1718250Y1125985D02*
D03*
Y1112015D02*
D03*
X1718250Y1220985D02*
D03*
Y1207015D02*
D03*
X1718250Y1158485D02*
D03*
Y1144515D02*
D03*
X1718250Y1238765D02*
D03*
Y1252735D02*
D03*
D12*
X1572820Y1162100D02*
D03*
X1532180D02*
D03*
X1572820Y1174800D02*
D03*
X1532180D02*
D03*
X1572820Y1187500D02*
D03*
X1532180D02*
D03*
X1572820Y1200200D02*
D03*
X1532180D02*
D03*
X1572820Y1212900D02*
D03*
X1532180D02*
D03*
D13*
X1342900Y1170640D02*
D03*
Y1177140D02*
D03*
Y1164140D02*
D03*
Y1157640D02*
D03*
Y1183640D02*
D03*
D14*
X1366750Y1173750D02*
D03*
X1358250Y1177250D02*
D03*
Y1170250D02*
D03*
D15*
X1437015Y1139625D02*
D03*
X1450985D02*
D03*
X1437015Y1232625D02*
D03*
X1450985D02*
D03*
X1437015Y1113750D02*
D03*
X1450985D02*
D03*
X1437015Y1207500D02*
D03*
X1450985D02*
D03*
X1437015Y1165500D02*
D03*
X1450985D02*
D03*
X1437015Y1257750D02*
D03*
X1450985D02*
D03*
D16*
X1618750Y1170000D02*
D03*
Y1175000D02*
D03*
Y1180000D02*
D03*
Y1185000D02*
D03*
Y1190000D02*
D03*
Y1195000D02*
D03*
Y1200000D02*
D03*
X1606250D02*
D03*
Y1195000D02*
D03*
Y1190000D02*
D03*
Y1185000D02*
D03*
Y1180000D02*
D03*
Y1175000D02*
D03*
Y1170000D02*
D03*
D21*
X1763250Y1273500D02*
D03*
D22*
X1788650D02*
D03*
X1763250Y1248100D02*
D03*
X1788650D02*
D03*
X1763250Y1222700D02*
D03*
X1788650D02*
D03*
X1763250Y1197300D02*
D03*
X1788650D02*
D03*
X1763250Y1171900D02*
D03*
X1788650D02*
D03*
X1763250Y1146500D02*
D03*
X1788650D02*
D03*
X1763250Y1121100D02*
D03*
X1788650D02*
D03*
X1763250Y1095700D02*
D03*
X1788650D02*
D03*
D23*
X1411054Y1165000D02*
D03*
Y1258002D02*
D03*
D24*
Y1139600D02*
D03*
Y1114200D02*
D03*
Y1232602D02*
D03*
Y1207202D02*
D03*
D25*
X1332400Y1145640D02*
D03*
Y1195640D02*
D03*
D26*
X1304900Y1131890D02*
D03*
Y1209390D02*
D03*
D27*
X1342900Y1133390D02*
D03*
Y1207890D02*
D03*
M02*
