%FSLAX44Y44*%
%MOMM*%
G71*
G01*
G75*
G04 Layer_Physical_Order=4*
G04 Layer_Color=16711680*
%ADD10R,0.7620X0.7620*%
%ADD11R,0.5000X0.2000*%
%ADD12R,0.7620X0.7620*%
%ADD13R,0.3000X0.3000*%
%ADD14R,1.3000X0.4500*%
%ADD15R,2.7940X0.7366*%
%ADD16R,0.6200X0.5700*%
%ADD17C,0.1500*%
%ADD18C,0.2540*%
%ADD19C,0.1524*%
%ADD20O,2.0000X1.4500*%
%ADD21O,1.8000X1.1500*%
%ADD22C,0.8000*%
%ADD23C,1.8000*%
%ADD24R,1.8000X1.8000*%
%ADD25C,1.8000*%
%ADD26R,1.8000X1.8000*%
%ADD27C,0.6100*%
%ADD28C,0.6000*%
%ADD29C,3.3000*%
%ADD30R,0.6000X0.5500*%
%ADD31R,0.9500X0.9500*%
%ADD32R,0.5500X0.6000*%
%ADD33R,0.9500X0.9500*%
%ADD34R,0.8500X0.3500*%
%ADD35R,1.5000X1.0000*%
%ADD36O,0.8000X0.3000*%
%ADD37O,0.3000X0.8000*%
%ADD38R,1.2500X0.3000*%
%ADD39O,0.3500X1.7500*%
%ADD40O,1.7500X0.3500*%
%ADD41R,0.9700X0.9600*%
%ADD42R,0.5700X0.6200*%
%ADD43R,1.4000X2.2000*%
D16*
X1675250Y1261050D02*
D03*
Y1251450D02*
D03*
X1684750Y1261050D02*
D03*
Y1251450D02*
D03*
X1632250D02*
D03*
Y1261050D02*
D03*
X1669480Y1116250D02*
D03*
Y1125850D02*
D03*
X1660730Y1116250D02*
D03*
Y1125850D02*
D03*
X1498250Y1177200D02*
D03*
Y1186800D02*
D03*
X1479417Y1177200D02*
D03*
Y1186800D02*
D03*
X1470000Y1196550D02*
D03*
Y1186950D02*
D03*
X1488833Y1196550D02*
D03*
Y1186950D02*
D03*
X1580250Y1207450D02*
D03*
Y1217050D02*
D03*
D17*
X1662250Y1277750D02*
X1669500D01*
X1661750Y1268750D02*
X1662250Y1269250D01*
X1661750Y1263500D02*
Y1268750D01*
X1660000Y1261750D02*
X1661750Y1263500D01*
X1654250Y1261750D02*
X1660000D01*
X1650500Y1258000D02*
X1654250Y1261750D01*
X1647730Y1259147D02*
X1652550Y1263967D01*
Y1269250D01*
X1647730Y1251480D02*
Y1259147D01*
X1637250Y1241000D02*
X1647730Y1251480D01*
X1650500Y1249750D02*
Y1258000D01*
X1637250Y1231750D02*
Y1241000D01*
X1647250Y1246500D02*
X1650500Y1249750D01*
X1647250Y1231750D02*
Y1246500D01*
X1712000Y1252780D02*
Y1261750D01*
Y1252780D02*
X1714750Y1250030D01*
X1709750Y1184500D02*
X1727750D01*
X1575500Y1196750D02*
X1580000D01*
X1572827Y1199423D02*
X1575500Y1196750D01*
X1572827Y1199423D02*
Y1221060D01*
X1659417Y1167000D02*
X1692000D01*
X1659415Y1167002D02*
X1659417Y1167000D01*
X1659415Y1167002D02*
Y1167473D01*
X1660500Y1162000D02*
X1692000D01*
X1642250Y1180250D02*
X1660500Y1162000D01*
X1632250Y1180250D02*
X1642250D01*
X1628079Y1198809D02*
X1659415Y1167473D01*
X1658805Y1172000D02*
X1692000D01*
X1634750Y1196055D02*
X1658805Y1172000D01*
X1657723Y1177000D02*
X1692000D01*
X1641730Y1192993D02*
X1657723Y1177000D01*
X1665750Y1187000D02*
X1692000D01*
X1634750Y1196055D02*
Y1204250D01*
X1618270Y1203520D02*
Y1209230D01*
X1634250Y1204750D02*
X1634750Y1204250D01*
X1702250Y1192000D02*
X1705500Y1188750D01*
X1692000Y1192000D02*
X1702250D01*
X1352000Y1116000D02*
X1352000Y1116000D01*
X1342500Y1116000D02*
X1352000D01*
X1570910Y1120827D02*
X1575363Y1125280D01*
X1570910Y1112090D02*
X1577270Y1105730D01*
X1579360Y1125280D02*
X1592280D01*
X1576850Y1112230D02*
X1586230D01*
X1573680Y1119600D02*
X1579360Y1125280D01*
X1573680Y1115400D02*
X1576850Y1112230D01*
X1570910Y1112090D02*
Y1120827D01*
X1573680Y1115400D02*
Y1119600D01*
X1578750Y1117500D02*
X1579980Y1118730D01*
X1586230D01*
X1576897Y1126770D02*
X1580320Y1130193D01*
X1576853Y1126770D02*
X1576897D01*
X1576590Y1126507D02*
X1576853Y1126770D01*
X1576590Y1126463D02*
Y1126507D01*
X1575407Y1125280D02*
X1576590Y1126463D01*
X1575363Y1125280D02*
X1575407D01*
X1592280D02*
X1604000Y1137000D01*
X1577270Y1105730D02*
X1586230D01*
X1580320Y1130193D02*
Y1130300D01*
X1590800D01*
X1616750Y1202000D02*
X1618270Y1203520D01*
X1607500Y1202000D02*
X1616750D01*
X1615500Y1212000D02*
X1618270Y1209230D01*
X1607500Y1212000D02*
X1615500D01*
X1590500Y1216750D02*
X1593250D01*
X1598000Y1212000D01*
X1607500D01*
X1572827Y1221060D02*
X1573687Y1221920D01*
X1632250Y1147250D02*
Y1156750D01*
X1677250Y1147250D02*
Y1157000D01*
X1676230Y1158020D02*
X1677250Y1157000D01*
X1735830Y1231670D02*
X1740250Y1227250D01*
Y1224817D02*
Y1227250D01*
Y1224817D02*
X1744330Y1220737D01*
Y1220630D02*
Y1220737D01*
X1735830Y1231670D02*
Y1231780D01*
X1736330Y1154170D02*
X1740750Y1149750D01*
Y1147617D02*
Y1149750D01*
Y1147617D02*
X1744830Y1143537D01*
Y1143430D02*
Y1143537D01*
X1736330Y1154170D02*
Y1154580D01*
X1620250Y1135250D02*
X1630500Y1125000D01*
X1613250Y1135250D02*
X1620250D01*
X1607500Y1141000D02*
X1613250Y1135250D01*
X1630500Y1108500D02*
Y1125000D01*
X1702240Y1130300D02*
Y1141260D01*
X1701000Y1108250D02*
Y1116750D01*
Y1108250D02*
X1703520Y1105730D01*
X1708150D01*
X1701000Y1116750D02*
X1702980Y1118730D01*
X1708150D01*
X1708500Y1119080D01*
X1736000Y1118000D02*
X1736430Y1118430D01*
X1745080D01*
X1713250Y1178250D02*
X1714247Y1179247D01*
X1722580D01*
X1702250Y1177000D02*
X1709750Y1184500D01*
X1692000Y1177000D02*
X1702250D01*
X1511250Y1243500D02*
X1512000Y1242750D01*
Y1215000D02*
Y1242750D01*
X1311500Y1224250D02*
X1312500D01*
X1309090Y1226660D02*
X1311500Y1224250D01*
X1309090Y1226660D02*
Y1235710D01*
X1303250Y1254500D02*
X1304750D01*
X1299750Y1251000D02*
X1303250Y1254500D01*
X1299750Y1246750D02*
Y1251000D01*
X1349250Y1245500D02*
X1358750D01*
X1359000Y1245250D01*
X1313150Y1251650D02*
Y1263500D01*
X1308250Y1246750D02*
X1313150Y1251650D01*
X1333000Y1116000D02*
X1342500D01*
X1329750Y1112750D02*
X1333000Y1116000D01*
X1322150Y1112750D02*
X1329750D01*
X1377580Y1162090D02*
Y1170170D01*
X1374000Y1173750D02*
X1377580Y1170170D01*
X1373000Y1173750D02*
X1374000D01*
X1377580Y1146830D02*
Y1162090D01*
X1482530Y1136030D02*
X1485750Y1139250D01*
X1482530Y1130300D02*
Y1136030D01*
Y1125470D02*
X1484500Y1123500D01*
X1482530Y1125470D02*
Y1130300D01*
X1484500Y1123500D02*
X1488500D01*
X1489710Y1122290D01*
Y1118870D02*
Y1122290D01*
X1484120Y1105870D02*
X1484125Y1105875D01*
X1483000Y1107000D02*
X1484125Y1105875D01*
X1483000Y1107000D02*
Y1117500D01*
X1484120Y1105870D02*
X1489710D01*
X1483000Y1117500D02*
X1484370Y1118870D01*
X1489710D01*
X1524440Y1130300D02*
Y1135060D01*
X1519000Y1140500D02*
X1524440Y1135060D01*
X1519000Y1140500D02*
Y1145250D01*
X1508350Y1118870D02*
X1508480Y1119000D01*
X1513750D01*
X1515940Y1121190D01*
Y1130300D01*
X1523000Y1117750D02*
X1524120Y1118870D01*
X1523000Y1107250D02*
Y1117750D01*
Y1107250D02*
X1524380Y1105870D01*
X1530350D01*
X1524120Y1118870D02*
X1530350D01*
Y1127900D01*
X1527950Y1130300D02*
X1530350Y1127900D01*
X1524440Y1130300D02*
X1527950D01*
X1519000Y1145250D02*
Y1145750D01*
X1522750Y1149500D01*
Y1165000D01*
X1518500Y1169250D02*
X1522750Y1165000D01*
X1512250Y1169250D02*
X1518500D01*
X1511750Y1169750D02*
X1512250Y1169250D01*
X1511750Y1169750D02*
Y1186500D01*
X1476250Y1220250D02*
X1477250Y1219250D01*
X1465210Y1220250D02*
X1476250D01*
X1460750Y1249750D02*
X1461000Y1250000D01*
X1470000D01*
X1480000Y1257500D02*
X1485000Y1252500D01*
X1480000Y1257500D02*
Y1265000D01*
X1485000Y1252500D02*
X1490000Y1257500D01*
Y1265000D01*
X1475000D02*
X1480000D01*
X1490000D02*
X1495000D01*
X1482500Y1250000D02*
X1485000Y1252500D01*
X1470000Y1250000D02*
X1482500D01*
X1377580Y1206500D02*
Y1217420D01*
Y1199080D02*
Y1206500D01*
X1375000Y1196500D02*
X1377580Y1199080D01*
X1375000Y1188000D02*
Y1196500D01*
Y1188000D02*
X1377500Y1185500D01*
X1382500D01*
X1327000Y1216500D02*
X1330000Y1219500D01*
Y1227000D01*
X1299490Y1226760D02*
X1299500Y1226750D01*
X1299490Y1226760D02*
Y1235710D01*
X1299750Y1235970D01*
X1356500Y1264500D02*
X1356750Y1264250D01*
X1344500Y1264500D02*
X1356500D01*
X1310000Y1275000D02*
X1313150Y1271850D01*
Y1263500D02*
Y1271850D01*
X1462571Y1196558D02*
Y1197308D01*
X1465500Y1231000D02*
X1477250D01*
X1482250D02*
X1485000Y1233750D01*
Y1240000D01*
X1466000Y1239250D02*
X1466750Y1240000D01*
X1475000D01*
X1490000Y1228250D02*
Y1240000D01*
X1402000Y1151750D02*
X1418500D01*
X1470000Y1196550D02*
X1478050D01*
X1449800Y1210800D02*
Y1218500D01*
X1446202Y1207202D02*
X1449800Y1210800D01*
X1396500Y1157250D02*
Y1177250D01*
Y1157250D02*
X1402000Y1151750D01*
X1418500D02*
X1424000Y1146250D01*
X1441250D01*
X1449800Y1137700D01*
Y1128750D02*
Y1137700D01*
Y1243500D02*
X1450050Y1243250D01*
X1495000Y1230500D02*
Y1240000D01*
X1509750Y1252500D02*
Y1272250D01*
X1505000Y1277000D02*
X1509750Y1272250D01*
X1453000Y1277000D02*
X1505000D01*
X1449800Y1268250D02*
Y1273800D01*
X1453000Y1277000D01*
X1507250Y1250000D02*
X1509750Y1252500D01*
X1500000Y1250000D02*
X1507250D01*
X1500000Y1233250D02*
X1506000Y1227250D01*
Y1217000D02*
Y1227250D01*
X1504250Y1215250D02*
X1506000Y1217000D01*
X1496790Y1215250D02*
X1504250D01*
X1500000Y1233250D02*
Y1250000D01*
X1449800Y1103500D02*
Y1109950D01*
X1445550Y1114200D02*
X1449800Y1109950D01*
X1411054Y1114200D02*
X1445550D01*
X1411054Y1165000D02*
X1445750D01*
X1449800Y1160950D01*
Y1155750D02*
Y1160950D01*
X1411054Y1258002D02*
X1411056Y1258000D01*
X1446500D01*
X1449800Y1261300D01*
Y1268250D01*
X1430500Y1268500D02*
X1430750Y1268250D01*
X1440200D01*
X1431250Y1243500D02*
X1440200D01*
X1439700Y1155250D02*
X1440200Y1155750D01*
X1429750Y1155250D02*
X1439700D01*
X1430750Y1128750D02*
X1440200D01*
X1431500Y1103000D02*
X1432000Y1103500D01*
X1440200D01*
X1464250Y1128000D02*
X1464500D01*
X1461250Y1125000D02*
X1464250Y1128000D01*
X1461250Y1108000D02*
Y1125000D01*
X1456750Y1103500D02*
X1461250Y1108000D01*
X1449800Y1103500D02*
X1456750D01*
X1677750Y1267250D02*
X1701500D01*
X1675250Y1264750D02*
X1677750Y1267250D01*
X1675250Y1261050D02*
Y1264750D01*
X1684750Y1261050D02*
X1684800Y1261000D01*
X1698250D01*
X1673730Y1112000D02*
X1695000D01*
X1669480Y1116250D02*
X1673730Y1112000D01*
X1695000D02*
X1695250Y1111750D01*
X1662250Y1135500D02*
Y1147250D01*
X1660500Y1133750D02*
X1662250Y1135500D01*
X1660500Y1126080D02*
Y1133750D01*
X1669480Y1125850D02*
Y1133270D01*
X1667250Y1135500D02*
X1669480Y1133270D01*
X1667250Y1135500D02*
Y1147250D01*
X1660500Y1126080D02*
X1660730Y1125850D01*
X1489450Y1177200D02*
X1498250D01*
X1488750Y1176500D02*
X1489450Y1177200D01*
X1607500Y1225750D02*
X1607750Y1225500D01*
X1611332D01*
X1642250Y1219500D02*
Y1231750D01*
X1488520Y1196863D02*
X1488833Y1196550D01*
X1496790Y1167750D02*
Y1170290D01*
X1498250Y1171750D01*
Y1177200D01*
X1647250Y1231750D02*
X1647770Y1232270D01*
X1675250Y1245500D02*
Y1251450D01*
X1672250Y1242500D02*
X1675250Y1245500D01*
X1684250Y1250950D02*
X1684750Y1251450D01*
X1684250Y1246250D02*
Y1250950D01*
X1681500Y1243500D02*
X1684250Y1246250D01*
X1679250Y1243500D02*
X1681500D01*
X1677250Y1241500D02*
X1679250Y1243500D01*
X1677250Y1231750D02*
Y1241500D01*
X1620500Y1177000D02*
X1634250Y1163250D01*
X1607500Y1141000D02*
Y1162000D01*
X1561000Y1174000D02*
X1564250Y1177250D01*
X1561000Y1148750D02*
Y1174000D01*
Y1191500D02*
Y1211750D01*
Y1191500D02*
X1564250Y1188250D01*
X1580000D01*
X1596000Y1187000D02*
X1607500D01*
X1588250Y1183250D02*
X1597000Y1192000D01*
X1607500D01*
X1580000Y1188250D02*
X1589250D01*
X1592000Y1191000D01*
Y1193750D01*
X1595250Y1197000D01*
X1607500D01*
X1580250Y1207450D02*
X1580700Y1207000D01*
X1584750D01*
X1586000Y1208250D01*
X1590500D01*
X1590500Y1208250D01*
X1595000D01*
X1596250Y1207000D01*
X1607500D01*
X1627250Y1231750D02*
Y1241250D01*
X1672250Y1231750D02*
Y1242500D01*
X1621583Y1172000D02*
X1624750Y1168833D01*
Y1162500D02*
Y1168833D01*
X1607500Y1172000D02*
X1621583D01*
X1634250Y1162000D02*
Y1163250D01*
X1607500Y1177000D02*
X1620500D01*
X1624750Y1162500D02*
X1625250Y1162000D01*
X1493750Y1126750D02*
X1497500Y1123000D01*
X1495620Y1112370D02*
X1497500Y1114250D01*
X1489710Y1112370D02*
X1495620D01*
X1493750Y1126750D02*
Y1130250D01*
X1503630Y1105870D02*
X1508350D01*
X1500500Y1109000D02*
X1503630Y1105870D01*
X1505500Y1139500D02*
X1506250D01*
X1500500Y1134500D02*
X1505500Y1139500D01*
X1607250Y1167250D02*
X1607500Y1167000D01*
X1723043Y1195750D02*
X1723080Y1195713D01*
X1711000Y1195750D02*
X1723043D01*
X1707750Y1166750D02*
X1708000D01*
X1707500Y1167000D02*
X1707750Y1166750D01*
X1692000Y1167000D02*
X1707500D01*
X1722327Y1173000D02*
X1722580Y1172747D01*
X1467710Y1105870D02*
X1467750Y1105830D01*
Y1096500D02*
Y1105830D01*
X1530350Y1112370D02*
X1530480Y1112500D01*
X1541750D01*
X1564230Y1105730D02*
X1564500Y1105460D01*
Y1094750D02*
Y1105460D01*
X1744580Y1256530D02*
X1744860Y1256250D01*
X1478050Y1196550D02*
X1482750Y1201250D01*
X1590500Y1216750D02*
Y1221000D01*
X1594250Y1224750D01*
X1597750D01*
X1580500Y1243000D02*
X1598250D01*
X1630980Y1220980D02*
X1632250Y1222250D01*
Y1231750D01*
X1580000Y1177250D02*
Y1181500D01*
X1581750Y1183250D01*
X1588250D01*
X1564250Y1177250D02*
X1580000D01*
Y1168750D02*
X1580000Y1168750D01*
X1598250Y1243000D02*
X1620270Y1220980D01*
X1630980D01*
X1611332Y1225500D02*
X1618622Y1218210D01*
X1632000Y1171250D02*
X1634500D01*
X1632250Y1156750D02*
X1633520Y1158020D01*
X1676230D01*
X1589000Y1153050D02*
X1590300Y1151750D01*
X1589000Y1153050D02*
Y1168750D01*
X1580000D02*
X1589000D01*
X1590750Y1181750D02*
X1596000Y1187000D01*
X1559340Y1112090D02*
X1570910D01*
X1552750Y1105500D02*
X1559340Y1112090D01*
X1590300Y1151700D02*
Y1151750D01*
X1590800Y1130300D02*
X1595750Y1135250D01*
Y1146250D01*
X1590300Y1151700D02*
X1595750Y1146250D01*
X1588500Y1177250D02*
X1588607D01*
X1596730Y1160439D02*
Y1163562D01*
X1588607Y1177250D02*
X1593960Y1171897D01*
Y1159291D02*
Y1171897D01*
Y1159291D02*
X1598250Y1155001D01*
X1596730Y1163562D02*
X1600418Y1167250D01*
X1607250D01*
X1598250Y1151000D02*
X1598500D01*
X1598750Y1151250D01*
X1600849Y1156320D02*
X1600850D01*
X1596730Y1160439D02*
X1600849Y1156320D01*
X1600850D02*
X1604000Y1153170D01*
Y1137000D02*
Y1153170D01*
X1590750Y1177250D02*
Y1181750D01*
X1639250Y1213500D02*
X1665750Y1187000D01*
X1641730Y1192993D02*
Y1206770D01*
X1625000Y1213500D02*
X1639250D01*
X1627820Y1209820D02*
X1638680D01*
X1641730Y1206770D01*
X1622930Y1204930D02*
X1627820Y1209820D01*
X1622930Y1180320D02*
X1632000Y1171250D01*
X1622930Y1180320D02*
Y1204930D01*
X1598250Y1151000D02*
Y1155001D01*
X1497500Y1114250D02*
Y1123000D01*
X1500500Y1109000D02*
Y1134500D01*
X1508350Y1112900D02*
Y1118870D01*
Y1112900D02*
X1508500Y1112750D01*
X1449800Y1235450D02*
Y1243500D01*
Y1235450D02*
X1459750Y1225500D01*
X1435511Y1218500D02*
X1440200D01*
X1430070Y1213059D02*
X1435511Y1218500D01*
X1377500Y1217500D02*
X1377580Y1217420D01*
X1396500Y1177250D02*
X1404250Y1185000D01*
X1425250D01*
X1495000Y1230500D02*
X1497000Y1228500D01*
X1496790Y1220250D02*
X1497000Y1220460D01*
X1477250Y1231000D02*
X1480000Y1233750D01*
Y1240000D01*
X1497000Y1220460D02*
Y1228500D01*
X1459750Y1225500D02*
X1487250D01*
X1490000Y1228250D01*
X1485750Y1206250D02*
Y1212750D01*
X1488250Y1215250D01*
X1496790D01*
X1482750Y1201250D02*
Y1213750D01*
X1489250Y1220250D01*
X1496790D01*
X1488520Y1196863D02*
Y1203480D01*
X1485750Y1206250D02*
X1488520Y1203480D01*
X1454500Y1189237D02*
X1462571Y1197308D01*
X1454500Y1180000D02*
Y1189237D01*
Y1180000D02*
X1457625Y1176875D01*
X1445750Y1165000D02*
X1457625Y1176875D01*
X1461000Y1187550D02*
X1470000Y1196550D01*
X1461000Y1182250D02*
Y1187550D01*
X1457950Y1177200D02*
X1457970Y1177180D01*
X1479397D02*
X1479417Y1177200D01*
X1490250Y1162750D02*
X1496790D01*
X1677250Y1147250D02*
X1696250D01*
X1702240Y1141260D01*
X1735830Y1231780D02*
Y1238420D01*
X1686500Y1153500D02*
X1688000D01*
X1693000Y1158500D01*
Y1161000D01*
X1692000Y1162000D02*
X1693000Y1161000D01*
X1708000Y1166750D02*
X1708083Y1166833D01*
Y1167557D01*
X1692000Y1172000D02*
X1693000Y1173000D01*
X1722327D01*
X1660730Y1110020D02*
Y1116250D01*
Y1110020D02*
X1663500Y1107250D01*
X1671000D01*
X1479417Y1173583D02*
Y1177200D01*
Y1173583D02*
X1490250Y1162750D01*
X1457970Y1177180D02*
X1466760D01*
X1467900Y1178320D01*
X1472100D01*
X1473240Y1177180D01*
X1479397D01*
X1465210Y1167750D02*
Y1172210D01*
X1466250Y1173250D01*
X1470000D01*
X1708150Y1105730D02*
X1733730D01*
X1734500Y1106500D01*
X1702240Y1130300D02*
X1706450D01*
X1708500Y1128250D01*
Y1119080D02*
Y1128250D01*
X1376500Y1145750D02*
X1377580Y1146830D01*
X1411054Y1207202D02*
X1446202D01*
X1425250Y1185000D02*
X1437250Y1197000D01*
X1618622Y1218210D02*
X1640960D01*
X1642250Y1219500D01*
X1632250Y1246250D02*
Y1251450D01*
X1627250Y1241250D02*
X1632250Y1246250D01*
Y1231750D02*
Y1241750D01*
X1734750Y1239500D02*
X1736500D01*
X1734750D02*
X1735830Y1238420D01*
Y1238830D02*
X1736500Y1239500D01*
X1722580Y1256530D02*
X1730280D01*
X1730500Y1256750D01*
X1626500Y1277750D02*
X1632750D01*
X1642950Y1252450D02*
Y1269250D01*
X1632250Y1241750D02*
X1642950Y1252450D01*
X1632750Y1269250D02*
X1642950D01*
X1632750Y1261550D02*
Y1269250D01*
X1632250Y1261050D02*
X1632750Y1261550D01*
X1633000Y1277500D02*
X1642950D01*
X1632750Y1277750D02*
X1633000Y1277500D01*
X1652550Y1269250D02*
Y1277500D01*
X1714750Y1250030D02*
X1722580D01*
X1705750Y1222250D02*
Y1263000D01*
X1701500Y1267250D02*
X1705750Y1263000D01*
X1640070Y1098930D02*
X1679350D01*
X1630500Y1108500D02*
X1640070Y1098930D01*
X1679350D02*
X1686150Y1105730D01*
X1727750Y1184500D02*
X1731265Y1180985D01*
X1662250Y1210500D02*
Y1231750D01*
X1673500Y1192000D02*
X1692000D01*
X1662250Y1203250D02*
X1673500Y1192000D01*
X1662250Y1203250D02*
Y1210500D01*
X1662250Y1210500D01*
X1744580Y1256530D02*
Y1266330D01*
X1751750Y1273500D01*
X1763250D01*
X1744580Y1179247D02*
X1751747D01*
X1756000Y1183500D01*
X1723080Y1118430D02*
X1728180D01*
X1731265Y1121515D01*
Y1180985D01*
X1708150Y1112230D02*
X1752520D01*
X1754670Y1110080D01*
X1771330D01*
X1777250Y1116000D01*
Y1185900D02*
X1788650Y1197300D01*
X1745080Y1124930D02*
X1751495D01*
X1763250Y1197300D02*
X1774270Y1186280D01*
X1751495Y1124930D02*
X1760065Y1133500D01*
X1767000D01*
X1774270Y1140770D01*
X1752579Y1202213D02*
X1758685Y1208320D01*
X1767815D01*
X1745080Y1202213D02*
X1752579D01*
X1777250Y1116000D02*
Y1185900D01*
X1774270Y1140770D02*
Y1186280D01*
X1736330Y1154580D02*
Y1181080D01*
X1745080Y1189830D01*
Y1195713D01*
X1767815Y1208320D02*
X1772567Y1203567D01*
X1779067D01*
X1782500Y1207000D01*
Y1213265D01*
X1777630Y1218135D02*
X1782500Y1213265D01*
X1777630Y1218135D02*
Y1233720D01*
X1763250Y1248100D02*
X1777630Y1233720D01*
X1776700Y1209250D02*
X1776750D01*
X1763250Y1222700D02*
X1776700Y1209250D01*
X1744830Y1143430D02*
X1751510Y1136750D01*
X1752500D01*
D18*
X1744580Y1154830D02*
X1744830Y1154580D01*
X1731750Y1216550D02*
X1735830Y1220630D01*
X1304900Y1131890D02*
Y1209390D01*
X1479417Y1186800D02*
X1498250D01*
X1330000Y1258250D02*
Y1264500D01*
X1327250Y1255500D02*
X1330000Y1258250D01*
X1327250Y1252000D02*
Y1255500D01*
X1349250Y1239000D02*
X1362500D01*
X1337500D02*
X1349250D01*
X1296850Y1255850D02*
Y1263500D01*
X1304900Y1209390D02*
X1306400Y1207890D01*
X1342900D01*
X1305850Y1130940D02*
X1306040Y1130750D01*
X1304900Y1131890D02*
X1305850Y1130940D01*
X1306040Y1130750D02*
X1320000D01*
X1322640Y1133390D01*
X1342900D01*
X1305850Y1112750D02*
Y1130940D01*
X1470150Y1186800D02*
X1479417D01*
X1470000Y1186950D02*
X1470150Y1186800D01*
X1498000Y1187050D02*
X1498250Y1186800D01*
X1496790Y1205250D02*
X1501040Y1201000D01*
X1344500Y1227000D02*
X1349250Y1231750D01*
Y1239000D01*
X1382500Y1179000D02*
X1389500D01*
X1391500Y1181000D01*
Y1190250D01*
X1389750Y1192000D02*
X1391500Y1190250D01*
X1382500Y1192000D02*
X1389750D01*
X1382500Y1192000D02*
X1382500Y1192000D01*
X1391500Y1190250D02*
X1392750D01*
X1393000Y1190500D01*
X1342500Y1107500D02*
X1352250D01*
X1352250Y1107500D01*
X1496790Y1152750D02*
X1509250D01*
X1511750Y1155250D01*
X1482250Y1152750D02*
X1496790D01*
X1465210Y1215250D02*
X1473345D01*
X1474935Y1213660D01*
X1475090D01*
X1477500Y1211250D01*
X1580250Y1217050D02*
Y1242750D01*
X1580500Y1243000D01*
X1500000Y1255000D02*
Y1260250D01*
X1503500Y1263750D01*
X1363080Y1199580D02*
Y1206500D01*
X1361000Y1197500D02*
X1363080Y1199580D01*
X1361000Y1192500D02*
Y1197500D01*
X1360500Y1192000D02*
X1361000Y1192500D01*
X1363080Y1144580D02*
Y1162090D01*
X1363000Y1144500D02*
X1363080Y1144580D01*
Y1206500D02*
Y1216830D01*
X1363250Y1217000D01*
X1457500Y1210250D02*
X1465210D01*
X1456000Y1211750D02*
X1457500Y1210250D01*
X1456000Y1211750D02*
Y1223250D01*
X1445750Y1233500D02*
X1456000Y1223250D01*
X1428250Y1233500D02*
X1445750D01*
X1423010Y1220000D02*
X1427320Y1224310D01*
X1362500Y1239000D02*
X1366250Y1242750D01*
X1349250Y1252000D02*
X1363500D01*
X1366250Y1249250D01*
Y1242750D02*
Y1249250D01*
X1382500Y1192000D02*
Y1196000D01*
X1392750Y1220000D02*
X1423010D01*
X1362500Y1239000D02*
X1369500Y1232000D01*
X1380750D01*
X1392750Y1220000D01*
Y1206250D02*
Y1220000D01*
X1382500Y1196000D02*
X1392750Y1206250D01*
X1693740Y1119990D02*
Y1130300D01*
X1692250Y1118500D02*
X1693740Y1119990D01*
X1686380Y1118500D02*
X1692250D01*
X1686150Y1118730D02*
X1686380Y1118500D01*
X1715070Y1131430D02*
X1723080D01*
X1711250Y1135250D02*
X1715070Y1131430D01*
X1693740Y1130300D02*
Y1137740D01*
X1694750Y1138750D01*
X1330000Y1264500D02*
Y1270500D01*
X1334500Y1275000D01*
X1501040Y1201000D02*
X1511750D01*
X1456500Y1152750D02*
X1465210D01*
X1451556Y1147806D02*
X1456500Y1152750D01*
X1451321Y1147806D02*
X1451556D01*
X1449590Y1178590D02*
Y1202590D01*
X1446000Y1175000D02*
X1449590Y1178590D01*
X1376250Y1245000D02*
Y1263500D01*
X1364750Y1275000D02*
X1376250Y1263500D01*
X1334500Y1275000D02*
X1364750D01*
X1449590Y1202590D02*
X1452250Y1205250D01*
X1465210D01*
X1498000Y1187050D02*
Y1197960D01*
X1501040Y1201000D01*
X1467710Y1118870D02*
X1472620D01*
X1474030Y1120280D01*
X1488250Y1157750D02*
X1496790D01*
X1455500Y1120250D02*
X1457960Y1122710D01*
Y1129365D02*
X1462185Y1133590D01*
X1457960Y1122710D02*
Y1129365D01*
X1462185Y1133590D02*
X1462496D01*
X1426500Y1120250D02*
X1455500D01*
X1426000Y1120750D02*
X1426500Y1120250D01*
X1474030Y1120280D02*
Y1130300D01*
X1564230Y1118730D02*
Y1122710D01*
X1672250Y1137500D02*
Y1147250D01*
Y1137500D02*
X1677500Y1132250D01*
X1517910Y1209410D02*
X1522000Y1213500D01*
Y1222250D01*
X1521500Y1222750D02*
X1522000Y1222250D01*
X1496790Y1210250D02*
X1506660D01*
X1507500Y1209410D01*
X1517910D01*
X1744330Y1231780D02*
X1744580Y1232030D01*
X1717247Y1166247D02*
X1722580D01*
X1712750Y1161750D02*
X1717247Y1166247D01*
X1706435Y1161840D02*
X1711065D01*
X1711156Y1161750D02*
X1712750D01*
X1711065Y1161840D02*
X1711156Y1161750D01*
X1696250Y1153250D02*
X1697845D01*
X1706435Y1161840D01*
X1739713Y1208713D02*
X1745080D01*
X1734750Y1203750D02*
X1739713Y1208713D01*
X1744615Y1130965D02*
X1745080Y1131430D01*
X1738642Y1130965D02*
X1744615D01*
X1583250Y1142750D02*
X1590500D01*
X1580700Y1145300D02*
X1583250Y1142750D01*
X1580700Y1145300D02*
Y1151750D01*
X1722580Y1243530D02*
X1728030D01*
X1733500Y1249000D01*
X1472500Y1146500D02*
X1474160Y1148160D01*
X1472500Y1143595D02*
Y1146500D01*
X1462496Y1133590D02*
X1472500Y1143595D01*
X1465210Y1162750D02*
X1465210Y1162750D01*
X1477750Y1167250D02*
X1478750D01*
X1488250Y1157750D01*
X1465210Y1162750D02*
X1473138D01*
X1479750Y1156138D01*
X1465210Y1157750D02*
X1472750D01*
X1474160Y1156340D01*
Y1148160D02*
Y1156340D01*
X1426820Y1201809D02*
X1427601Y1202590D01*
X1449590D01*
X1731750Y1211500D02*
Y1216550D01*
X1669250Y1218500D02*
X1678500D01*
X1692000Y1212000D02*
X1705250D01*
X1708537Y1208713D01*
X1723080D01*
X1564230Y1122710D02*
X1571820Y1130300D01*
X1678500Y1218500D02*
X1682875Y1222875D01*
X1684750Y1228750D02*
X1690250D01*
X1682875Y1226875D02*
X1684750Y1228750D01*
X1682875Y1222875D02*
Y1226875D01*
X1647250Y1109000D02*
X1652250Y1104000D01*
X1647250Y1109000D02*
Y1147250D01*
X1736000Y1128323D02*
X1738642Y1130965D01*
X1667250Y1220500D02*
X1669250Y1218500D01*
X1667250Y1220500D02*
Y1231750D01*
X1723080Y1208713D02*
X1728963D01*
X1731750Y1211500D01*
X1744580Y1232030D02*
Y1237500D01*
Y1243530D01*
X1745330Y1238250D02*
X1749250D01*
X1744580Y1237500D02*
X1745330Y1238250D01*
X1733500Y1249000D02*
X1748702D01*
X1749060Y1238060D02*
X1749250Y1238250D01*
X1748835Y1238060D02*
X1749060D01*
X1748702Y1249000D02*
X1751710Y1245992D01*
Y1243320D02*
Y1245992D01*
X1745080Y1208713D02*
Y1212038D01*
X1749620Y1216578D01*
Y1230940D01*
X1754425Y1235745D01*
Y1240605D01*
X1751710Y1243320D02*
X1754425Y1240605D01*
X1736306Y1136555D02*
X1736335D01*
X1736306D02*
X1736330Y1136580D01*
Y1143430D01*
X1744580Y1160000D02*
X1753750D01*
X1744580Y1154830D02*
Y1160000D01*
Y1166247D01*
D19*
X1652250Y1231750D02*
Y1241311D01*
X1653226Y1242287D01*
Y1245512D01*
X1658702Y1250988D01*
Y1255750D01*
X1656414Y1256250D02*
X1658202D01*
X1658702Y1255750D01*
X1657250Y1231750D02*
Y1241311D01*
X1656274Y1242287D02*
Y1244250D01*
Y1242287D02*
X1657250Y1241311D01*
X1656274Y1244250D02*
X1661750Y1249726D01*
Y1255750D01*
X1662250Y1256250D01*
X1664038D01*
D20*
X1342900Y1207890D02*
D03*
Y1133390D02*
D03*
D21*
X1304900Y1209390D02*
D03*
Y1131890D02*
D03*
D22*
X1332400Y1195640D02*
D03*
Y1145640D02*
D03*
D23*
X1411054Y1207202D02*
D03*
Y1232602D02*
D03*
Y1114200D02*
D03*
Y1139600D02*
D03*
D24*
Y1258002D02*
D03*
Y1165000D02*
D03*
D25*
X1788650Y1095700D02*
D03*
X1763250D02*
D03*
X1788650Y1121100D02*
D03*
X1763250D02*
D03*
X1788650Y1146500D02*
D03*
X1763250D02*
D03*
X1788650Y1171900D02*
D03*
X1763250D02*
D03*
X1788650Y1197300D02*
D03*
X1763250D02*
D03*
X1788650Y1222700D02*
D03*
X1763250D02*
D03*
X1788650Y1248100D02*
D03*
X1763250D02*
D03*
X1788650Y1273500D02*
D03*
D26*
X1763250D02*
D03*
D27*
X1669500Y1277750D02*
D03*
X1705500Y1188750D02*
D03*
X1352000Y1116000D02*
D03*
X1578750Y1117500D02*
D03*
X1572827Y1221060D02*
D03*
X1553500Y1186250D02*
D03*
X1554250Y1173750D02*
D03*
X1736000Y1118000D02*
D03*
X1713250Y1178250D02*
D03*
X1512000Y1215000D02*
D03*
X1359000Y1245250D02*
D03*
X1337500Y1239000D02*
D03*
X1294813Y1253811D02*
D03*
X1304750Y1254500D02*
D03*
X1376500Y1145750D02*
D03*
X1530350Y1127900D02*
D03*
X1519000Y1145250D02*
D03*
X1477250Y1219250D02*
D03*
X1460750Y1249750D02*
D03*
X1327000Y1216500D02*
D03*
X1299500Y1226750D02*
D03*
X1356750Y1264250D02*
D03*
X1310000Y1275000D02*
D03*
X1312500Y1224250D02*
D03*
X1511250Y1243500D02*
D03*
X1465500Y1231000D02*
D03*
X1466000Y1239250D02*
D03*
X1430500Y1268500D02*
D03*
X1431250Y1243500D02*
D03*
X1429750Y1155250D02*
D03*
X1430750Y1128750D02*
D03*
X1431500Y1103000D02*
D03*
X1464500Y1128000D02*
D03*
X1698250Y1261000D02*
D03*
X1671000Y1107250D02*
D03*
X1695250Y1111750D02*
D03*
X1488750Y1176500D02*
D03*
X1607500Y1224750D02*
D03*
X1695000Y1273500D02*
D03*
X1711000Y1195750D02*
D03*
X1590500Y1142750D02*
D03*
X1625250Y1162000D02*
D03*
X1493750Y1130250D02*
D03*
X1506250Y1139500D02*
D03*
X1564500Y1094750D02*
D03*
X1393000Y1190500D02*
D03*
X1352250Y1107500D02*
D03*
X1477500Y1211250D02*
D03*
X1501250Y1196750D02*
D03*
X1479750Y1155250D02*
D03*
X1460750Y1139750D02*
D03*
X1597750Y1224750D02*
D03*
X1580500Y1243000D02*
D03*
X1503500Y1263750D02*
D03*
X1622079Y1213059D02*
D03*
X1634500Y1171250D02*
D03*
X1628000Y1190340D02*
D03*
X1632250Y1180250D02*
D03*
X1634830Y1163307D02*
D03*
X1552750Y1105500D02*
D03*
X1598750Y1151250D02*
D03*
X1634250Y1204750D02*
D03*
X1628079Y1198809D02*
D03*
X1363000Y1144500D02*
D03*
X1363250Y1217000D02*
D03*
X1477000Y1112000D02*
D03*
X1508500Y1112750D02*
D03*
X1426000Y1120750D02*
D03*
X1428250Y1233500D02*
D03*
X1377500Y1217500D02*
D03*
X1711250Y1135250D02*
D03*
X1376250Y1245000D02*
D03*
X1446000Y1175000D02*
D03*
X1451321Y1147806D02*
D03*
X1461000Y1182250D02*
D03*
X1476750Y1121250D02*
D03*
X1485750Y1139250D02*
D03*
X1677500Y1132250D02*
D03*
X1686500Y1153500D02*
D03*
X1694750Y1138750D02*
D03*
X1521500Y1222750D02*
D03*
X1696250Y1153250D02*
D03*
X1708083Y1167557D02*
D03*
X1477750Y1167250D02*
D03*
X1470000Y1173250D02*
D03*
X1734500Y1106500D02*
D03*
X1373000Y1173750D02*
D03*
X1462571Y1196558D02*
D03*
X1427320Y1224310D02*
D03*
X1430070Y1213059D02*
D03*
X1426820Y1201809D02*
D03*
X1437250Y1197000D02*
D03*
X1735830Y1238830D02*
D03*
X1725500Y1228750D02*
D03*
X1705750Y1222250D02*
D03*
X1730500Y1256750D02*
D03*
X1626500Y1277750D02*
D03*
X1484500Y1231000D02*
D03*
X1656414Y1256250D02*
D03*
X1664038D02*
D03*
X1690250Y1228750D02*
D03*
X1712000Y1261750D02*
D03*
X1652250Y1104000D02*
D03*
X1725500Y1158500D02*
D03*
X1725364Y1151130D02*
D03*
X1732750Y1211750D02*
D03*
X1734750Y1203750D02*
D03*
X1748835Y1238060D02*
D03*
X1736335Y1128323D02*
D03*
Y1136555D02*
D03*
X1753750Y1160000D02*
D03*
X1757500Y1184250D02*
D03*
X1776750Y1209250D02*
D03*
X1752500Y1136750D02*
D03*
D28*
X1541750Y1112500D02*
D03*
X1467750Y1096500D02*
D03*
X1565000Y1124750D02*
D03*
D29*
X1610000Y1115500D02*
D03*
Y1260000D02*
D03*
D30*
X1662250Y1269250D02*
D03*
Y1277750D02*
D03*
X1590500Y1216750D02*
D03*
Y1208250D02*
D03*
X1579250Y1177250D02*
D03*
Y1168750D02*
D03*
X1580000Y1188250D02*
D03*
Y1196750D02*
D03*
X1588500Y1177250D02*
D03*
Y1168750D02*
D03*
X1632750Y1269250D02*
D03*
Y1277750D02*
D03*
X1342500Y1107500D02*
D03*
Y1116000D02*
D03*
D31*
X1363080Y1162090D02*
D03*
X1377580D02*
D03*
X1363080Y1206500D02*
D03*
X1377580D02*
D03*
X1344500Y1227000D02*
D03*
X1330000D02*
D03*
Y1264500D02*
D03*
X1344500D02*
D03*
D32*
X1736330Y1154580D02*
D03*
X1744830D02*
D03*
X1702240Y1130300D02*
D03*
X1693740D02*
D03*
X1524440D02*
D03*
X1515940D02*
D03*
X1580320D02*
D03*
X1571820D02*
D03*
X1482530D02*
D03*
X1474030D02*
D03*
X1299750Y1246750D02*
D03*
X1308250D02*
D03*
X1736330Y1143430D02*
D03*
X1744830D02*
D03*
X1744330Y1220630D02*
D03*
X1735830D02*
D03*
Y1231780D02*
D03*
X1744330D02*
D03*
D33*
X1511750Y1201000D02*
D03*
Y1186500D02*
D03*
Y1155250D02*
D03*
Y1169750D02*
D03*
D34*
X1360500Y1192000D02*
D03*
Y1179000D02*
D03*
X1382500D02*
D03*
Y1185500D02*
D03*
Y1192000D02*
D03*
X1686150Y1118730D02*
D03*
Y1105730D02*
D03*
X1708150D02*
D03*
Y1112230D02*
D03*
Y1118730D02*
D03*
X1467710Y1118870D02*
D03*
Y1105870D02*
D03*
X1489710D02*
D03*
Y1112370D02*
D03*
Y1118870D02*
D03*
X1564230Y1118730D02*
D03*
Y1105730D02*
D03*
X1586230D02*
D03*
Y1112230D02*
D03*
Y1118730D02*
D03*
X1327250Y1252000D02*
D03*
Y1239000D02*
D03*
X1349250D02*
D03*
Y1245500D02*
D03*
Y1252000D02*
D03*
X1723080Y1208713D02*
D03*
Y1195713D02*
D03*
X1745080D02*
D03*
Y1202213D02*
D03*
Y1208713D02*
D03*
X1723080Y1131430D02*
D03*
Y1118430D02*
D03*
X1745080D02*
D03*
Y1124930D02*
D03*
Y1131430D02*
D03*
X1744580Y1243530D02*
D03*
Y1256530D02*
D03*
X1722580D02*
D03*
Y1250030D02*
D03*
Y1243530D02*
D03*
X1744580Y1166247D02*
D03*
Y1179247D02*
D03*
X1722580D02*
D03*
Y1172747D02*
D03*
Y1166247D02*
D03*
X1508350Y1118870D02*
D03*
Y1105870D02*
D03*
X1530350D02*
D03*
Y1112370D02*
D03*
Y1118870D02*
D03*
D35*
X1485000Y1252500D02*
D03*
D36*
X1500000Y1250000D02*
D03*
Y1255000D02*
D03*
X1470000D02*
D03*
Y1250000D02*
D03*
D37*
X1495000Y1265000D02*
D03*
X1490000D02*
D03*
X1485000D02*
D03*
X1480000D02*
D03*
X1475000D02*
D03*
Y1240000D02*
D03*
X1480000D02*
D03*
X1485000D02*
D03*
X1490000D02*
D03*
X1495000D02*
D03*
D38*
X1465210Y1152750D02*
D03*
Y1157750D02*
D03*
Y1162750D02*
D03*
Y1167750D02*
D03*
X1496790Y1152750D02*
D03*
Y1157750D02*
D03*
Y1162750D02*
D03*
Y1167750D02*
D03*
X1465210Y1205250D02*
D03*
Y1210250D02*
D03*
Y1215250D02*
D03*
Y1220250D02*
D03*
X1496790Y1205250D02*
D03*
Y1210250D02*
D03*
Y1215250D02*
D03*
Y1220250D02*
D03*
D39*
X1652250Y1231750D02*
D03*
X1657250D02*
D03*
X1622250D02*
D03*
X1627250D02*
D03*
X1632250D02*
D03*
X1637250D02*
D03*
X1642250D02*
D03*
X1647250D02*
D03*
X1662250D02*
D03*
X1667250D02*
D03*
X1672250D02*
D03*
X1677250D02*
D03*
Y1147250D02*
D03*
X1672250D02*
D03*
X1667250D02*
D03*
X1662250D02*
D03*
X1657250D02*
D03*
X1652250D02*
D03*
X1647250D02*
D03*
X1642250D02*
D03*
X1637250D02*
D03*
X1632250D02*
D03*
X1627250D02*
D03*
X1622250D02*
D03*
D40*
X1692000Y1217000D02*
D03*
Y1212000D02*
D03*
Y1207000D02*
D03*
Y1202000D02*
D03*
Y1197000D02*
D03*
Y1192000D02*
D03*
Y1187000D02*
D03*
Y1182000D02*
D03*
Y1177000D02*
D03*
Y1172000D02*
D03*
Y1167000D02*
D03*
Y1162000D02*
D03*
X1607500D02*
D03*
Y1167000D02*
D03*
Y1172000D02*
D03*
Y1177000D02*
D03*
Y1182000D02*
D03*
Y1187000D02*
D03*
Y1192000D02*
D03*
Y1197000D02*
D03*
Y1202000D02*
D03*
Y1207000D02*
D03*
Y1212000D02*
D03*
Y1217000D02*
D03*
D41*
X1313150Y1263500D02*
D03*
X1296850D02*
D03*
X1305850Y1112750D02*
D03*
X1322150D02*
D03*
D42*
X1440200Y1268250D02*
D03*
X1449800D02*
D03*
X1440200Y1128750D02*
D03*
X1449800D02*
D03*
X1580700Y1151750D02*
D03*
X1590300D02*
D03*
X1309090Y1235710D02*
D03*
X1299490D02*
D03*
X1440200Y1218500D02*
D03*
X1449800D02*
D03*
X1440200Y1243500D02*
D03*
X1449800D02*
D03*
X1440200Y1155750D02*
D03*
X1449800D02*
D03*
X1440200Y1103500D02*
D03*
X1449800D02*
D03*
X1642950Y1277500D02*
D03*
X1652550D02*
D03*
Y1269250D02*
D03*
X1642950D02*
D03*
D43*
X1561000Y1148750D02*
D03*
Y1211750D02*
D03*
X1536000Y1148750D02*
D03*
Y1211750D02*
D03*
M02*
