%FSLAX44Y44*%
%MOMM*%
G71*
G01*
G75*
G04 Layer_Color=16711935*
%ADD10R,0.7620X0.7620*%
%ADD11R,0.5000X0.2000*%
%ADD12R,0.7620X0.7620*%
%ADD13R,0.3000X0.3000*%
%ADD14R,1.3000X0.4500*%
%ADD15R,2.7940X0.7366*%
%ADD16R,0.6200X0.5700*%
%ADD17C,0.1500*%
%ADD18C,0.2540*%
%ADD19C,0.1524*%
%ADD20O,2.0000X1.4500*%
%ADD21O,1.8000X1.1500*%
%ADD22C,0.8000*%
%ADD23C,1.8000*%
%ADD24R,1.8000X1.8000*%
%ADD25C,1.8000*%
%ADD26R,1.8000X1.8000*%
%ADD27C,0.6100*%
%ADD28C,0.6000*%
%ADD29C,3.3000*%
%ADD30R,0.6000X0.5500*%
%ADD31R,0.9500X0.9500*%
%ADD32R,0.5500X0.6000*%
%ADD33R,0.9500X0.9500*%
%ADD34R,0.8500X0.3500*%
%ADD35R,1.5000X1.0000*%
%ADD36O,0.8000X0.3000*%
%ADD37O,0.3000X0.8000*%
%ADD38R,1.2500X0.3000*%
%ADD39O,0.3500X1.7500*%
%ADD40O,1.7500X0.3500*%
%ADD41R,0.9700X0.9600*%
%ADD42R,0.5700X0.6200*%
%ADD43R,1.4000X2.2000*%
%ADD44C,0.4000*%
%ADD45C,0.2286*%
%ADD46C,0.1778*%
%ADD47R,0.9652X0.9652*%
%ADD48R,0.7032X0.4032*%
%ADD49R,0.9652X0.9652*%
%ADD50R,0.5032X0.5032*%
%ADD51R,1.5032X0.6532*%
%ADD52R,2.8956X0.8382*%
%ADD53R,0.8232X0.7732*%
%ADD54C,0.2032*%
%ADD55O,2.2032X1.6532*%
%ADD56O,2.0032X1.3532*%
%ADD57C,1.0032*%
%ADD58C,2.0032*%
%ADD59R,2.0032X2.0032*%
%ADD60C,2.0032*%
%ADD61R,2.0032X2.0032*%
%ADD62C,0.0100*%
%ADD63R,0.8032X0.7532*%
%ADD64R,1.1532X1.1532*%
%ADD65R,0.7532X0.8032*%
%ADD66R,1.1532X1.1532*%
%ADD67R,1.0532X0.5532*%
%ADD68R,1.7032X1.2032*%
%ADD69O,1.0032X0.5032*%
%ADD70O,0.5032X1.0032*%
%ADD71R,1.4532X0.5032*%
%ADD72O,0.5532X1.9532*%
%ADD73O,1.9532X0.5532*%
%ADD74R,1.1732X1.1632*%
%ADD75R,0.7732X0.8232*%
%ADD76R,1.6032X2.4032*%
%ADD77C,3.5032*%
D53*
X1675250Y1261050D02*
D03*
Y1251450D02*
D03*
X1684750Y1261050D02*
D03*
Y1251450D02*
D03*
X1632250D02*
D03*
Y1261050D02*
D03*
X1669480Y1116250D02*
D03*
Y1125850D02*
D03*
X1660730Y1116250D02*
D03*
Y1125850D02*
D03*
X1498250Y1177200D02*
D03*
Y1186800D02*
D03*
X1479417Y1177200D02*
D03*
Y1186800D02*
D03*
X1470000Y1196550D02*
D03*
Y1186950D02*
D03*
X1488833Y1196550D02*
D03*
Y1186950D02*
D03*
X1580250Y1207450D02*
D03*
Y1217050D02*
D03*
D54*
X1552500Y1246170D02*
D03*
Y1128825D02*
D03*
D55*
X1342900Y1207890D02*
D03*
Y1133390D02*
D03*
D56*
X1304900Y1209390D02*
D03*
Y1131890D02*
D03*
D57*
X1332400Y1195640D02*
D03*
Y1145640D02*
D03*
D58*
X1411054Y1207202D02*
D03*
Y1232602D02*
D03*
Y1114200D02*
D03*
Y1139600D02*
D03*
D59*
Y1258002D02*
D03*
Y1165000D02*
D03*
D60*
X1788650Y1095700D02*
D03*
X1763250D02*
D03*
X1788650Y1121100D02*
D03*
X1763250D02*
D03*
X1788650Y1146500D02*
D03*
X1763250D02*
D03*
X1788650Y1171900D02*
D03*
X1763250D02*
D03*
X1788650Y1197300D02*
D03*
X1763250D02*
D03*
X1788650Y1222700D02*
D03*
X1763250D02*
D03*
X1788650Y1248100D02*
D03*
X1763250D02*
D03*
X1788650Y1273500D02*
D03*
D61*
X1763250D02*
D03*
D62*
X1669500Y1277750D02*
D03*
X1725500Y1228750D02*
D03*
X1705750Y1222250D02*
D03*
X1730500Y1256750D02*
D03*
X1626500Y1277750D02*
D03*
X1656414Y1256250D02*
D03*
X1664038D02*
D03*
X1690250Y1228750D02*
D03*
X1652250Y1104000D02*
D03*
X1725500Y1158500D02*
D03*
X1725364Y1151130D02*
D03*
X1752500Y1136750D02*
D03*
D63*
X1662250Y1269250D02*
D03*
Y1277750D02*
D03*
X1590500Y1216750D02*
D03*
Y1208250D02*
D03*
X1579250Y1177250D02*
D03*
Y1168750D02*
D03*
X1580000Y1188250D02*
D03*
Y1196750D02*
D03*
X1588500Y1177250D02*
D03*
Y1168750D02*
D03*
X1632750Y1269250D02*
D03*
Y1277750D02*
D03*
X1342500Y1107500D02*
D03*
Y1116000D02*
D03*
D64*
X1363080Y1162090D02*
D03*
X1377580D02*
D03*
X1363080Y1206500D02*
D03*
X1377580D02*
D03*
X1344500Y1227000D02*
D03*
X1330000D02*
D03*
Y1264500D02*
D03*
X1344500D02*
D03*
D65*
X1736330Y1154580D02*
D03*
X1744830D02*
D03*
X1702240Y1130300D02*
D03*
X1693740D02*
D03*
X1524440D02*
D03*
X1515940D02*
D03*
X1580320D02*
D03*
X1571820D02*
D03*
X1482530D02*
D03*
X1474030D02*
D03*
X1299750Y1246750D02*
D03*
X1308250D02*
D03*
X1736330Y1143430D02*
D03*
X1744830D02*
D03*
X1744330Y1220630D02*
D03*
X1735830D02*
D03*
Y1231780D02*
D03*
X1744330D02*
D03*
D66*
X1511750Y1201000D02*
D03*
Y1186500D02*
D03*
Y1155250D02*
D03*
Y1169750D02*
D03*
D67*
X1360500Y1192000D02*
D03*
Y1179000D02*
D03*
X1382500D02*
D03*
Y1185500D02*
D03*
Y1192000D02*
D03*
X1686150Y1118730D02*
D03*
Y1105730D02*
D03*
X1708150D02*
D03*
Y1112230D02*
D03*
Y1118730D02*
D03*
X1467710Y1118870D02*
D03*
Y1105870D02*
D03*
X1489710D02*
D03*
Y1112370D02*
D03*
Y1118870D02*
D03*
X1564230Y1118730D02*
D03*
Y1105730D02*
D03*
X1586230D02*
D03*
Y1112230D02*
D03*
Y1118730D02*
D03*
X1327250Y1252000D02*
D03*
Y1239000D02*
D03*
X1349250D02*
D03*
Y1245500D02*
D03*
Y1252000D02*
D03*
X1723080Y1208713D02*
D03*
Y1195713D02*
D03*
X1745080D02*
D03*
Y1202213D02*
D03*
Y1208713D02*
D03*
X1723080Y1131430D02*
D03*
Y1118430D02*
D03*
X1745080D02*
D03*
Y1124930D02*
D03*
Y1131430D02*
D03*
X1744580Y1243530D02*
D03*
Y1256530D02*
D03*
X1722580D02*
D03*
Y1250030D02*
D03*
Y1243530D02*
D03*
X1744580Y1166247D02*
D03*
Y1179247D02*
D03*
X1722580D02*
D03*
Y1172747D02*
D03*
Y1166247D02*
D03*
X1508350Y1118870D02*
D03*
Y1105870D02*
D03*
X1530350D02*
D03*
Y1112370D02*
D03*
Y1118870D02*
D03*
D68*
X1485000Y1252500D02*
D03*
D69*
X1500000Y1250000D02*
D03*
Y1255000D02*
D03*
X1470000D02*
D03*
Y1250000D02*
D03*
D70*
X1495000Y1265000D02*
D03*
X1490000D02*
D03*
X1485000D02*
D03*
X1480000D02*
D03*
X1475000D02*
D03*
Y1240000D02*
D03*
X1480000D02*
D03*
X1485000D02*
D03*
X1490000D02*
D03*
X1495000D02*
D03*
D71*
X1465210Y1152750D02*
D03*
Y1157750D02*
D03*
Y1162750D02*
D03*
Y1167750D02*
D03*
X1496790Y1152750D02*
D03*
Y1157750D02*
D03*
Y1162750D02*
D03*
Y1167750D02*
D03*
X1465210Y1205250D02*
D03*
Y1210250D02*
D03*
Y1215250D02*
D03*
Y1220250D02*
D03*
X1496790Y1205250D02*
D03*
Y1210250D02*
D03*
Y1215250D02*
D03*
Y1220250D02*
D03*
D72*
X1652250Y1231750D02*
D03*
X1657250D02*
D03*
X1622250D02*
D03*
X1627250D02*
D03*
X1632250D02*
D03*
X1637250D02*
D03*
X1642250D02*
D03*
X1647250D02*
D03*
X1662250D02*
D03*
X1667250D02*
D03*
X1672250D02*
D03*
X1677250D02*
D03*
Y1147250D02*
D03*
X1672250D02*
D03*
X1667250D02*
D03*
X1662250D02*
D03*
X1657250D02*
D03*
X1652250D02*
D03*
X1647250D02*
D03*
X1642250D02*
D03*
X1637250D02*
D03*
X1632250D02*
D03*
X1627250D02*
D03*
X1622250D02*
D03*
D73*
X1692000Y1217000D02*
D03*
Y1212000D02*
D03*
Y1207000D02*
D03*
Y1202000D02*
D03*
Y1197000D02*
D03*
Y1192000D02*
D03*
Y1187000D02*
D03*
Y1182000D02*
D03*
Y1177000D02*
D03*
Y1172000D02*
D03*
Y1167000D02*
D03*
Y1162000D02*
D03*
X1607500D02*
D03*
Y1167000D02*
D03*
Y1172000D02*
D03*
Y1177000D02*
D03*
Y1182000D02*
D03*
Y1187000D02*
D03*
Y1192000D02*
D03*
Y1197000D02*
D03*
Y1202000D02*
D03*
Y1207000D02*
D03*
Y1212000D02*
D03*
Y1217000D02*
D03*
D74*
X1313150Y1263500D02*
D03*
X1296850D02*
D03*
X1305850Y1112750D02*
D03*
X1322150D02*
D03*
D75*
X1440200Y1268250D02*
D03*
X1449800D02*
D03*
X1440200Y1128750D02*
D03*
X1449800D02*
D03*
X1580700Y1151750D02*
D03*
X1590300D02*
D03*
X1309090Y1235710D02*
D03*
X1299490D02*
D03*
X1440200Y1218500D02*
D03*
X1449800D02*
D03*
X1440200Y1243500D02*
D03*
X1449800D02*
D03*
X1440200Y1155750D02*
D03*
X1449800D02*
D03*
X1440200Y1103500D02*
D03*
X1449800D02*
D03*
X1642950Y1277500D02*
D03*
X1652550D02*
D03*
Y1269250D02*
D03*
X1642950D02*
D03*
D76*
X1561000Y1148750D02*
D03*
Y1211750D02*
D03*
X1536000Y1148750D02*
D03*
Y1211750D02*
D03*
D77*
X1610000Y1115500D02*
D03*
Y1260000D02*
D03*
M02*
